<?xml version="1.0" encoding="UTF-8" standalone="no"?>
<svg inkscape:version="1.1.2 (0a00cf5339, 2022-02-04)" sodipodi:docname="jakub-jankiewicz-cv-page3.svg" width="744.09448819" height="1052.3622047" id="svg2" version="1.1" xmlns:inkscape="http://www.inkscape.org/namespaces/inkscape" xmlns:sodipodi="http://sodipodi.sourceforge.net/DTD/sodipodi-0.dtd" xmlns="http://www.w3.org/2000/svg" xmlns:svg="http://www.w3.org/2000/svg" xmlns:rdf="http://www.w3.org/1999/02/22-rdf-syntax-ns#" xmlns:cc="http://creativecommons.org/ns#" xmlns:dc="http://purl.org/dc/elements/1.1/">
  <sodipodi:namedview inkscape:document-rotation="0" inkscape:current-layer="svg2" inkscape:window-maximized="0" inkscape:window-y="37" inkscape:window-x="131" inkscape:cy="737.99125" inkscape:cx="529.24675" inkscape:zoom="1.7940592" showgrid="false" id="namedview194" inkscape:window-height="905" inkscape:window-width="1779" inkscape:pageshadow="2" inkscape:pageopacity="0" guidetolerance="10" gridtolerance="10" objecttolerance="10" borderopacity="1" bordercolor="#666666" pagecolor="#ffffff" inkscape:pagecheckerboard="0" />
  <defs id="defs4">
    <rect x="769.85661" y="520.39128" width="268.78702" height="128.10707" id="rect37309" />
    <rect x="767.4657" y="511.44064" width="121.14935" height="120.36122" id="rect34097" />
    <rect x="794.89853" y="402.45342" width="185.33232" height="156.63889" id="rect28571" />
    <rect x="769.85661" y="520.39128" width="258.22914" height="56.64607" id="rect87174" />
    <rect x="769.85661" y="520.39128" width="267.22823" height="70.948357" id="rect96908" />
    <rect x="769.85661" y="520.39128" width="269.16308" height="62.235025" id="rect14001" />
  </defs>
  <metadata id="metadata7">
    <rdf:RDF>
      <cc:Work rdf:about="">
        <dc:format>image/svg+xml</dc:format>
        <dc:type rdf:resource="http://purl.org/dc/dcmitype/StillImage" />
      </cc:Work>
    </rdf:RDF>
  </metadata>
  <rect y="1.1147927" x="0" height="1052.3622" width="744.09448" id="rect4186" style="color:#000000;display:inline;overflow:visible;visibility:visible;fill:#ffffff;fill-opacity:1;fill-rule:nonzero;stroke:none;stroke-width:5.8210001;marker:none;enable-background:accumulate" />
  <path inkscape:connector-curvature="0" id="path3048" clip-path="none" d="m 290.78906,6.1117569 -0.79687,2 v 5.8222661 l 0.87109,2.076171 2.0918,0.832032 2.06054,-0.908203 0.79688,-2 V 8.1117569 l -0.87109,-2.0761719 -2.0918,-0.8339843 z m 0,17.4628911 -0.79687,2 v 5.822265 l 0.87109,2.076172 2.0918,0.833985 2.06054,-0.910157 0.79688,-2 v -5.822265 l -0.87109,-2.076172 -2.0918,-0.833985 z m 0,17.46289 -0.79687,2 v 5.822266 l 0.87109,2.076172 2.0918,0.833984 2.06054,-0.910156 0.79688,-2 v -5.822266 l -0.87109,-2.076172 -2.0918,-0.833984 z m 0,17.462891 -0.79687,2 v 5.822265 l 0.87109,2.076172 2.0918,0.833985 2.06054,-0.910157 0.79688,-2 v -5.822265 l -0.87109,-2.076172 -2.0918,-0.833984 z m 0,17.462891 -0.79687,2 v 5.822265 l 0.87109,2.076172 2.0918,0.833984 2.06054,-0.910156 0.79688,-2 V 77.96332 l -0.87109,-2.076172 -2.0918,-0.833985 z m 0,17.46289 -0.79687,2 v 5.82226 l 0.87109,2.07618 2.0918,0.83398 2.06054,-0.91016 0.79688,-2 v -5.82226 l -0.87109,-2.076172 -2.0918,-0.832031 z m 0,17.46289 -0.79687,2.00195 v 5.82031 l 0.87109,2.07618 2.0918,0.83398 2.06054,-0.91016 0.79688,-2 v -5.82031 l -0.87109,-2.07812 -2.0918,-0.83203 z m 0,17.46289 -0.79687,2.00195 v 5.82032 l 0.87109,2.07617 2.0918,0.83398 2.06054,-0.91015 0.79688,-2 v -5.82032 l -0.87109,-2.07812 -2.0918,-0.83203 z m 0,17.46289 -0.79687,2.00195 v 5.82032 l 0.87109,2.07617 2.0918,0.83398 2.06054,-0.91015 0.79688,-2 v -5.82032 l -0.87109,-2.07812 -2.0918,-0.83203 z m 0,17.46289 -0.79687,2.00195 v 5.82032 l 0.87109,2.07617 2.0918,0.83398 2.06054,-0.91015 0.79688,-2 v -5.82032 l -0.87109,-2.07812 -2.0918,-0.83203 z m 0,17.46289 -0.79687,2.00195 v 5.82032 l 0.87109,2.07617 2.0918,0.83398 2.06054,-0.91015 0.79688,-2 v -5.82032 l -0.87109,-2.07812 -2.0918,-0.83203 z m 0,17.46289 -0.79687,2.00195 v 5.82032 l 0.87109,2.07617 2.0918,0.83398 2.06054,-0.91015 0.79688,-2 v -5.82032 l -0.87109,-2.07812 -2.0918,-0.83203 z m 0,17.46485 -0.79687,2 v 5.82031 l 0.87109,2.07812 2.0918,0.83203 2.06054,-0.9082 0.79688,-2.00195 v -5.82031 l -0.87109,-2.07618 -2.0918,-0.83398 z m 0,17.46289 -0.79687,2 v 5.82031 l 0.87109,2.07812 2.0918,0.83204 2.06054,-0.90821 0.79688,-2.00195 v -5.82031 l -0.87109,-2.07618 -2.0918,-0.83398 z m 0,17.46289 -0.79687,2 v 5.82031 l 0.87109,2.07812 2.0918,0.83204 2.06054,-0.90821 0.79688,-2.00195 v -5.82031 l -0.87109,-2.07618 -2.0918,-0.83398 z m 0,17.46289 -0.79687,2 v 5.82031 l 0.87109,2.07812 2.0918,0.83204 2.06054,-0.90821 0.79688,-2.00195 v -5.82031 l -0.87109,-2.07617 -2.0918,-0.83399 z m 0,17.46289 -0.79687,2 v 5.82031 l 0.87109,2.07813 2.0918,0.83203 2.06054,-0.90821 0.79688,-2.00195 v -5.82031 l -0.87109,-2.07617 -2.0918,-0.83399 z m 0,17.46289 -0.79687,2 v 5.82031 l 0.87109,2.07813 2.0918,0.83203 2.06054,-0.90821 0.79688,-2.00195 v -5.82031 l -0.87109,-2.07617 -2.0918,-0.83399 z m 0,17.46289 -0.79687,2 v 5.82226 l 0.87109,2.07618 2.0918,0.83203 2.06054,-0.90821 0.79688,-2 v -5.82226 l -0.87109,-2.07617 -2.0918,-0.83399 z m 0,17.46289 -0.79687,2 v 5.82227 l 0.87109,2.07617 2.0918,0.83398 2.06054,-0.91015 0.79688,-2 v -5.82227 l -0.87109,-2.07617 -2.0918,-0.83399 z m 0,17.46289 -0.79687,2 v 5.82227 l 0.87109,2.07617 2.0918,0.83398 2.06054,-0.91015 0.79688,-2 v -5.82227 l -0.87109,-2.07617 -2.0918,-0.83399 z m 0,17.46289 -0.79687,2 v 5.82227 l 0.87109,2.07617 2.0918,0.83398 2.06054,-0.91015 0.79688,-2 v -5.82227 l -0.87109,-2.07617 -2.0918,-0.83398 z m 0,17.46289 -0.79687,2 v 5.82227 l 0.87109,2.07617 2.0918,0.83398 2.06054,-0.91015 0.79688,-2 v -5.82227 l -0.87109,-2.07617 -2.0918,-0.83398 z m 0,17.46289 -0.79687,2 v 5.82227 l 0.87109,2.07617 2.0918,0.83398 2.06054,-0.91015 0.79688,-2 v -5.82227 l -0.87109,-2.07617 -2.0918,-0.83203 z m 0,17.46289 -0.79687,2.00196 v 5.82031 l 0.87109,2.07617 2.0918,0.83398 2.06054,-0.91015 0.79688,-2 v -5.82031 l -0.87109,-2.07813 -2.0918,-0.83203 z m 0,17.46289 -0.79687,2.00196 v 5.82031 l 0.87109,2.07617 2.0918,0.83399 2.06054,-0.91016 0.79688,-2 v -5.82031 l -0.87109,-2.07813 -2.0918,-0.83203 z m 0,17.46289 -0.79687,2.00196 v 5.82031 l 0.87109,2.07617 2.0918,0.83399 2.06054,-0.91016 0.79688,-2 v -5.82031 l -0.87109,-2.07813 -2.0918,-0.83203 z m 0,17.4629 -0.79687,2.00195 v 5.82031 l 0.87109,2.07617 2.0918,0.83399 2.06054,-0.91016 0.79688,-2 v -5.82031 l -0.87109,-2.07813 -2.0918,-0.83203 z m 0,17.46289 -0.79687,2.00195 v 5.82031 l 0.87109,2.07617 2.0918,0.83399 2.06054,-0.91016 0.79688,-2 v -5.82031 l -0.87109,-2.07813 -2.0918,-0.83203 z m 0,17.46289 -0.79687,2.00195 v 5.82031 l 0.87109,2.07617 2.0918,0.83399 2.06054,-0.91016 0.79688,-2 v -5.82031 l -0.87109,-2.07813 -2.0918,-0.83203 z m 0,17.46484 -0.79687,2 v 5.82031 l 0.87109,2.07813 2.0918,0.83203 2.06054,-0.9082 0.79688,-2.00196 v -5.82031 l -0.87109,-2.07617 -2.0918,-0.83399 z m 0,17.46289 -0.79687,2 v 5.82031 l 0.87109,2.07813 2.0918,0.83203 2.06054,-0.9082 0.79688,-2.00196 v -5.82031 l -0.87109,-2.07617 -2.0918,-0.83399 z m 0,17.46289 -0.79687,2 v 5.82031 l 0.87109,2.07813 2.0918,0.83203 2.06054,-0.9082 0.79688,-2.00196 v -5.82031 l -0.87109,-2.07617 -2.0918,-0.83399 z m 0,17.46289 -0.79687,2 v 5.82031 l 0.87109,2.07813 2.0918,0.83203 2.06054,-0.9082 0.79688,-2.00196 v -5.82031 l -0.87109,-2.07617 -2.0918,-0.83398 z m 0,17.46289 -0.79687,2 v 5.82032 l 0.87109,2.07812 2.0918,0.83203 2.06054,-0.9082 0.79688,-2.00195 v -5.82032 l -0.87109,-2.07617 -2.0918,-0.83398 z m 0,17.46289 -0.79687,2 v 5.82032 l 0.87109,2.07812 2.0918,0.83203 2.06054,-0.9082 0.79688,-2.00195 v -5.82032 l -0.87109,-2.07617 -2.0918,-0.83398 z m 0,17.46289 -0.79687,2 v 5.82227 l 0.87109,2.07617 2.0918,0.83203 2.06054,-0.9082 0.79688,-2 v -5.82227 l -0.87109,-2.07617 -2.0918,-0.83398 z m 0,17.46289 -0.79687,2 v 5.82227 l 0.87109,2.07617 2.0918,0.83399 2.06054,-0.91016 0.79688,-2 v -5.82227 l -0.87109,-2.07617 -2.0918,-0.83398 z m 0,17.46289 -0.79687,2 v 5.82227 l 0.87109,2.07617 2.0918,0.83399 2.06054,-0.91016 0.79688,-2 v -5.82227 l -0.87109,-2.07617 -2.0918,-0.83398 z m 0,17.4629 -0.79687,2 v 5.82226 l 0.87109,2.07617 2.0918,0.83399 2.06054,-0.91016 0.79688,-2 v -5.82226 l -0.87109,-2.07618 -2.0918,-0.83398 z m 0,17.46289 -0.79687,2 v 5.82226 l 0.87109,2.07617 2.0918,0.83399 2.06054,-0.91016 0.79688,-2 v -5.82226 l -0.87109,-2.07618 -2.0918,-0.83398 z m 0,17.46289 -0.79687,2 v 5.82226 l 0.87109,2.07617 2.0918,0.83399 2.06054,-0.91016 0.79688,-2 v -5.82226 l -0.87109,-2.07618 -2.0918,-0.83203 z m 0,17.46289 -0.79687,2.00195 v 5.82031 l 0.87109,2.07617 2.0918,0.83399 2.06054,-0.91016 0.79688,-2 v -5.82031 l -0.87109,-2.07812 -2.0918,-0.83204 z m 0,17.46289 -0.79687,2.00195 v 5.82031 l 0.87109,2.07618 2.0918,0.83398 2.06054,-0.91016 0.79688,-2 v -5.82031 l -0.87109,-2.07812 -2.0918,-0.83203 z m 0,17.46289 -0.79687,2.00195 v 5.82031 l 0.87109,2.07618 2.0918,0.83398 2.06054,-0.91016 0.79688,-2 v -5.82031 l -0.87109,-2.07812 -2.0918,-0.83203 z m 0,17.46289 -0.79687,2.00195 v 5.82031 l 0.87109,2.07618 2.0918,0.83398 2.06054,-0.91016 0.79688,-2 v -5.82031 l -0.87109,-2.07812 -2.0918,-0.83203 z m 0,17.46289 -0.79687,2.00195 v 5.82032 l 0.87109,2.07617 2.0918,0.83398 2.06054,-0.91015 0.79688,-2 v -5.82032 l -0.87109,-2.07812 -2.0918,-0.83203 z m 0,17.46289 -0.79687,2.00195 v 5.82032 l 0.87109,2.07617 2.0918,0.83398 2.06054,-0.91015 0.79688,-2 v -5.82032 l -0.87109,-2.07812 -2.0918,-0.83203 z m 0,17.46484 -0.79687,2 v 5.82032 l 0.87109,2.07812 2.0918,0.83203 2.06054,-0.9082 0.79688,-2.00195 v -5.82032 l -0.87109,-2.07617 -2.0918,-0.83398 z m 0,17.4629 -0.79687,2 v 5.82031 l 0.87109,2.07812 2.0918,0.83203 2.06054,-0.9082 0.79688,-2.00195 v -5.82031 l -0.87109,-2.07618 -2.0918,-0.83398 z m 0,17.46289 -0.79687,2 v 5.82031 l 0.87109,2.07812 2.0918,0.83203 2.06054,-0.9082 0.79688,-2.00195 v -5.82031 l -0.87109,-2.07618 -2.0918,-0.83398 z m 0,17.46289 -0.79687,2 v 5.82031 l 0.87109,2.07812 2.0918,0.83203 2.06054,-0.9082 0.79688,-2.00195 v -5.82031 l -0.87109,-2.07618 -2.0918,-0.83398 z m 0,17.46289 -0.79687,2 v 5.82031 l 0.87109,2.07812 2.0918,0.83204 2.06054,-0.90821 0.79688,-2.00195 v -5.82031 l -0.87109,-2.07617 -2.0918,-0.83399 z m 0,17.46289 -0.79687,2 v 5.82031 l 0.87109,2.07813 2.0918,0.83203 2.06054,-0.90821 0.79688,-2.00195 v -5.82031 l -0.87109,-2.07617 -2.0918,-0.83399 z m 0,17.46289 -0.79687,2 v 5.82226 l 0.87109,2.07618 2.0918,0.83203 2.06054,-0.90821 0.79688,-2 v -5.82226 l -0.87109,-2.07617 -2.0918,-0.83399 z m 0,17.46289 -0.79687,2 v 5.82226 l 0.87109,2.07618 2.0918,0.83398 2.06054,-0.91016 0.79688,-2 v -5.82226 l -0.87109,-2.07617 -2.0918,-0.83399 z m 0,17.46289 -0.79687,2 v 5.82227 l 0.87109,2.07617 2.0918,0.83398 2.06054,-0.91015 0.79688,-2 v -5.82227 l -0.87109,-2.07617 -2.0918,-0.83399 z m 0,17.46291 -0.79687,2 v 5.8223 l 0.87109,2.0761 2.0918,0.834 2.06054,-0.9101 0.79688,-2 v -5.8223 l -0.87109,-2.0762 -2.0918,-0.834 z m 0,17.4629 -0.79687,2 v 5.8223 l 0.87109,2.0761 2.0918,0.834 2.06054,-0.9101 0.79688,-2 v -5.8223 l -0.87109,-2.0762 -2.0918,-0.834 z m 0,17.4629 -0.79687,2 v 5.8222 l 0.87109,2.0762 2.0918,0.834 2.06054,-0.9102 0.79688,-2 v -5.8222 l -0.87109,-2.0762 -2.0918,-0.832 z" style="color:#000000;font-style:normal;font-variant:normal;font-weight:normal;font-stretch:normal;font-size:medium;line-height:normal;font-family:sans-serif;font-variant-ligatures:normal;font-variant-position:normal;font-variant-caps:normal;font-variant-numeric:normal;font-variant-alternates:normal;font-feature-settings:normal;text-indent:0;text-align:start;text-decoration:none;text-decoration-line:none;text-decoration-style:solid;text-decoration-color:#000000;letter-spacing:normal;word-spacing:normal;text-transform:none;writing-mode:lr-tb;direction:ltr;text-orientation:mixed;dominant-baseline:auto;baseline-shift:baseline;text-anchor:start;white-space:normal;shape-padding:0;clip-rule:nonzero;display:inline;overflow:visible;visibility:visible;opacity:1;isolation:auto;mix-blend-mode:normal;color-interpolation:sRGB;color-interpolation-filters:linearRGB;solid-color:#000000;solid-opacity:1;vector-effect:none;fill:#000000;fill-opacity:1;fill-rule:nonzero;stroke:none;stroke-width:5.8210001;stroke-linecap:round;stroke-linejoin:miter;stroke-miterlimit:4;stroke-dasharray:5.821, 11.642;stroke-dashoffset:0;stroke-opacity:1;color-rendering:auto;image-rendering:auto;shape-rendering:auto;text-rendering:auto;enable-background:accumulate" />
  <g transform="matrix(0.93504191,0,0,0.93504191,-120.90106,-83.61084)" id="g3112" />
  <g transform="translate(0,-15.329973)" id="g930">
    <text id="text2884" y="708.21259" x="319.88443" style="font-style:normal;font-variant:normal;font-weight:normal;font-stretch:normal;font-size:30px;font-family:'Bebas Neue';-inkscape-font-specification:'Bebas Neue';fill:#666666;fill-opacity:1;stroke:none" xml:space="preserve"><tspan y="708.21259" x="319.88443" id="tspan2886">Interests/Hobbies:</tspan></text>
    <flowRoot xml:space="preserve" id="flowRoot3831" style="font-style:normal;font-variant:normal;font-weight:500;font-stretch:normal;font-size:12.5272px;line-height:1.5;font-family:Bodonitown;-inkscape-font-specification:'Bodonitown Medium';fill:#000000;fill-opacity:1;stroke:none" transform="matrix(0.82105277,0,0,0.82105277,134.28761,483.4865)"><flowRegion id="flowRegion3833" style="line-height:1.5"><rect style="font-style:normal;font-variant:normal;font-weight:500;font-stretch:normal;font-size:12.5272px;line-height:1.5;font-family:Bodonitown;-inkscape-font-specification:'Bodonitown Medium'" id="rect3835" width="315.63986" height="173.90446" x="392.23526" y="295.07626" /></flowRegion><flowPara style="font-style:normal;font-variant:normal;font-weight:500;font-stretch:normal;font-size:12.5272px;line-height:1.5;font-family:Bodonitown;-inkscape-font-specification:'Bodonitown Medium'" id="flowPara3256">Open Source, Logo and Logotype design, Mathematics, Photography, RPG, Comics and Graphic Novels, Manga, Anime, Fantasy and SF, Cyberpunk, Editing Wikipedii (mostly Polish), Knoledge sharing and answerig programmig question on StackOverflow and Social Media (mosty  about JavaScript), SEO, Cybersecurty, Storytelling, Gamification.</flowPara></flowRoot>
  </g>
  <g transform="translate(0,-650.97947)" id="g3223" />
  <flowRoot transform="matrix(0.9589772,0,0,0.9589772,243.92614,158.73131)" style="font-style:normal;font-variant:normal;font-weight:500;font-stretch:normal;font-size:9.73259px;line-height:125%;font-family:Bodonitown;-inkscape-font-specification:'Bodonitown Medium';text-align:start;letter-spacing:0px;word-spacing:0px;writing-mode:lr-tb;text-anchor:start;fill:#666666;fill-opacity:1;stroke:none" id="flowRoot3137-3" xml:space="preserve"><flowRegion style="font-size:9.73259px;fill:#666666" id="flowRegion3139-6"><rect style="font-style:normal;font-variant:normal;font-weight:500;font-stretch:normal;font-size:9.73259163px;font-family:Bodonitown;-inkscape-font-specification:'Bodonitown Medium';fill:#666666" y="900.00262" x="64.89389" height="35.30426" width="490.78653" id="rect3141-7" /></flowRegion><flowPara id="flowPara915">Created using Inkscape; (C) 2011-2022 Jakub T. Jankiewicz; CC-BY-SA 3.0;</flowPara><flowPara id="flowPara2138">source: https://github.com/jcubic/cv</flowPara></flowRoot>
  <flowRoot xml:space="preserve" id="flowRoot901" style="font-style:normal;font-variant:normal;font-weight:500;font-stretch:normal;font-size:12.5272px;font-family:Bodonitown;-inkscape-font-specification:'Bodonitown Medium';fill:#000000;fill-opacity:1;stroke:none" transform="matrix(0.82105277,0,0,0.82105277,134.36991,-129.68244)"><flowRegion id="flowRegion897"><rect id="rect895" width="290.63779" height="72.868973" x="392.23526" y="295.07626" style="font-style:normal;font-variant:normal;font-weight:500;font-stretch:normal;font-size:12.5271616px;font-family:Bodonitown;-inkscape-font-specification:'Bodonitown Medium'" /></flowRegion><flowPara style="font-style:normal;font-variant:normal;font-weight:500;font-stretch:normal;font-size:12.5272px;font-family:Bodonitown;-inkscape-font-specification:'Bodonitown Medium'" id="flowPara899" /></flowRoot>
  <flowRoot transform="matrix(0.82105277,0,0,0.82105277,134.36991,-111.55207)" style="font-style:normal;font-variant:normal;font-weight:500;font-stretch:normal;font-size:12.5272px;font-family:Bodonitown;-inkscape-font-specification:'Bodonitown Medium';fill:#000000;fill-opacity:1;stroke:none" id="flowRoot902" xml:space="preserve"><flowRegion id="flowRegion898"><rect style="font-style:normal;font-variant:normal;font-weight:500;font-stretch:normal;font-size:12.5271616px;font-family:Bodonitown;-inkscape-font-specification:'Bodonitown Medium'" y="295.07626" x="392.23526" height="72.868973" width="290.63779" id="rect896" /></flowRegion><flowPara id="flowPara900" style="font-style:normal;font-variant:normal;font-weight:500;font-stretch:normal;font-size:12.5272px;font-family:Bodonitown;-inkscape-font-specification:'Bodonitown Medium'" /></flowRoot>
  <flowRoot xml:space="preserve" id="flowRoot910" style="font-style:normal;font-variant:normal;font-weight:500;font-stretch:normal;font-size:12.5272px;font-family:Bodonitown;-inkscape-font-specification:'Bodonitown Medium';fill:#000000;fill-opacity:1;stroke:none" transform="matrix(0.82105277,0,0,0.82105277,134.36991,-93.421714)"><flowRegion id="flowRegion906"><rect id="rect904" width="290.63779" height="39.746246" x="392.23526" y="295.07626" style="font-style:normal;font-variant:normal;font-weight:500;font-stretch:normal;font-size:12.5271616px;font-family:Bodonitown;-inkscape-font-specification:'Bodonitown Medium'" /></flowRegion><flowPara style="font-style:normal;font-variant:normal;font-weight:500;font-stretch:normal;font-size:12.5272px;font-family:Bodonitown;-inkscape-font-specification:'Bodonitown Medium'" id="flowPara908" /></flowRoot>
  <flowRoot transform="matrix(0.82105277,0,0,0.82105277,134.36991,47.449966)" style="font-style:normal;font-variant:normal;font-weight:500;font-stretch:normal;font-size:12.5272px;font-family:Bodonitown;-inkscape-font-specification:'Bodonitown Medium';fill:#000000;fill-opacity:1;stroke:none" id="flowRoot980" xml:space="preserve"><flowRegion id="flowRegion976"><rect style="font-style:normal;font-variant:normal;font-weight:500;font-stretch:normal;font-size:12.5271616px;font-family:Bodonitown;-inkscape-font-specification:'Bodonitown Medium'" y="295.07626" x="392.23526" height="72.868973" width="290.63779" id="rect974" /></flowRegion><flowPara id="flowPara978" style="font-style:normal;font-variant:normal;font-weight:500;font-stretch:normal;font-size:12.5272px;font-family:Bodonitown;-inkscape-font-specification:'Bodonitown Medium'" /></flowRoot>
  <flowRoot xml:space="preserve" id="flowRoot883" style="font-style:normal;font-variant:normal;font-weight:500;font-stretch:normal;font-size:12.5272px;font-family:Bodonitown;-inkscape-font-specification:'Bodonitown Medium';fill:#000000;fill-opacity:1;stroke:none" transform="matrix(0.82105277,0,0,0.82105277,134.36991,65.580311)"><flowRegion id="flowRegion879"><rect id="rect877" width="290.63779" height="72.868973" x="392.23526" y="295.07626" style="font-style:normal;font-variant:normal;font-weight:500;font-stretch:normal;font-size:12.5271616px;font-family:Bodonitown;-inkscape-font-specification:'Bodonitown Medium'" /></flowRegion><flowPara style="font-style:normal;font-variant:normal;font-weight:500;font-stretch:normal;font-size:12.5272px;font-family:Bodonitown;-inkscape-font-specification:'Bodonitown Medium'" id="flowPara881" /></flowRoot>
  <flowRoot transform="matrix(0.82105277,0,0,0.82105277,134.36991,278.17889)" style="font-style:normal;font-variant:normal;font-weight:500;font-stretch:normal;font-size:12.5272px;font-family:Bodonitown;-inkscape-font-specification:'Bodonitown Medium';fill:#000000;fill-opacity:1;stroke:none" id="flowRoot1010" xml:space="preserve"><flowRegion id="flowRegion1000"><rect style="font-style:normal;font-variant:normal;font-weight:500;font-stretch:normal;font-size:12.5272px;font-family:Bodonitown;-inkscape-font-specification:'Bodonitown Medium';stroke-width:1" y="295.07626" x="392.23526" height="134.14813" width="338.81937" id="rect998" /></flowRegion><flowPara style="font-style:normal;font-variant:normal;font-weight:normal;font-stretch:normal;font-size:12.5272px;font-family:Arial;-inkscape-font-specification:Arial" id="flowPara31365" /></flowRoot>
  <text xml:space="preserve" id="text34095" style="font-family:STIX;font-size:28px;line-height:1.25;letter-spacing:0px;word-spacing:0px;-inkscape-font-specification:STIX;white-space:pre;shape-inside:url(#rect34097)" />
  <g id="g25303" transform="translate(0,-10.456503)" />
  <g id="g7072" transform="translate(0,-229.38027)">
    <text xml:space="preserve" style="font-style:normal;font-variant:normal;font-weight:normal;font-stretch:normal;font-size:30px;font-family:'Bebas Neue';-inkscape-font-specification:'Bebas Neue';fill:#666666;fill-opacity:1;stroke:none" x="319.61163" y="298.5069" id="text2888"><tspan id="tspan2890" x="319.61163" y="298.5069">Courses and Trainings:</tspan></text>
    <g id="g1036" transform="translate(0.17597,229.75977)">
      <flowRoot transform="matrix(0.82105277,0,0,0.82105277,134.36991,-149.54777)" style="font-style:normal;font-variant:normal;font-weight:500;font-stretch:normal;font-size:12.5272px;line-height:1.6;font-family:Bodonitown;-inkscape-font-specification:'Bodonitown Medium';fill:#000000;fill-opacity:1;stroke:none" id="flowRoot3783" xml:space="preserve"><flowRegion id="flowRegion3785" style="line-height:1.6"><rect style="font-style:normal;font-variant:normal;font-weight:500;font-stretch:normal;font-size:12.5271616px;line-height:1.60000002;font-family:Bodonitown;-inkscape-font-specification:'Bodonitown Medium'" y="295.07626" x="392.23526" height="105.45516" width="290.63779" id="rect3787" /></flowRegion><flowPara id="flowPara3528" style="font-style:normal;font-variant:normal;font-weight:500;font-stretch:normal;font-size:12.5272px;line-height:1.6;font-family:Bodonitown;-inkscape-font-specification:'Bodonitown Medium'">Web Hacking: Become a Professional Web Pentester</flowPara><flowPara style="font-style:normal;font-variant:normal;font-weight:500;font-stretch:normal;font-size:12.5272px;line-height:1.6;font-family:Bodonitown;-inkscape-font-specification:'Bodonitown Medium'" id="flowPara1156">Hack Yourself First: How to go on the Cyber-Offense</flowPara><flowPara style="font-style:normal;font-variant:normal;font-weight:500;font-stretch:normal;font-size:12.5272px;line-height:1.6;font-family:Bodonitown;-inkscape-font-specification:'Bodonitown Medium'" id="flowPara1158">Ataki na Strony Internetowe: Praktyczny Pentesting</flowPara><flowPara style="font-style:normal;font-variant:normal;font-weight:500;font-stretch:normal;font-size:12.5272px;line-height:1.6;font-family:Bodonitown;-inkscape-font-specification:'Bodonitown Medium'" id="flowPara1160">Hacking Web Applications and Penetration Testing: Fast Start</flowPara></flowRoot>
      <text id="text3779" y="110.8774" x="439.01544" style="font-style:normal;font-variant:normal;font-weight:normal;font-stretch:normal;font-size:22.441px;font-family:'Bebas Neue';-inkscape-font-specification:'Bebas Neue';text-align:end;text-anchor:end;fill:#0b7af9;fill-opacity:1;stroke:none;stroke-width:0.935042" xml:space="preserve"><tspan sodipodi:role="line" id="tspan14931" x="439.01544" y="110.8774">WEb applications<tspan id="tspan3957" style="font-style:normal;font-variant:normal;font-weight:normal;font-stretch:normal;font-size:22.441px;font-family:'Bebas Neue';-inkscape-font-specification:'Bebas Neue';text-align:end;text-anchor:end;fill:#0b7af9;fill-opacity:1;stroke-width:0.935042" y="110.8774" x="439.01544" /></tspan><tspan sodipodi:role="line" x="439.01544" y="138.92865" id="tspan14937">Security</tspan></text>
      <flowRoot xml:space="preserve" id="flowRoot901-3" style="font-style:normal;font-variant:normal;font-weight:500;font-stretch:normal;font-size:12.5272px;font-family:Bodonitown;-inkscape-font-specification:'Bodonitown Medium';fill:#000000;fill-opacity:1;stroke:none" transform="matrix(0.82105277,0,0,0.82105277,134.36991,-131.4174)"><flowRegion id="flowRegion897-6"><rect id="rect895-7" width="290.63779" height="72.868973" x="392.23526" y="295.07626" style="font-style:normal;font-variant:normal;font-weight:500;font-stretch:normal;font-size:12.5271616px;font-family:Bodonitown;-inkscape-font-specification:'Bodonitown Medium'" /></flowRegion><flowPara style="font-style:normal;font-variant:normal;font-weight:500;font-stretch:normal;font-size:12.5272px;font-family:Bodonitown;-inkscape-font-specification:'Bodonitown Medium'" id="flowPara899-5" /></flowRoot>
      <flowRoot transform="matrix(0.82105277,0,0,0.82105277,134.36991,-113.28703)" style="font-style:normal;font-variant:normal;font-weight:500;font-stretch:normal;font-size:12.5272px;font-family:Bodonitown;-inkscape-font-specification:'Bodonitown Medium';fill:#000000;fill-opacity:1;stroke:none" id="flowRoot902-3" xml:space="preserve"><flowRegion id="flowRegion898-5"><rect style="font-style:normal;font-variant:normal;font-weight:500;font-stretch:normal;font-size:12.5271616px;font-family:Bodonitown;-inkscape-font-specification:'Bodonitown Medium'" y="295.07626" x="392.23526" height="72.868973" width="290.63779" id="rect896-6" /></flowRegion><flowPara id="flowPara900-2" style="font-style:normal;font-variant:normal;font-weight:500;font-stretch:normal;font-size:12.5272px;font-family:Bodonitown;-inkscape-font-specification:'Bodonitown Medium'" /></flowRoot>
      <flowRoot xml:space="preserve" id="flowRoot910-9" style="font-style:normal;font-variant:normal;font-weight:500;font-stretch:normal;font-size:12.5272px;font-family:Bodonitown;-inkscape-font-specification:'Bodonitown Medium';fill:#000000;fill-opacity:1;stroke:none" transform="matrix(0.82105277,0,0,0.82105277,134.36991,-95.156679)"><flowRegion id="flowRegion906-1"><rect id="rect904-2" width="290.63779" height="39.746246" x="392.23526" y="295.07626" style="font-style:normal;font-variant:normal;font-weight:500;font-stretch:normal;font-size:12.5271616px;font-family:Bodonitown;-inkscape-font-specification:'Bodonitown Medium'" /></flowRegion><flowPara style="font-style:normal;font-variant:normal;font-weight:500;font-stretch:normal;font-size:12.5272px;font-family:Bodonitown;-inkscape-font-specification:'Bodonitown Medium'" id="flowPara908-7" /></flowRoot>
    </g>
    <g id="g1014" transform="translate(0.17597,310.36986)">
      <text xml:space="preserve" style="font-style:normal;font-variant:normal;font-weight:normal;font-stretch:normal;font-size:22.441px;font-family:'Bebas Neue';-inkscape-font-specification:'Bebas Neue';text-align:end;text-anchor:end;fill:#0b7af9;fill-opacity:1;stroke:none;stroke-width:0.935042" x="439.01544" y="204.97192" id="text1144"><tspan sodipodi:role="line" id="tspan23578" x="439.01544" y="204.97192"><tspan x="439.01544" y="204.97192" style="font-style:normal;font-variant:normal;font-weight:normal;font-stretch:normal;font-size:22.441px;font-family:'Bebas Neue';-inkscape-font-specification:'Bebas Neue';text-align:end;text-anchor:end;fill:#0b7af9;fill-opacity:1;stroke-width:0.935042" id="tspan1142">JavaScript</tspan></tspan><tspan sodipodi:role="line" x="439.01544" y="233.02318" id="tspan23584">Frameworks</tspan></text>
      <flowRoot xml:space="preserve" id="flowRoot1140" style="font-style:normal;font-variant:normal;font-weight:500;font-stretch:normal;font-size:12.5272px;line-height:1.6;font-family:Bodonitown;-inkscape-font-specification:'Bodonitown Medium';fill:#000000;fill-opacity:1;stroke:none" transform="matrix(0.82105277,0,0,0.82105277,134.36991,-55.453149)"><flowRegion id="flowRegion1136" style="line-height:1.6"><rect id="rect1134" width="290.63779" height="119.03274" x="392.23526" y="295.07626" style="font-style:normal;font-variant:normal;font-weight:500;font-stretch:normal;font-size:12.5271616px;line-height:1.60000002;font-family:Bodonitown;-inkscape-font-specification:'Bodonitown Medium'" /></flowRegion><flowPara style="font-style:normal;font-variant:normal;font-weight:500;font-stretch:normal;font-size:12.5272px;line-height:1.6;font-family:Bodonitown;-inkscape-font-specification:'Bodonitown Medium'" id="flowPara1138">The Beginner’s Guide to ReactJS</flowPara><flowPara style="font-style:normal;font-variant:normal;font-weight:500;font-stretch:normal;font-size:12.5272px;line-height:1.6;font-family:Bodonitown;-inkscape-font-specification:'Bodonitown Medium'" id="flowPara1150">Advanced React Component Patterns</flowPara><flowPara style="font-style:normal;font-variant:normal;font-weight:500;font-stretch:normal;font-size:12.5272px;line-height:1.6;font-family:Bodonitown;-inkscape-font-specification:'Bodonitown Medium'" id="flowPara1152">Master Electron: Desktop Apps using HTML, JavaScript &amp; CSS</flowPara><flowPara style="font-style:normal;font-variant:normal;font-weight:500;font-stretch:normal;font-size:12.5272px;line-height:1.6;font-family:Bodonitown;-inkscape-font-specification:'Bodonitown Medium'" id="flowPara965">Understanding TypeScript</flowPara><flowPara style="font-style:normal;font-variant:normal;font-weight:500;font-stretch:normal;font-size:12.5272px;line-height:1.6;font-family:Bodonitown;-inkscape-font-specification:'Bodonitown Medium'" id="flowPara1154">Angular 7 (formerly Angular 2) - The Complete Guide</flowPara></flowRoot>
      <flowRoot transform="matrix(0.82105277,0,0,0.82105277,134.36991,-40.081769)" style="font-style:normal;font-variant:normal;font-weight:500;font-stretch:normal;font-size:12.5272px;font-family:Bodonitown;-inkscape-font-specification:'Bodonitown Medium';fill:#000000;fill-opacity:1;stroke:none" id="flowRoot980-0" xml:space="preserve"><flowRegion id="flowRegion976-9"><rect style="font-style:normal;font-variant:normal;font-weight:500;font-stretch:normal;font-size:12.5271616px;font-family:Bodonitown;-inkscape-font-specification:'Bodonitown Medium'" y="295.07626" x="392.23526" height="72.868973" width="290.63779" id="rect974-3" /></flowRegion><flowPara id="flowPara978-6" style="font-style:normal;font-variant:normal;font-weight:500;font-stretch:normal;font-size:12.5272px;font-family:Bodonitown;-inkscape-font-specification:'Bodonitown Medium'" /></flowRoot>
      <flowRoot xml:space="preserve" id="flowRoot883-0" style="font-style:normal;font-variant:normal;font-weight:500;font-stretch:normal;font-size:12.5272px;font-family:Bodonitown;-inkscape-font-specification:'Bodonitown Medium';fill:#000000;fill-opacity:1;stroke:none" transform="matrix(0.82105277,0,0,0.82105277,134.36991,-21.951424)"><flowRegion id="flowRegion879-6"><rect id="rect877-2" width="290.63779" height="72.868973" x="392.23526" y="295.07626" style="font-style:normal;font-variant:normal;font-weight:500;font-stretch:normal;font-size:12.5271616px;font-family:Bodonitown;-inkscape-font-specification:'Bodonitown Medium'" /></flowRegion><flowPara style="font-style:normal;font-variant:normal;font-weight:500;font-stretch:normal;font-size:12.5272px;font-family:Bodonitown;-inkscape-font-specification:'Bodonitown Medium'" id="flowPara881-6" /></flowRoot>
    </g>
    <g id="g985" transform="translate(0.17597,347.58317)">
      <text id="text918" y="281.89246" x="439.01544" style="font-style:normal;font-variant:normal;font-weight:normal;font-stretch:normal;font-size:22.441px;font-family:'Bebas Neue';-inkscape-font-specification:'Bebas Neue';text-align:end;text-anchor:end;fill:#0b7af9;fill-opacity:1;stroke:none;stroke-width:0.935042" xml:space="preserve"><tspan id="tspan916" style="font-style:normal;font-variant:normal;font-weight:normal;font-stretch:normal;font-size:22.441px;font-family:'Bebas Neue';-inkscape-font-specification:'Bebas Neue';text-align:end;text-anchor:end;fill:#0b7af9;fill-opacity:1;stroke-width:0.935042" y="281.89246" x="439.01544">CSS</tspan></text>
      <flowRoot transform="matrix(0.82105277,0,0,0.82105277,134.36991,21.467391)" style="font-style:normal;font-variant:normal;font-weight:500;font-stretch:normal;font-size:12.5272px;font-family:Bodonitown;-inkscape-font-specification:'Bodonitown Medium';fill:#000000;fill-opacity:1;stroke:none" id="flowRoot926" xml:space="preserve"><flowRegion id="flowRegion922"><rect style="font-style:normal;font-variant:normal;font-weight:500;font-stretch:normal;font-size:12.5271616px;font-family:Bodonitown;-inkscape-font-specification:'Bodonitown Medium'" y="295.07626" x="392.23526" height="72.868973" width="290.63779" id="rect920" /></flowRegion><flowPara id="flowPara924" style="font-style:normal;font-variant:normal;font-weight:500;font-stretch:normal;font-size:12.5272px;font-family:Bodonitown;-inkscape-font-specification:'Bodonitown Medium'">The Complete Flexbox Tutorial: Learn CSS3 Flexbox in 2018</flowPara><flowPara id="flowPara914" style="font-style:normal;font-variant:normal;font-weight:500;font-stretch:normal;font-size:12.5272px;font-family:Bodonitown;-inkscape-font-specification:'Bodonitown Medium'">Ultimate CSS Grid Course: From Beginner to Advanced</flowPara></flowRoot>
    </g>
    <g id="g996" transform="translate(0.17597,99.503279)">
      <text xml:space="preserve" style="font-style:normal;font-variant:normal;font-weight:normal;font-stretch:normal;font-size:22.441px;font-family:'Bebas Neue';-inkscape-font-specification:'Bebas Neue';text-align:end;text-anchor:end;fill:#0b7af9;fill-opacity:1;stroke:none;stroke-width:0.935042" x="439.01544" y="336.51721" id="text906"><tspan x="439.01544" y="336.51721" style="font-style:normal;font-variant:normal;font-weight:normal;font-stretch:normal;font-size:22.441px;font-family:'Bebas Neue';-inkscape-font-specification:'Bebas Neue';text-align:end;text-anchor:end;fill:#0b7af9;fill-opacity:1;stroke-width:0.935042" id="tspan904">JavaScript</tspan></text>
      <flowRoot xml:space="preserve" id="flowRoot914" style="font-style:normal;font-variant:normal;font-weight:500;font-stretch:normal;font-size:12.5272px;line-height:1.6;font-family:Bodonitown;-inkscape-font-specification:'Bodonitown Medium';fill:#000000;fill-opacity:1;stroke:none" transform="matrix(0.82105277,0,0,0.82105277,134.36991,74.19319)"><flowRegion style="line-height:1.6" id="flowRegion910"><rect id="rect908" width="290.63779" height="82.712738" x="392.23526" y="295.07626" style="font-style:normal;font-variant:normal;font-weight:500;font-stretch:normal;font-size:12.5271616px;line-height:1.60000002;font-family:Bodonitown;-inkscape-font-specification:'Bodonitown Medium'" /></flowRegion><flowPara style="font-style:normal;font-variant:normal;font-weight:500;font-stretch:normal;font-size:12.5272px;line-height:1.6;font-family:Bodonitown;-inkscape-font-specification:'Bodonitown Medium'" id="flowPara912">Functional-Light JavaScript, v2</flowPara><flowPara id="flowPara987" style="font-style:normal;font-variant:normal;font-weight:500;font-stretch:normal;font-size:12.5272px;line-height:1.6;font-family:Bodonitown;-inkscape-font-specification:'Bodonitown Medium'">Deep JavaScript Foundations</flowPara><flowPara style="font-style:normal;font-variant:normal;font-weight:500;font-stretch:normal;font-size:12.5272px;line-height:1.6;font-family:Bodonitown;-inkscape-font-specification:'Bodonitown Medium'" id="flowPara903">ES6 The Right Parts</flowPara><flowPara id="flowPara916" style="font-style:normal;font-variant:normal;font-weight:500;font-stretch:normal;font-size:12.5272px;line-height:1.6;font-family:Bodonitown;-inkscape-font-specification:'Bodonitown Medium'">Hardcore Functional Programming in JavaScript</flowPara></flowRoot>
    </g>
    <g transform="translate(0.17597,403.24784)" id="g990">
      <text xml:space="preserve" style="font-style:normal;font-variant:normal;font-weight:normal;font-stretch:normal;font-size:22.441px;font-family:'Bebas Neue';-inkscape-font-specification:'Bebas Neue';text-align:end;text-anchor:end;fill:#0b7af9;fill-opacity:1;stroke:none;stroke-width:0.935042" x="439.01544" y="281.89246" id="text978"><tspan x="439.01544" y="281.89246" style="font-style:normal;font-variant:normal;font-weight:normal;font-stretch:normal;font-size:22.441px;font-family:'Bebas Neue';-inkscape-font-specification:'Bebas Neue';text-align:end;text-anchor:end;fill:#0b7af9;fill-opacity:1;stroke-width:0.935042" id="tspan976">Tools</tspan></text>
      <flowRoot xml:space="preserve" id="flowRoot988" style="font-style:normal;font-variant:normal;font-weight:500;font-stretch:normal;font-size:12.5272px;font-family:Bodonitown;-inkscape-font-specification:'Bodonitown Medium';fill:#000000;fill-opacity:1;stroke:none" transform="matrix(0.82105277,0,0,0.82105277,134.36991,21.467391)"><flowRegion id="flowRegion982"><rect id="rect980" width="290.63779" height="72.868973" x="392.23526" y="295.07626" style="font-style:normal;font-variant:normal;font-weight:500;font-stretch:normal;font-size:12.5271616px;font-family:Bodonitown;-inkscape-font-specification:'Bodonitown Medium'" /></flowRegion><flowPara style="font-style:normal;font-variant:normal;font-weight:500;font-stretch:normal;font-size:12.5272px;font-family:Bodonitown;-inkscape-font-specification:'Bodonitown Medium'" id="flowPara984">Git Essential Training</flowPara><flowPara style="font-style:normal;font-variant:normal;font-weight:500;font-stretch:normal;font-size:12.5272px;font-family:Bodonitown;-inkscape-font-specification:'Bodonitown Medium'" id="flowPara986">Learning Docker</flowPara><flowPara id="flowPara918" style="font-style:normal;font-variant:normal;font-weight:500;font-stretch:normal;font-size:12.5272px;font-family:Bodonitown;-inkscape-font-specification:'Bodonitown Medium'">Docker for Developers</flowPara><flowPara id="flowPara917" style="font-style:normal;font-variant:normal;font-weight:500;font-stretch:normal;font-size:12.5272px;font-family:Bodonitown;-inkscape-font-specification:'Bodonitown Medium'">Learning Ansible</flowPara></flowRoot>
    </g>
    <g id="g1012" transform="translate(0.17597,475.07745)">
      <text id="text996" y="281.89246" x="439.01544" style="font-style:normal;font-variant:normal;font-weight:normal;font-stretch:normal;font-size:22.441px;font-family:'Bebas Neue';-inkscape-font-specification:'Bebas Neue';text-align:end;text-anchor:end;fill:#0b7af9;fill-opacity:1;stroke:none;stroke-width:0.935042" xml:space="preserve"><tspan id="tspan954" y="281.89246" x="439.01544" sodipodi:role="line">Soft Skills</tspan></text>
      <flowRoot transform="matrix(0.82105277,0,0,0.82105277,134.36991,21.467391)" style="font-style:normal;font-variant:normal;font-weight:500;font-stretch:normal;font-size:12.5272px;font-family:Bodonitown;-inkscape-font-specification:'Bodonitown Medium';fill:#000000;fill-opacity:1;stroke:none" id="flowRoot1010-1" xml:space="preserve"><flowRegion id="flowRegion1000-8"><rect style="font-style:normal;font-variant:normal;font-weight:500;font-stretch:normal;font-size:12.5272px;font-family:Bodonitown;-inkscape-font-specification:'Bodonitown Medium';stroke-width:1" y="295.07626" x="392.23526" height="159.65982" width="290.63779" id="rect998-7" /></flowRegion><flowPara style="font-style:normal;font-variant:normal;font-weight:500;font-stretch:normal;font-size:12.5272px;font-family:Bodonitown;-inkscape-font-specification:'Bodonitown Medium'" id="flowPara1008">Akademia Mentora: mentoring i programy mentoringowe w praktyce</flowPara><flowPara id="flowPara944" style="font-style:normal;font-variant:normal;font-weight:500;font-stretch:normal;font-size:12.5272px;font-family:Bodonitown;-inkscape-font-specification:'Bodonitown Medium'">Inteligencja Relacyjna - Poczucie wartości | Asertywność | Wywieranie wpływu</flowPara><flowPara style="font-style:normal;font-variant:normal;font-weight:500;font-stretch:normal;font-size:12.5272px;font-family:Bodonitown;-inkscape-font-specification:'Bodonitown Medium'" id="flowPara19522">Trainer course – IT trainer</flowPara><flowPara style="font-style:normal;font-variant:normal;font-weight:500;font-stretch:normal;font-size:12.5272px;font-family:Bodonitown;-inkscape-font-specification:'Bodonitown Medium'" id="flowPara3572">Praktyczna Inteligencja Emocjonalna</flowPara><flowPara style="font-style:normal;font-variant:normal;font-weight:500;font-stretch:normal;font-size:12.5272px;font-family:Bodonitown;-inkscape-font-specification:'Bodonitown Medium'" id="flowPara6342" /></flowRoot>
    </g>
    <g id="g21198" transform="translate(0.17597,562.13104)">
      <text id="text21182" y="289.09473" x="439.01544" style="font-style:normal;font-variant:normal;font-weight:normal;font-stretch:normal;font-size:22.441px;font-family:'Bebas Neue';-inkscape-font-specification:'Bebas Neue';text-align:end;text-anchor:end;fill:#0b7af9;fill-opacity:1;stroke:none;stroke-width:0.935042" xml:space="preserve"><tspan id="tspan21180" y="289.09473" x="439.01544" sodipodi:role="line">Others</tspan></text>
      <flowRoot transform="matrix(0.82105277,0,0,0.82105277,134.36991,28.669646)" style="font-style:normal;font-variant:normal;font-weight:500;font-stretch:normal;font-size:12.5272px;font-family:Bodonitown;-inkscape-font-specification:'Bodonitown Medium';fill:#000000;fill-opacity:1;stroke:none" id="flowRoot21196" xml:space="preserve"><flowRegion id="flowRegion21186"><rect style="font-style:normal;font-variant:normal;font-weight:500;font-stretch:normal;font-size:12.5272px;font-family:Bodonitown;-inkscape-font-specification:'Bodonitown Medium';stroke-width:1" y="295.07626" x="392.23526" height="159.65982" width="290.63779" id="rect21184" /></flowRegion><flowPara style="font-style:normal;font-variant:normal;font-weight:500;font-stretch:normal;font-size:12.5272px;font-family:Bodonitown;-inkscape-font-specification:'Bodonitown Medium'" id="flowPara21194">SEO + Content + Link Building</flowPara><flowPara style="font-style:normal;font-variant:normal;font-weight:500;font-stretch:normal;font-size:12.5272px;font-family:Bodonitown;-inkscape-font-specification:'Bodonitown Medium'" id="flowPara2187">Optimized Content Marketing</flowPara><flowPara style="font-style:normal;font-variant:normal;font-weight:500;font-stretch:normal;font-size:12.5272px;font-family:Bodonitown;-inkscape-font-specification:'Bodonitown Medium'" id="flowPara30993" /></flowRoot>
    </g>
  </g>
  <flowRoot xml:space="preserve" id="flowRoot3137" style="font-style:normal;font-variant:normal;font-weight:500;font-stretch:normal;font-size:10px;line-height:125%;font-family:Bodonitown;-inkscape-font-specification:'Bodonitown Medium';font-variation-settings:normal;text-align:start;letter-spacing:0px;word-spacing:0px;writing-mode:lr-tb;text-anchor:start;vector-effect:none;fill:#666666;fill-opacity:1;stroke:none;stroke-width:0.958977;stroke-linecap:butt;stroke-linejoin:miter;stroke-miterlimit:4;stroke-dasharray:none;stroke-dashoffset:0;stroke-opacity:1;-inkscape-stroke:none;stop-color:#000000" transform="translate(-22.070531,-43.896353)"><flowRegion id="flowRegion3139" style="font-variation-settings:normal;vector-effect:none;fill:#666666;fill-opacity:1;stroke:none;stroke-width:0.958977;stroke-linecap:butt;stroke-linejoin:miter;stroke-miterlimit:4;stroke-dasharray:none;stroke-dashoffset:0;stroke-opacity:1;-inkscape-stroke:none;stop-color:#000000;stop-opacity:1"><rect id="rect3141" width="214.21584" height="239.11993" x="64.89389" y="900.00262" style="font-style:normal;font-variant:normal;font-weight:500;font-stretch:normal;font-size:10px;font-family:Bodonitown;-inkscape-font-specification:'Bodonitown Medium';font-variation-settings:normal;vector-effect:none;fill:#666666;fill-opacity:1;stroke:none;stroke-width:0.958977;stroke-linecap:butt;stroke-linejoin:miter;stroke-miterlimit:4;stroke-dasharray:none;stroke-dashoffset:0;stroke-opacity:1;-inkscape-stroke:none;stop-color:#000000;stop-opacity:1" /></flowRegion><flowPara id="flowPara3143">Wyrażam zgodę na przetwarzanie moich danych osobowych dla potrzeb niezbędnych do realizacji procesu rekrutacji (zgodnie z ustawą z dnia 10 maja 2018 roku o ochronie danych osobowych (Dz. Ustaw z 2018, poz. 1000) oraz zgodnie z Rozporządzeniem Parlamentu Europejskiego i Rady (UE) 2016/679 z dnia 27 kwietnia 2016 r. w sprawie ochrony osób fizycznych w związku z przetwarzaniem danych osobowych i w sprawie swobodnego przepływu takich danych oraz uchylenia dyrektywy 95/46/WE (RODO).</flowPara></flowRoot>
</svg>
