<?xml version="1.0" encoding="UTF-8" standalone="no"?>
<svg xmlns:dc="http://purl.org/dc/elements/1.1/" xmlns:cc="http://creativecommons.org/ns#" xmlns:rdf="http://www.w3.org/1999/02/22-rdf-syntax-ns#" xmlns:svg="http://www.w3.org/2000/svg" xmlns="http://www.w3.org/2000/svg" xmlns:sodipodi="http://sodipodi.sourceforge.net/DTD/sodipodi-0.dtd" xmlns:inkscape="http://www.inkscape.org/namespaces/inkscape" version="1.1" id="svg2" height="1052.3622047" width="744.09448819" sodipodi:docname="jakub-jankiewicz-cv-page2.svg" inkscape:version="0.92.4 (unknown)">
  <sodipodi:namedview pagecolor="#ffffff" bordercolor="#666666" borderopacity="1" objecttolerance="10" gridtolerance="10" guidetolerance="10" inkscape:pageopacity="0" inkscape:pageshadow="2" inkscape:window-width="1635" inkscape:window-height="905" id="namedview194" showgrid="false" inkscape:zoom="0.6342957" inkscape:cx="865.70802" inkscape:cy="490.30171" inkscape:window-x="0" inkscape:window-y="49" inkscape:window-maximized="0" inkscape:current-layer="svg2" />
  <defs id="defs4" />
  <metadata id="metadata7">
    <rdf:RDF>
      <cc:Work rdf:about="">
        <dc:format>image/svg+xml</dc:format>
        <dc:type rdf:resource="http://purl.org/dc/dcmitype/StillImage" />
        <dc:title />
      </cc:Work>
    </rdf:RDF>
  </metadata>
  <rect style="color:#000000;display:inline;overflow:visible;visibility:visible;fill:#ffffff;fill-opacity:1;fill-rule:nonzero;stroke:none;stroke-width:5.8210001;marker:none;enable-background:accumulate" id="rect4186" width="744.09448" height="1052.3622" x="0" y="1.1147927" />
  <path style="color:#000000;font-style:normal;font-variant:normal;font-weight:normal;font-stretch:normal;font-size:medium;line-height:normal;font-family:sans-serif;font-variant-ligatures:normal;font-variant-position:normal;font-variant-caps:normal;font-variant-numeric:normal;font-variant-alternates:normal;font-feature-settings:normal;text-indent:0;text-align:start;text-decoration:none;text-decoration-line:none;text-decoration-style:solid;text-decoration-color:#000000;letter-spacing:normal;word-spacing:normal;text-transform:none;writing-mode:lr-tb;direction:ltr;text-orientation:mixed;dominant-baseline:auto;baseline-shift:baseline;text-anchor:start;white-space:normal;shape-padding:0;clip-rule:nonzero;display:inline;overflow:visible;visibility:visible;opacity:1;isolation:auto;mix-blend-mode:normal;color-interpolation:sRGB;color-interpolation-filters:linearRGB;solid-color:#000000;solid-opacity:1;vector-effect:none;fill:#000000;fill-opacity:1;fill-rule:nonzero;stroke:none;stroke-width:5.8210001;stroke-linecap:round;stroke-linejoin:miter;stroke-miterlimit:4;stroke-dasharray:5.821, 11.642;stroke-dashoffset:0;stroke-opacity:1;color-rendering:auto;image-rendering:auto;shape-rendering:auto;text-rendering:auto;enable-background:accumulate" d="m 290.78906,6.1117569 -0.79687,2 v 5.8222661 l 0.87109,2.076171 2.0918,0.832032 2.06054,-0.908203 0.79688,-2 V 8.1117569 l -0.87109,-2.0761719 -2.0918,-0.8339843 z m 0,17.4628911 -0.79687,2 v 5.822265 l 0.87109,2.076172 2.0918,0.833985 2.06054,-0.910157 0.79688,-2 v -5.822265 l -0.87109,-2.076172 -2.0918,-0.833985 z m 0,17.46289 -0.79687,2 v 5.822266 l 0.87109,2.076172 2.0918,0.833984 2.06054,-0.910156 0.79688,-2 v -5.822266 l -0.87109,-2.076172 -2.0918,-0.833984 z m 0,17.462891 -0.79687,2 v 5.822265 l 0.87109,2.076172 2.0918,0.833985 2.06054,-0.910157 0.79688,-2 v -5.822265 l -0.87109,-2.076172 -2.0918,-0.833984 z m 0,17.462891 -0.79687,2 v 5.822265 l 0.87109,2.076172 2.0918,0.833984 2.06054,-0.910156 0.79688,-2 V 77.96332 l -0.87109,-2.076172 -2.0918,-0.833985 z m 0,17.46289 -0.79687,2 v 5.82226 l 0.87109,2.07618 2.0918,0.83398 2.06054,-0.91016 0.79688,-2 v -5.82226 l -0.87109,-2.076172 -2.0918,-0.832031 z m 0,17.46289 -0.79687,2.00195 v 5.82031 l 0.87109,2.07618 2.0918,0.83398 2.06054,-0.91016 0.79688,-2 v -5.82031 l -0.87109,-2.07812 -2.0918,-0.83203 z m 0,17.46289 -0.79687,2.00195 v 5.82032 l 0.87109,2.07617 2.0918,0.83398 2.06054,-0.91015 0.79688,-2 v -5.82032 l -0.87109,-2.07812 -2.0918,-0.83203 z m 0,17.46289 -0.79687,2.00195 v 5.82032 l 0.87109,2.07617 2.0918,0.83398 2.06054,-0.91015 0.79688,-2 v -5.82032 l -0.87109,-2.07812 -2.0918,-0.83203 z m 0,17.46289 -0.79687,2.00195 v 5.82032 l 0.87109,2.07617 2.0918,0.83398 2.06054,-0.91015 0.79688,-2 v -5.82032 l -0.87109,-2.07812 -2.0918,-0.83203 z m 0,17.46289 -0.79687,2.00195 v 5.82032 l 0.87109,2.07617 2.0918,0.83398 2.06054,-0.91015 0.79688,-2 v -5.82032 l -0.87109,-2.07812 -2.0918,-0.83203 z m 0,17.46289 -0.79687,2.00195 v 5.82032 l 0.87109,2.07617 2.0918,0.83398 2.06054,-0.91015 0.79688,-2 v -5.82032 l -0.87109,-2.07812 -2.0918,-0.83203 z m 0,17.46485 -0.79687,2 v 5.82031 l 0.87109,2.07812 2.0918,0.83203 2.06054,-0.9082 0.79688,-2.00195 v -5.82031 l -0.87109,-2.07618 -2.0918,-0.83398 z m 0,17.46289 -0.79687,2 v 5.82031 l 0.87109,2.07812 2.0918,0.83204 2.06054,-0.90821 0.79688,-2.00195 v -5.82031 l -0.87109,-2.07618 -2.0918,-0.83398 z m 0,17.46289 -0.79687,2 v 5.82031 l 0.87109,2.07812 2.0918,0.83204 2.06054,-0.90821 0.79688,-2.00195 v -5.82031 l -0.87109,-2.07618 -2.0918,-0.83398 z m 0,17.46289 -0.79687,2 v 5.82031 l 0.87109,2.07812 2.0918,0.83204 2.06054,-0.90821 0.79688,-2.00195 v -5.82031 l -0.87109,-2.07617 -2.0918,-0.83399 z m 0,17.46289 -0.79687,2 v 5.82031 l 0.87109,2.07813 2.0918,0.83203 2.06054,-0.90821 0.79688,-2.00195 v -5.82031 l -0.87109,-2.07617 -2.0918,-0.83399 z m 0,17.46289 -0.79687,2 v 5.82031 l 0.87109,2.07813 2.0918,0.83203 2.06054,-0.90821 0.79688,-2.00195 v -5.82031 l -0.87109,-2.07617 -2.0918,-0.83399 z m 0,17.46289 -0.79687,2 v 5.82226 l 0.87109,2.07618 2.0918,0.83203 2.06054,-0.90821 0.79688,-2 v -5.82226 l -0.87109,-2.07617 -2.0918,-0.83399 z m 0,17.46289 -0.79687,2 v 5.82227 l 0.87109,2.07617 2.0918,0.83398 2.06054,-0.91015 0.79688,-2 v -5.82227 l -0.87109,-2.07617 -2.0918,-0.83399 z m 0,17.46289 -0.79687,2 v 5.82227 l 0.87109,2.07617 2.0918,0.83398 2.06054,-0.91015 0.79688,-2 v -5.82227 l -0.87109,-2.07617 -2.0918,-0.83399 z m 0,17.46289 -0.79687,2 v 5.82227 l 0.87109,2.07617 2.0918,0.83398 2.06054,-0.91015 0.79688,-2 v -5.82227 l -0.87109,-2.07617 -2.0918,-0.83398 z m 0,17.46289 -0.79687,2 v 5.82227 l 0.87109,2.07617 2.0918,0.83398 2.06054,-0.91015 0.79688,-2 v -5.82227 l -0.87109,-2.07617 -2.0918,-0.83398 z m 0,17.46289 -0.79687,2 v 5.82227 l 0.87109,2.07617 2.0918,0.83398 2.06054,-0.91015 0.79688,-2 v -5.82227 l -0.87109,-2.07617 -2.0918,-0.83203 z m 0,17.46289 -0.79687,2.00196 v 5.82031 l 0.87109,2.07617 2.0918,0.83398 2.06054,-0.91015 0.79688,-2 v -5.82031 l -0.87109,-2.07813 -2.0918,-0.83203 z m 0,17.46289 -0.79687,2.00196 v 5.82031 l 0.87109,2.07617 2.0918,0.83399 2.06054,-0.91016 0.79688,-2 v -5.82031 l -0.87109,-2.07813 -2.0918,-0.83203 z m 0,17.46289 -0.79687,2.00196 v 5.82031 l 0.87109,2.07617 2.0918,0.83399 2.06054,-0.91016 0.79688,-2 v -5.82031 l -0.87109,-2.07813 -2.0918,-0.83203 z m 0,17.4629 -0.79687,2.00195 v 5.82031 l 0.87109,2.07617 2.0918,0.83399 2.06054,-0.91016 0.79688,-2 v -5.82031 l -0.87109,-2.07813 -2.0918,-0.83203 z m 0,17.46289 -0.79687,2.00195 v 5.82031 l 0.87109,2.07617 2.0918,0.83399 2.06054,-0.91016 0.79688,-2 v -5.82031 l -0.87109,-2.07813 -2.0918,-0.83203 z m 0,17.46289 -0.79687,2.00195 v 5.82031 l 0.87109,2.07617 2.0918,0.83399 2.06054,-0.91016 0.79688,-2 v -5.82031 l -0.87109,-2.07813 -2.0918,-0.83203 z m 0,17.46484 -0.79687,2 v 5.82031 l 0.87109,2.07813 2.0918,0.83203 2.06054,-0.9082 0.79688,-2.00196 v -5.82031 l -0.87109,-2.07617 -2.0918,-0.83399 z m 0,17.46289 -0.79687,2 v 5.82031 l 0.87109,2.07813 2.0918,0.83203 2.06054,-0.9082 0.79688,-2.00196 v -5.82031 l -0.87109,-2.07617 -2.0918,-0.83399 z m 0,17.46289 -0.79687,2 v 5.82031 l 0.87109,2.07813 2.0918,0.83203 2.06054,-0.9082 0.79688,-2.00196 v -5.82031 l -0.87109,-2.07617 -2.0918,-0.83399 z m 0,17.46289 -0.79687,2 v 5.82031 l 0.87109,2.07813 2.0918,0.83203 2.06054,-0.9082 0.79688,-2.00196 v -5.82031 l -0.87109,-2.07617 -2.0918,-0.83398 z m 0,17.46289 -0.79687,2 v 5.82032 l 0.87109,2.07812 2.0918,0.83203 2.06054,-0.9082 0.79688,-2.00195 v -5.82032 l -0.87109,-2.07617 -2.0918,-0.83398 z m 0,17.46289 -0.79687,2 v 5.82032 l 0.87109,2.07812 2.0918,0.83203 2.06054,-0.9082 0.79688,-2.00195 v -5.82032 l -0.87109,-2.07617 -2.0918,-0.83398 z m 0,17.46289 -0.79687,2 v 5.82227 l 0.87109,2.07617 2.0918,0.83203 2.06054,-0.9082 0.79688,-2 v -5.82227 l -0.87109,-2.07617 -2.0918,-0.83398 z m 0,17.46289 -0.79687,2 v 5.82227 l 0.87109,2.07617 2.0918,0.83399 2.06054,-0.91016 0.79688,-2 v -5.82227 l -0.87109,-2.07617 -2.0918,-0.83398 z m 0,17.46289 -0.79687,2 v 5.82227 l 0.87109,2.07617 2.0918,0.83399 2.06054,-0.91016 0.79688,-2 v -5.82227 l -0.87109,-2.07617 -2.0918,-0.83398 z m 0,17.4629 -0.79687,2 v 5.82226 l 0.87109,2.07617 2.0918,0.83399 2.06054,-0.91016 0.79688,-2 v -5.82226 l -0.87109,-2.07618 -2.0918,-0.83398 z m 0,17.46289 -0.79687,2 v 5.82226 l 0.87109,2.07617 2.0918,0.83399 2.06054,-0.91016 0.79688,-2 v -5.82226 l -0.87109,-2.07618 -2.0918,-0.83398 z m 0,17.46289 -0.79687,2 v 5.82226 l 0.87109,2.07617 2.0918,0.83399 2.06054,-0.91016 0.79688,-2 v -5.82226 l -0.87109,-2.07618 -2.0918,-0.83203 z m 0,17.46289 -0.79687,2.00195 v 5.82031 l 0.87109,2.07617 2.0918,0.83399 2.06054,-0.91016 0.79688,-2 v -5.82031 l -0.87109,-2.07812 -2.0918,-0.83204 z m 0,17.46289 -0.79687,2.00195 v 5.82031 l 0.87109,2.07618 2.0918,0.83398 2.06054,-0.91016 0.79688,-2 v -5.82031 l -0.87109,-2.07812 -2.0918,-0.83203 z m 0,17.46289 -0.79687,2.00195 v 5.82031 l 0.87109,2.07618 2.0918,0.83398 2.06054,-0.91016 0.79688,-2 v -5.82031 l -0.87109,-2.07812 -2.0918,-0.83203 z m 0,17.46289 -0.79687,2.00195 v 5.82031 l 0.87109,2.07618 2.0918,0.83398 2.06054,-0.91016 0.79688,-2 v -5.82031 l -0.87109,-2.07812 -2.0918,-0.83203 z m 0,17.46289 -0.79687,2.00195 v 5.82032 l 0.87109,2.07617 2.0918,0.83398 2.06054,-0.91015 0.79688,-2 v -5.82032 l -0.87109,-2.07812 -2.0918,-0.83203 z m 0,17.46289 -0.79687,2.00195 v 5.82032 l 0.87109,2.07617 2.0918,0.83398 2.06054,-0.91015 0.79688,-2 v -5.82032 l -0.87109,-2.07812 -2.0918,-0.83203 z m 0,17.46484 -0.79687,2 v 5.82032 l 0.87109,2.07812 2.0918,0.83203 2.06054,-0.9082 0.79688,-2.00195 v -5.82032 l -0.87109,-2.07617 -2.0918,-0.83398 z m 0,17.4629 -0.79687,2 v 5.82031 l 0.87109,2.07812 2.0918,0.83203 2.06054,-0.9082 0.79688,-2.00195 v -5.82031 l -0.87109,-2.07618 -2.0918,-0.83398 z m 0,17.46289 -0.79687,2 v 5.82031 l 0.87109,2.07812 2.0918,0.83203 2.06054,-0.9082 0.79688,-2.00195 v -5.82031 l -0.87109,-2.07618 -2.0918,-0.83398 z m 0,17.46289 -0.79687,2 v 5.82031 l 0.87109,2.07812 2.0918,0.83203 2.06054,-0.9082 0.79688,-2.00195 v -5.82031 l -0.87109,-2.07618 -2.0918,-0.83398 z m 0,17.46289 -0.79687,2 v 5.82031 l 0.87109,2.07812 2.0918,0.83204 2.06054,-0.90821 0.79688,-2.00195 v -5.82031 l -0.87109,-2.07617 -2.0918,-0.83399 z m 0,17.46289 -0.79687,2 v 5.82031 l 0.87109,2.07813 2.0918,0.83203 2.06054,-0.90821 0.79688,-2.00195 v -5.82031 l -0.87109,-2.07617 -2.0918,-0.83399 z m 0,17.46289 -0.79687,2 v 5.82226 l 0.87109,2.07618 2.0918,0.83203 2.06054,-0.90821 0.79688,-2 v -5.82226 l -0.87109,-2.07617 -2.0918,-0.83399 z m 0,17.46289 -0.79687,2 v 5.82226 l 0.87109,2.07618 2.0918,0.83398 2.06054,-0.91016 0.79688,-2 v -5.82226 l -0.87109,-2.07617 -2.0918,-0.83399 z m 0,17.46289 -0.79687,2 v 5.82227 l 0.87109,2.07617 2.0918,0.83398 2.06054,-0.91015 0.79688,-2 v -5.82227 l -0.87109,-2.07617 -2.0918,-0.83399 z m 0,17.46291 -0.79687,2 v 5.8223 l 0.87109,2.0761 2.0918,0.834 2.06054,-0.9101 0.79688,-2 v -5.8223 l -0.87109,-2.0762 -2.0918,-0.834 z m 0,17.4629 -0.79687,2 v 5.8223 l 0.87109,2.0761 2.0918,0.834 2.06054,-0.9101 0.79688,-2 v -5.8223 l -0.87109,-2.0762 -2.0918,-0.834 z m 0,17.4629 -0.79687,2 v 5.8222 l 0.87109,2.0762 2.0918,0.834 2.06054,-0.9102 0.79688,-2 v -5.8222 l -0.87109,-2.0762 -2.0918,-0.832 z" clip-path="none" id="path3048" inkscape:connector-curvature="0" />
  <g id="g3112" transform="matrix(0.93504191,0,0,0.93504191,-120.90106,-83.61084)" />
  <g id="g930" transform="translate(0,123.5903)">
    <text xml:space="preserve" style="font-style:normal;font-variant:normal;font-weight:normal;font-stretch:normal;font-size:30px;font-family:'Bebas Neue';-inkscape-font-specification:'Bebas Neue';fill:#666666;fill-opacity:1;stroke:none" x="319.88443" y="708.21259" id="text2884"><tspan id="tspan2886" x="319.88443" y="708.21259">ZAINTERESOWANIA/Hobby:</tspan></text>
    <flowRoot transform="matrix(0.82105277,0,0,0.82105277,134.28761,483.4865)" style="font-style:normal;font-variant:normal;font-weight:500;font-stretch:normal;font-size:12.5271616px;line-height:1.5;font-family:Bodonitown;-inkscape-font-specification:'Bodonitown Medium';fill:#000000;fill-opacity:1;stroke:none" id="flowRoot3831" xml:space="preserve"><flowRegion style="line-height:1.5" id="flowRegion3833"><rect y="295.07626" x="392.23526" height="85.437393" width="291.90244" id="rect3835" style="font-style:normal;font-variant:normal;font-weight:500;font-stretch:normal;font-size:12.5271616px;line-height:1.5;font-family:Bodonitown;-inkscape-font-specification:'Bodonitown Medium'" /></flowRegion><flowPara id="flowPara3256" style="font-style:normal;font-variant:normal;font-weight:500;font-stretch:normal;font-size:12.5271616px;line-height:1.5;font-family:Bodonitown;-inkscape-font-specification:'Bodonitown Medium'">Programowanie, Grafika komputerowa, Matematyka, Fotografia, RPG, Komiksy, Manga, Anime, Fantastyka, Cyberpunk, Edycja Wikipedii, Odpowiadanie na pytania na StackOverflow (głównie JavaScript)</flowPara></flowRoot>  </g>
  <g id="g3416" transform="translate(0,-329.94819)">
    <text id="text2880" y="882.84314" x="319.88446" style="font-style:normal;font-variant:normal;font-weight:normal;font-stretch:normal;font-size:30px;font-family:'Bebas Neue';-inkscape-font-specification:'Bebas Neue';fill:#666666;fill-opacity:1;stroke:none" xml:space="preserve"><tspan y="882.84314" x="319.88446" id="tspan2882">Projekty Open Source:</tspan></text>
    <g transform="matrix(0.93504191,0,0,0.93504191,32.41659,55.044617)" id="g3003">
      <flowRoot transform="matrix(0.87809195,0,0,0.87809195,109.03609,644.8398)" style="font-style:normal;font-variant:normal;font-weight:500;font-stretch:normal;font-size:12.5271616px;line-height:1.5;font-family:Bodonitown;-inkscape-font-specification:'Bodonitown Medium';fill:#000000;fill-opacity:1;stroke:none" id="flowRoot3823" xml:space="preserve"><flowRegion id="flowRegion3825" style="line-height:1.5"><rect y="295.07626" x="392.23526" height="147.7802" width="329.04099" id="rect3827" style="font-style:normal;font-variant:normal;font-weight:500;font-stretch:normal;font-size:12.5271616px;line-height:1.5;font-family:Bodonitown;-inkscape-font-specification:'Bodonitown Medium'" /></flowRegion><flowPara style="font-style:normal;font-variant:normal;font-weight:500;font-stretch:normal;font-size:12.5271616px;line-height:1.5;font-family:Bodonitown;-inkscape-font-specification:'Bodonitown Medium'" id="flowPara1095">jQuery Terminal, LIPS (interpreter języka lisp w JavaScript), jQuery Filebrowser, AngularJS Piechart, GIT Web Terminal,</flowPara><flowPara style="font-style:normal;font-variant:normal;font-weight:500;font-stretch:normal;font-size:12.5271616px;line-height:1.5;font-family:Bodonitown;-inkscape-font-specification:'Bodonitown Medium'" id="flowPara1101">Sysend.js (biblioteka do wysyłania wiadomości do innych obien i zakładek), Yet Another Php Proxy, Leash (aplikacja dająca dostęp do powłoki systemowej - shell), favloader (biblioteka do animacji favikonki), Clarity (ikony svg dla GTK+ pod Linuxa), ggtips (pakiet R, współautor części front-end'owej)</flowPara></flowRoot>    </g>
  </g>
  <g id="g3223" transform="translate(0,-650.97947)" />
  <g transform="translate(0,-141.41154)" id="g919">
    <text xml:space="preserve" style="font-style:normal;font-variant:normal;font-weight:normal;font-stretch:normal;font-size:30px;font-family:'Bebas Neue';-inkscape-font-specification:'Bebas Neue';fill:#666666;fill-opacity:1;stroke:none" x="319.88446" y="882.84314" id="text907"><tspan id="tspan905" x="319.88446" y="882.84314">ZNAJOMOŚĆ JĘZYKÓW:</tspan></text>
    <g id="g917" transform="matrix(0.93504191,0,0,0.93504191,32.41659,55.044617)">
      <flowRoot xml:space="preserve" id="flowRoot915" style="font-style:normal;font-variant:normal;font-weight:500;font-stretch:normal;font-size:12.5271616px;font-family:Bodonitown;-inkscape-font-specification:'Bodonitown Medium';fill:#000000;fill-opacity:1;stroke:none" transform="matrix(0.87809195,0,0,0.87809195,109.03609,644.8398)"><flowRegion id="flowRegion911"><rect style="font-style:normal;font-variant:normal;font-weight:500;font-stretch:normal;font-size:12.5271616px;font-family:Bodonitown;-inkscape-font-specification:'Bodonitown Medium'" id="rect909" width="290.63779" height="85.437393" x="392.23526" y="295.07626" /></flowRegion><flowPara id="flowPara913" style="font-style:normal;font-variant:normal;font-weight:500;font-stretch:normal;font-size:12.5271616px;font-family:Bodonitown;-inkscape-font-specification:'Bodonitown Medium'">Angielski średnio zaawansowany</flowPara></flowRoot>    </g>
  </g>
  <flowRoot xml:space="preserve" id="flowRoot3137-3" style="font-style:normal;font-variant:normal;font-weight:500;font-stretch:normal;font-size:9.73259163px;line-height:125%;font-family:Bodonitown;-inkscape-font-specification:'Bodonitown Medium';text-align:start;letter-spacing:0px;word-spacing:0px;writing-mode:lr-tb;text-anchor:start;fill:#666666;fill-opacity:1;stroke:none" transform="matrix(0.9589772,0,0,0.9589772,243.92614,164.73131)"><flowRegion id="flowRegion3139-6" style="font-size:9.73259163px;fill:#666666"><rect id="rect3141-7" width="490.78653" height="35.30426" x="64.89389" y="900.00262" style="font-style:normal;font-variant:normal;font-weight:500;font-stretch:normal;font-size:9.73259163px;font-family:Bodonitown;-inkscape-font-specification:'Bodonitown Medium';fill:#666666" /></flowRegion><flowPara id="flowPara915">Created using Inkscape; (C) 2011-2019 Jakub T. Jankiewicz; CC-BY-SA 3.0; source: https://github.com/jcubic/cv</flowPara></flowRoot>  <g id="g1065" transform="translate(0,-2.7075591e-5)">
    <text id="text2888" y="70.482117" x="319.43564" style="font-style:normal;font-variant:normal;font-weight:normal;font-stretch:normal;font-size:29.99999809px;font-family:'Bebas Neue';-inkscape-font-specification:'Bebas Neue';fill:#666666;fill-opacity:1;stroke:none" xml:space="preserve"><tspan y="70.482117" x="319.43564" id="tspan2890">Kursy:</tspan></text>
    <g transform="translate(0,-1.4266532e-4)" id="g1036">
      <flowRoot xml:space="preserve" id="flowRoot3783" style="font-style:normal;font-variant:normal;font-weight:500;font-stretch:normal;font-size:12.5271616px;line-height:1.60000002;font-family:Bodonitown;-inkscape-font-specification:'Bodonitown Medium';fill:#000000;fill-opacity:1;stroke:none" transform="matrix(0.82105277,0,0,0.82105277,134.36991,-149.54777)"><flowRegion style="line-height:1.60000002" id="flowRegion3785"><rect id="rect3787" width="290.63779" height="105.45516" x="392.23526" y="295.07626" style="font-style:normal;font-variant:normal;font-weight:500;font-stretch:normal;font-size:12.5271616px;line-height:1.60000002;font-family:Bodonitown;-inkscape-font-specification:'Bodonitown Medium'" /></flowRegion><flowPara style="font-style:normal;font-variant:normal;font-weight:500;font-stretch:normal;font-size:12.5271616px;line-height:1.60000002;font-family:Bodonitown;-inkscape-font-specification:'Bodonitown Medium'" id="flowPara3528">Web Hacking: Become a Professional Web Pentester</flowPara><flowPara id="flowPara1156" style="font-style:normal;font-variant:normal;font-weight:500;font-stretch:normal;font-size:12.5271616px;line-height:1.60000002;font-family:Bodonitown;-inkscape-font-specification:'Bodonitown Medium'">Hack Yourself First: How to go on the Cyber-Offense</flowPara><flowPara id="flowPara1158" style="font-style:normal;font-variant:normal;font-weight:500;font-stretch:normal;font-size:12.5271616px;line-height:1.60000002;font-family:Bodonitown;-inkscape-font-specification:'Bodonitown Medium'">Ataki na Strony Internetowe: Praktyczny Pentesting</flowPara><flowPara id="flowPara1160" style="font-style:normal;font-variant:normal;font-weight:500;font-stretch:normal;font-size:12.5271616px;line-height:1.60000002;font-family:Bodonitown;-inkscape-font-specification:'Bodonitown Medium'">Hacking Web Applications and Penetration Testing: Fast Start</flowPara></flowRoot>      <text xml:space="preserve" style="font-style:normal;font-variant:normal;font-weight:normal;font-stretch:normal;font-size:22.44100571px;font-family:'Bebas Neue';-inkscape-font-specification:'Bebas Neue';text-align:end;text-anchor:end;fill:#0b7af9;fill-opacity:1;stroke:none;stroke-width:0.9350419" x="439.01544" y="110.8774" id="text3779"><tspan x="439.01544" y="110.8774" style="font-style:normal;font-variant:normal;font-weight:normal;font-stretch:normal;font-size:22.44100571px;font-family:'Bebas Neue';-inkscape-font-specification:'Bebas Neue';text-align:end;text-anchor:end;fill:#0b7af9;fill-opacity:1;stroke-width:0.9350419" id="tspan3957">Bezpieczeństwo</tspan></text>
      <text xml:space="preserve" style="font-style:normal;font-variant:normal;font-weight:normal;font-stretch:normal;font-size:22.44100571px;font-family:'Bebas Neue';-inkscape-font-specification:'Bebas Neue';text-align:end;text-anchor:end;fill:#0b7af9;fill-opacity:1;stroke:none;stroke-width:0.9350419" x="545.92792" y="136.31934" id="text4016"><tspan style="text-align:end;text-anchor:end;stroke-width:0.9350419" id="tspan4018" x="438.63431" y="136.31934">Aplikacji www</tspan></text>
      <flowRoot transform="matrix(0.82105277,0,0,0.82105277,134.36991,-131.4174)" style="font-style:normal;font-variant:normal;font-weight:500;font-stretch:normal;font-size:12.5271616px;font-family:Bodonitown;-inkscape-font-specification:'Bodonitown Medium';fill:#000000;fill-opacity:1;stroke:none" id="flowRoot901" xml:space="preserve"><flowRegion id="flowRegion897"><rect style="font-style:normal;font-variant:normal;font-weight:500;font-stretch:normal;font-size:12.5271616px;font-family:Bodonitown;-inkscape-font-specification:'Bodonitown Medium'" y="295.07626" x="392.23526" height="72.868973" width="290.63779" id="rect895" /></flowRegion><flowPara id="flowPara899" style="font-style:normal;font-variant:normal;font-weight:500;font-stretch:normal;font-size:12.5271616px;font-family:Bodonitown;-inkscape-font-specification:'Bodonitown Medium'" /></flowRoot>      <flowRoot xml:space="preserve" id="flowRoot902" style="font-style:normal;font-variant:normal;font-weight:500;font-stretch:normal;font-size:12.5271616px;font-family:Bodonitown;-inkscape-font-specification:'Bodonitown Medium';fill:#000000;fill-opacity:1;stroke:none" transform="matrix(0.82105277,0,0,0.82105277,134.36991,-113.28703)"><flowRegion id="flowRegion898"><rect id="rect896" width="290.63779" height="72.868973" x="392.23526" y="295.07626" style="font-style:normal;font-variant:normal;font-weight:500;font-stretch:normal;font-size:12.5271616px;font-family:Bodonitown;-inkscape-font-specification:'Bodonitown Medium'" /></flowRegion><flowPara style="font-style:normal;font-variant:normal;font-weight:500;font-stretch:normal;font-size:12.5271616px;font-family:Bodonitown;-inkscape-font-specification:'Bodonitown Medium'" id="flowPara900" /></flowRoot>      <flowRoot transform="matrix(0.82105277,0,0,0.82105277,134.36991,-95.156679)" style="font-style:normal;font-variant:normal;font-weight:500;font-stretch:normal;font-size:12.5271616px;font-family:Bodonitown;-inkscape-font-specification:'Bodonitown Medium';fill:#000000;fill-opacity:1;stroke:none" id="flowRoot910" xml:space="preserve"><flowRegion id="flowRegion906"><rect style="font-style:normal;font-variant:normal;font-weight:500;font-stretch:normal;font-size:12.5271616px;font-family:Bodonitown;-inkscape-font-specification:'Bodonitown Medium'" y="295.07626" x="392.23526" height="39.746246" width="290.63779" id="rect904" /></flowRegion><flowPara id="flowPara908" style="font-style:normal;font-variant:normal;font-weight:500;font-stretch:normal;font-size:12.5271616px;font-family:Bodonitown;-inkscape-font-specification:'Bodonitown Medium'" /></flowRoot>    </g>
    <g transform="translate(0,89.114132)" id="g1014">
      <text id="text1144" y="204.97192" x="439.01544" style="font-style:normal;font-variant:normal;font-weight:normal;font-stretch:normal;font-size:22.44100571px;font-family:'Bebas Neue';-inkscape-font-specification:'Bebas Neue';text-align:end;text-anchor:end;fill:#0b7af9;fill-opacity:1;stroke:none;stroke-width:0.9350419" xml:space="preserve"><tspan id="tspan1142" style="font-style:normal;font-variant:normal;font-weight:normal;font-stretch:normal;font-size:22.44100571px;font-family:'Bebas Neue';-inkscape-font-specification:'Bebas Neue';text-align:end;text-anchor:end;fill:#0b7af9;fill-opacity:1;stroke-width:0.9350419" y="204.97192" x="439.01544">Frameworki</tspan></text>
      <text id="text1148" y="230.41386" x="516.62451" style="font-style:normal;font-variant:normal;font-weight:normal;font-stretch:normal;font-size:22.44100571px;font-family:'Bebas Neue';-inkscape-font-specification:'Bebas Neue';text-align:end;text-anchor:end;fill:#0b7af9;fill-opacity:1;stroke:none;stroke-width:0.9350419" xml:space="preserve"><tspan style="text-align:end;text-anchor:end;stroke-width:0.9350419" y="230.41386" x="438.34048" id="tspan1146">JavaScript</tspan></text>
      <flowRoot transform="matrix(0.82105277,0,0,0.82105277,134.36991,-55.453149)" style="font-style:normal;font-variant:normal;font-weight:500;font-stretch:normal;font-size:12.5271616px;line-height:1.60000002;font-family:Bodonitown;-inkscape-font-specification:'Bodonitown Medium';fill:#000000;fill-opacity:1;stroke:none" id="flowRoot1140" xml:space="preserve"><flowRegion style="line-height:1.60000002" id="flowRegion1136"><rect style="font-style:normal;font-variant:normal;font-weight:500;font-stretch:normal;font-size:12.5271616px;line-height:1.60000002;font-family:Bodonitown;-inkscape-font-specification:'Bodonitown Medium'" y="295.07626" x="392.23526" height="119.03274" width="290.63779" id="rect1134" /></flowRegion><flowPara id="flowPara1138" style="font-style:normal;font-variant:normal;font-weight:500;font-stretch:normal;font-size:12.5271616px;line-height:1.60000002;font-family:Bodonitown;-inkscape-font-specification:'Bodonitown Medium'">The Beginner’s Guide to ReactJS</flowPara><flowPara id="flowPara1150" style="font-style:normal;font-variant:normal;font-weight:500;font-stretch:normal;font-size:12.5271616px;line-height:1.60000002;font-family:Bodonitown;-inkscape-font-specification:'Bodonitown Medium'">Advanced React Component Patterns</flowPara><flowPara id="flowPara1152" style="font-style:normal;font-variant:normal;font-weight:500;font-stretch:normal;font-size:12.5271616px;line-height:1.60000002;font-family:Bodonitown;-inkscape-font-specification:'Bodonitown Medium'">Master Electron: Desktop Apps using HTML, JavaScript &amp; CSS</flowPara><flowPara id="flowPara965" style="font-style:normal;font-variant:normal;font-weight:500;font-stretch:normal;font-size:12.5271616px;line-height:1.60000002;font-family:Bodonitown;-inkscape-font-specification:'Bodonitown Medium'">Understanding TypeScript</flowPara><flowPara id="flowPara1154" style="font-style:normal;font-variant:normal;font-weight:500;font-stretch:normal;font-size:12.5271616px;line-height:1.60000002;font-family:Bodonitown;-inkscape-font-specification:'Bodonitown Medium'">Angular 7 (formerly Angular 2) - The Complete Guide</flowPara></flowRoot>      <flowRoot xml:space="preserve" id="flowRoot980" style="font-style:normal;font-variant:normal;font-weight:500;font-stretch:normal;font-size:12.5271616px;font-family:Bodonitown;-inkscape-font-specification:'Bodonitown Medium';fill:#000000;fill-opacity:1;stroke:none" transform="matrix(0.82105277,0,0,0.82105277,134.36991,-40.081769)"><flowRegion id="flowRegion976"><rect id="rect974" width="290.63779" height="72.868973" x="392.23526" y="295.07626" style="font-style:normal;font-variant:normal;font-weight:500;font-stretch:normal;font-size:12.5271616px;font-family:Bodonitown;-inkscape-font-specification:'Bodonitown Medium'" /></flowRegion><flowPara style="font-style:normal;font-variant:normal;font-weight:500;font-stretch:normal;font-size:12.5271616px;font-family:Bodonitown;-inkscape-font-specification:'Bodonitown Medium'" id="flowPara978" /></flowRoot>      <flowRoot transform="matrix(0.82105277,0,0,0.82105277,134.36991,-21.951424)" style="font-style:normal;font-variant:normal;font-weight:500;font-stretch:normal;font-size:12.5271616px;font-family:Bodonitown;-inkscape-font-specification:'Bodonitown Medium';fill:#000000;fill-opacity:1;stroke:none" id="flowRoot883" xml:space="preserve"><flowRegion id="flowRegion879"><rect style="font-style:normal;font-variant:normal;font-weight:500;font-stretch:normal;font-size:12.5271616px;font-family:Bodonitown;-inkscape-font-specification:'Bodonitown Medium'" y="295.07626" x="392.23526" height="72.868973" width="290.63779" id="rect877" /></flowRegion><flowPara id="flowPara881" style="font-style:normal;font-variant:normal;font-weight:500;font-stretch:normal;font-size:12.5271616px;font-family:Bodonitown;-inkscape-font-specification:'Bodonitown Medium'" /></flowRoot>    </g>
    <g transform="translate(0,130.57948)" id="g985">
      <text xml:space="preserve" style="font-style:normal;font-variant:normal;font-weight:normal;font-stretch:normal;font-size:22.44100571px;font-family:'Bebas Neue';-inkscape-font-specification:'Bebas Neue';text-align:end;text-anchor:end;fill:#0b7af9;fill-opacity:1;stroke:none;stroke-width:0.9350419" x="439.01544" y="281.89246" id="text918"><tspan x="439.01544" y="281.89246" style="font-style:normal;font-variant:normal;font-weight:normal;font-stretch:normal;font-size:22.44100571px;font-family:'Bebas Neue';-inkscape-font-specification:'Bebas Neue';text-align:end;text-anchor:end;fill:#0b7af9;fill-opacity:1;stroke-width:0.9350419" id="tspan916">CSS</tspan></text>
      <flowRoot xml:space="preserve" id="flowRoot926" style="font-style:normal;font-variant:normal;font-weight:500;font-stretch:normal;font-size:12.5271616px;font-family:Bodonitown;-inkscape-font-specification:'Bodonitown Medium';fill:#000000;fill-opacity:1;stroke:none" transform="matrix(0.82105277,0,0,0.82105277,134.36991,21.467391)"><flowRegion id="flowRegion922"><rect id="rect920" width="290.63779" height="72.868973" x="392.23526" y="295.07626" style="font-style:normal;font-variant:normal;font-weight:500;font-stretch:normal;font-size:12.5271616px;font-family:Bodonitown;-inkscape-font-specification:'Bodonitown Medium'" /></flowRegion><flowPara style="font-style:normal;font-variant:normal;font-weight:500;font-stretch:normal;font-size:12.5271616px;font-family:Bodonitown;-inkscape-font-specification:'Bodonitown Medium'" id="flowPara924">The Complete Flexbox Tutorial: Learn CSS3 Flexbox in 2018</flowPara><flowPara style="font-style:normal;font-variant:normal;font-weight:500;font-stretch:normal;font-size:12.5271616px;font-family:Bodonitown;-inkscape-font-specification:'Bodonitown Medium'" id="flowPara914">Ultimate CSS Grid Course: From Beginner to Advanced</flowPara></flowRoot>    </g>
    <g transform="translate(0,-126.0046)" id="g996">
      <text id="text906" y="336.51721" x="439.01544" style="font-style:normal;font-variant:normal;font-weight:normal;font-stretch:normal;font-size:22.44100571px;font-family:'Bebas Neue';-inkscape-font-specification:'Bebas Neue';text-align:end;text-anchor:end;fill:#0b7af9;fill-opacity:1;stroke:none;stroke-width:0.9350419" xml:space="preserve"><tspan id="tspan904" style="font-style:normal;font-variant:normal;font-weight:normal;font-stretch:normal;font-size:22.44100571px;font-family:'Bebas Neue';-inkscape-font-specification:'Bebas Neue';text-align:end;text-anchor:end;fill:#0b7af9;fill-opacity:1;stroke-width:0.9350419" y="336.51721" x="439.01544">JavaScript</tspan></text>
      <flowRoot transform="matrix(0.82105277,0,0,0.82105277,134.36991,74.19319)" style="font-style:normal;font-variant:normal;font-weight:500;font-stretch:normal;font-size:12.5271616px;line-height:1.60000002;font-family:Bodonitown;-inkscape-font-specification:'Bodonitown Medium';fill:#000000;fill-opacity:1;stroke:none" id="flowRoot914" xml:space="preserve"><flowRegion id="flowRegion910" style="line-height:1.60000002"><rect style="font-style:normal;font-variant:normal;font-weight:500;font-stretch:normal;font-size:12.5271616px;line-height:1.60000002;font-family:Bodonitown;-inkscape-font-specification:'Bodonitown Medium'" y="295.07626" x="392.23526" height="82.712738" width="290.63779" id="rect908" /></flowRegion><flowPara id="flowPara912" style="font-style:normal;font-variant:normal;font-weight:500;font-stretch:normal;font-size:12.5271616px;line-height:1.60000002;font-family:Bodonitown;-inkscape-font-specification:'Bodonitown Medium'">Functional-Light JavaScript, v2</flowPara><flowPara style="font-style:normal;font-variant:normal;font-weight:500;font-stretch:normal;font-size:12.5271616px;line-height:1.60000002;font-family:Bodonitown;-inkscape-font-specification:'Bodonitown Medium'" id="flowPara987">Deep JavaScript Foundations</flowPara><flowPara id="flowPara903" style="font-style:normal;font-variant:normal;font-weight:500;font-stretch:normal;font-size:12.5271616px;line-height:1.60000002;font-family:Bodonitown;-inkscape-font-specification:'Bodonitown Medium'">ES6 The Right Parts</flowPara><flowPara style="font-style:normal;font-variant:normal;font-weight:500;font-stretch:normal;font-size:12.5271616px;line-height:1.60000002;font-family:Bodonitown;-inkscape-font-specification:'Bodonitown Medium'" id="flowPara916">Hardcore Functional Programming in JavaScript</flowPara></flowRoot>    </g>
    <g id="g990" transform="translate(0,190.49638)">
      <text id="text978" y="281.89246" x="439.01544" style="font-style:normal;font-variant:normal;font-weight:normal;font-stretch:normal;font-size:22.44100571px;font-family:'Bebas Neue';-inkscape-font-specification:'Bebas Neue';text-align:end;text-anchor:end;fill:#0b7af9;fill-opacity:1;stroke:none;stroke-width:0.9350419" xml:space="preserve"><tspan id="tspan976" style="font-style:normal;font-variant:normal;font-weight:normal;font-stretch:normal;font-size:22.44100571px;font-family:'Bebas Neue';-inkscape-font-specification:'Bebas Neue';text-align:end;text-anchor:end;fill:#0b7af9;fill-opacity:1;stroke-width:0.9350419" y="281.89246" x="439.01544">Narzędzia</tspan></text>
      <flowRoot transform="matrix(0.82105277,0,0,0.82105277,134.36991,21.467391)" style="font-style:normal;font-variant:normal;font-weight:500;font-stretch:normal;font-size:12.5271616px;font-family:Bodonitown;-inkscape-font-specification:'Bodonitown Medium';fill:#000000;fill-opacity:1;stroke:none" id="flowRoot988" xml:space="preserve"><flowRegion id="flowRegion982"><rect style="font-style:normal;font-variant:normal;font-weight:500;font-stretch:normal;font-size:12.5271616px;font-family:Bodonitown;-inkscape-font-specification:'Bodonitown Medium'" y="295.07626" x="392.23526" height="72.868973" width="290.63779" id="rect980" /></flowRegion><flowPara id="flowPara984" style="font-style:normal;font-variant:normal;font-weight:500;font-stretch:normal;font-size:12.5271616px;font-family:Bodonitown;-inkscape-font-specification:'Bodonitown Medium'">Git Essential Training</flowPara><flowPara id="flowPara986" style="font-style:normal;font-variant:normal;font-weight:500;font-stretch:normal;font-size:12.5271616px;font-family:Bodonitown;-inkscape-font-specification:'Bodonitown Medium'">Learning Docker</flowPara><flowPara style="font-style:normal;font-variant:normal;font-weight:500;font-stretch:normal;font-size:12.5271616px;font-family:Bodonitown;-inkscape-font-specification:'Bodonitown Medium'" id="flowPara917">Learning Ansible</flowPara></flowRoot>    </g>
  </g>
</svg>
