<?xml version="1.0" encoding="UTF-8" standalone="no"?>
<svg inkscape:version="1.1.1 (3bf5ae0d25, 2021-09-20)" sodipodi:docname="jakub-jankiewicz-cv-page2.svg" width="744.09448819" height="1052.3622047" id="svg2" version="1.1" xmlns:inkscape="http://www.inkscape.org/namespaces/inkscape" xmlns:sodipodi="http://sodipodi.sourceforge.net/DTD/sodipodi-0.dtd" xmlns:xlink="http://www.w3.org/1999/xlink" xmlns="http://www.w3.org/2000/svg" xmlns:svg="http://www.w3.org/2000/svg" xmlns:rdf="http://www.w3.org/1999/02/22-rdf-syntax-ns#" xmlns:cc="http://creativecommons.org/ns#" xmlns:dc="http://purl.org/dc/elements/1.1/">
  <sodipodi:namedview inkscape:document-rotation="0" inkscape:current-layer="svg2" inkscape:window-maximized="0" inkscape:window-y="37" inkscape:window-x="131" inkscape:cy="829.26622" inkscape:cx="437.09897" inkscape:zoom="1.2685914" showgrid="false" id="namedview194" inkscape:window-height="905" inkscape:window-width="1779" inkscape:pageshadow="2" inkscape:pageopacity="0" guidetolerance="10" gridtolerance="10" objecttolerance="10" borderopacity="1" bordercolor="#666666" pagecolor="#ffffff" inkscape:pagecheckerboard="0" />
  <defs id="defs4">
    <rect x="769.85661" y="520.39128" width="268.78702" height="128.10707" id="rect37309" />
    <rect x="767.4657" y="511.44064" width="121.14935" height="120.36122" id="rect34097" />
    <rect x="794.89853" y="402.45342" width="185.33232" height="156.63889" id="rect28571" />
    <rect x="769.85661" y="520.39128" width="258.22914" height="56.64607" id="rect87174" />
    <rect x="769.85661" y="520.39128" width="267.22823" height="70.948357" id="rect96908" />
  </defs>
  <metadata id="metadata7">
    <rdf:RDF>
      <cc:Work rdf:about="">
        <dc:format>image/svg+xml</dc:format>
        <dc:type rdf:resource="http://purl.org/dc/dcmitype/StillImage" />
      </cc:Work>
    </rdf:RDF>
  </metadata>
  <rect y="1.1147927" x="0" height="1052.3622" width="744.09448" id="rect4186" style="color:#000000;display:inline;overflow:visible;visibility:visible;fill:#ffffff;fill-opacity:1;fill-rule:nonzero;stroke:none;stroke-width:5.8210001;marker:none;enable-background:accumulate" />
  <path inkscape:connector-curvature="0" id="path3048" clip-path="none" d="m 290.78906,6.1117569 -0.79687,2 v 5.8222661 l 0.87109,2.076171 2.0918,0.832032 2.06054,-0.908203 0.79688,-2 V 8.1117569 l -0.87109,-2.0761719 -2.0918,-0.8339843 z m 0,17.4628911 -0.79687,2 v 5.822265 l 0.87109,2.076172 2.0918,0.833985 2.06054,-0.910157 0.79688,-2 v -5.822265 l -0.87109,-2.076172 -2.0918,-0.833985 z m 0,17.46289 -0.79687,2 v 5.822266 l 0.87109,2.076172 2.0918,0.833984 2.06054,-0.910156 0.79688,-2 v -5.822266 l -0.87109,-2.076172 -2.0918,-0.833984 z m 0,17.462891 -0.79687,2 v 5.822265 l 0.87109,2.076172 2.0918,0.833985 2.06054,-0.910157 0.79688,-2 v -5.822265 l -0.87109,-2.076172 -2.0918,-0.833984 z m 0,17.462891 -0.79687,2 v 5.822265 l 0.87109,2.076172 2.0918,0.833984 2.06054,-0.910156 0.79688,-2 V 77.96332 l -0.87109,-2.076172 -2.0918,-0.833985 z m 0,17.46289 -0.79687,2 v 5.82226 l 0.87109,2.07618 2.0918,0.83398 2.06054,-0.91016 0.79688,-2 v -5.82226 l -0.87109,-2.076172 -2.0918,-0.832031 z m 0,17.46289 -0.79687,2.00195 v 5.82031 l 0.87109,2.07618 2.0918,0.83398 2.06054,-0.91016 0.79688,-2 v -5.82031 l -0.87109,-2.07812 -2.0918,-0.83203 z m 0,17.46289 -0.79687,2.00195 v 5.82032 l 0.87109,2.07617 2.0918,0.83398 2.06054,-0.91015 0.79688,-2 v -5.82032 l -0.87109,-2.07812 -2.0918,-0.83203 z m 0,17.46289 -0.79687,2.00195 v 5.82032 l 0.87109,2.07617 2.0918,0.83398 2.06054,-0.91015 0.79688,-2 v -5.82032 l -0.87109,-2.07812 -2.0918,-0.83203 z m 0,17.46289 -0.79687,2.00195 v 5.82032 l 0.87109,2.07617 2.0918,0.83398 2.06054,-0.91015 0.79688,-2 v -5.82032 l -0.87109,-2.07812 -2.0918,-0.83203 z m 0,17.46289 -0.79687,2.00195 v 5.82032 l 0.87109,2.07617 2.0918,0.83398 2.06054,-0.91015 0.79688,-2 v -5.82032 l -0.87109,-2.07812 -2.0918,-0.83203 z m 0,17.46289 -0.79687,2.00195 v 5.82032 l 0.87109,2.07617 2.0918,0.83398 2.06054,-0.91015 0.79688,-2 v -5.82032 l -0.87109,-2.07812 -2.0918,-0.83203 z m 0,17.46485 -0.79687,2 v 5.82031 l 0.87109,2.07812 2.0918,0.83203 2.06054,-0.9082 0.79688,-2.00195 v -5.82031 l -0.87109,-2.07618 -2.0918,-0.83398 z m 0,17.46289 -0.79687,2 v 5.82031 l 0.87109,2.07812 2.0918,0.83204 2.06054,-0.90821 0.79688,-2.00195 v -5.82031 l -0.87109,-2.07618 -2.0918,-0.83398 z m 0,17.46289 -0.79687,2 v 5.82031 l 0.87109,2.07812 2.0918,0.83204 2.06054,-0.90821 0.79688,-2.00195 v -5.82031 l -0.87109,-2.07618 -2.0918,-0.83398 z m 0,17.46289 -0.79687,2 v 5.82031 l 0.87109,2.07812 2.0918,0.83204 2.06054,-0.90821 0.79688,-2.00195 v -5.82031 l -0.87109,-2.07617 -2.0918,-0.83399 z m 0,17.46289 -0.79687,2 v 5.82031 l 0.87109,2.07813 2.0918,0.83203 2.06054,-0.90821 0.79688,-2.00195 v -5.82031 l -0.87109,-2.07617 -2.0918,-0.83399 z m 0,17.46289 -0.79687,2 v 5.82031 l 0.87109,2.07813 2.0918,0.83203 2.06054,-0.90821 0.79688,-2.00195 v -5.82031 l -0.87109,-2.07617 -2.0918,-0.83399 z m 0,17.46289 -0.79687,2 v 5.82226 l 0.87109,2.07618 2.0918,0.83203 2.06054,-0.90821 0.79688,-2 v -5.82226 l -0.87109,-2.07617 -2.0918,-0.83399 z m 0,17.46289 -0.79687,2 v 5.82227 l 0.87109,2.07617 2.0918,0.83398 2.06054,-0.91015 0.79688,-2 v -5.82227 l -0.87109,-2.07617 -2.0918,-0.83399 z m 0,17.46289 -0.79687,2 v 5.82227 l 0.87109,2.07617 2.0918,0.83398 2.06054,-0.91015 0.79688,-2 v -5.82227 l -0.87109,-2.07617 -2.0918,-0.83399 z m 0,17.46289 -0.79687,2 v 5.82227 l 0.87109,2.07617 2.0918,0.83398 2.06054,-0.91015 0.79688,-2 v -5.82227 l -0.87109,-2.07617 -2.0918,-0.83398 z m 0,17.46289 -0.79687,2 v 5.82227 l 0.87109,2.07617 2.0918,0.83398 2.06054,-0.91015 0.79688,-2 v -5.82227 l -0.87109,-2.07617 -2.0918,-0.83398 z m 0,17.46289 -0.79687,2 v 5.82227 l 0.87109,2.07617 2.0918,0.83398 2.06054,-0.91015 0.79688,-2 v -5.82227 l -0.87109,-2.07617 -2.0918,-0.83203 z m 0,17.46289 -0.79687,2.00196 v 5.82031 l 0.87109,2.07617 2.0918,0.83398 2.06054,-0.91015 0.79688,-2 v -5.82031 l -0.87109,-2.07813 -2.0918,-0.83203 z m 0,17.46289 -0.79687,2.00196 v 5.82031 l 0.87109,2.07617 2.0918,0.83399 2.06054,-0.91016 0.79688,-2 v -5.82031 l -0.87109,-2.07813 -2.0918,-0.83203 z m 0,17.46289 -0.79687,2.00196 v 5.82031 l 0.87109,2.07617 2.0918,0.83399 2.06054,-0.91016 0.79688,-2 v -5.82031 l -0.87109,-2.07813 -2.0918,-0.83203 z m 0,17.4629 -0.79687,2.00195 v 5.82031 l 0.87109,2.07617 2.0918,0.83399 2.06054,-0.91016 0.79688,-2 v -5.82031 l -0.87109,-2.07813 -2.0918,-0.83203 z m 0,17.46289 -0.79687,2.00195 v 5.82031 l 0.87109,2.07617 2.0918,0.83399 2.06054,-0.91016 0.79688,-2 v -5.82031 l -0.87109,-2.07813 -2.0918,-0.83203 z m 0,17.46289 -0.79687,2.00195 v 5.82031 l 0.87109,2.07617 2.0918,0.83399 2.06054,-0.91016 0.79688,-2 v -5.82031 l -0.87109,-2.07813 -2.0918,-0.83203 z m 0,17.46484 -0.79687,2 v 5.82031 l 0.87109,2.07813 2.0918,0.83203 2.06054,-0.9082 0.79688,-2.00196 v -5.82031 l -0.87109,-2.07617 -2.0918,-0.83399 z m 0,17.46289 -0.79687,2 v 5.82031 l 0.87109,2.07813 2.0918,0.83203 2.06054,-0.9082 0.79688,-2.00196 v -5.82031 l -0.87109,-2.07617 -2.0918,-0.83399 z m 0,17.46289 -0.79687,2 v 5.82031 l 0.87109,2.07813 2.0918,0.83203 2.06054,-0.9082 0.79688,-2.00196 v -5.82031 l -0.87109,-2.07617 -2.0918,-0.83399 z m 0,17.46289 -0.79687,2 v 5.82031 l 0.87109,2.07813 2.0918,0.83203 2.06054,-0.9082 0.79688,-2.00196 v -5.82031 l -0.87109,-2.07617 -2.0918,-0.83398 z m 0,17.46289 -0.79687,2 v 5.82032 l 0.87109,2.07812 2.0918,0.83203 2.06054,-0.9082 0.79688,-2.00195 v -5.82032 l -0.87109,-2.07617 -2.0918,-0.83398 z m 0,17.46289 -0.79687,2 v 5.82032 l 0.87109,2.07812 2.0918,0.83203 2.06054,-0.9082 0.79688,-2.00195 v -5.82032 l -0.87109,-2.07617 -2.0918,-0.83398 z m 0,17.46289 -0.79687,2 v 5.82227 l 0.87109,2.07617 2.0918,0.83203 2.06054,-0.9082 0.79688,-2 v -5.82227 l -0.87109,-2.07617 -2.0918,-0.83398 z m 0,17.46289 -0.79687,2 v 5.82227 l 0.87109,2.07617 2.0918,0.83399 2.06054,-0.91016 0.79688,-2 v -5.82227 l -0.87109,-2.07617 -2.0918,-0.83398 z m 0,17.46289 -0.79687,2 v 5.82227 l 0.87109,2.07617 2.0918,0.83399 2.06054,-0.91016 0.79688,-2 v -5.82227 l -0.87109,-2.07617 -2.0918,-0.83398 z m 0,17.4629 -0.79687,2 v 5.82226 l 0.87109,2.07617 2.0918,0.83399 2.06054,-0.91016 0.79688,-2 v -5.82226 l -0.87109,-2.07618 -2.0918,-0.83398 z m 0,17.46289 -0.79687,2 v 5.82226 l 0.87109,2.07617 2.0918,0.83399 2.06054,-0.91016 0.79688,-2 v -5.82226 l -0.87109,-2.07618 -2.0918,-0.83398 z m 0,17.46289 -0.79687,2 v 5.82226 l 0.87109,2.07617 2.0918,0.83399 2.06054,-0.91016 0.79688,-2 v -5.82226 l -0.87109,-2.07618 -2.0918,-0.83203 z m 0,17.46289 -0.79687,2.00195 v 5.82031 l 0.87109,2.07617 2.0918,0.83399 2.06054,-0.91016 0.79688,-2 v -5.82031 l -0.87109,-2.07812 -2.0918,-0.83204 z m 0,17.46289 -0.79687,2.00195 v 5.82031 l 0.87109,2.07618 2.0918,0.83398 2.06054,-0.91016 0.79688,-2 v -5.82031 l -0.87109,-2.07812 -2.0918,-0.83203 z m 0,17.46289 -0.79687,2.00195 v 5.82031 l 0.87109,2.07618 2.0918,0.83398 2.06054,-0.91016 0.79688,-2 v -5.82031 l -0.87109,-2.07812 -2.0918,-0.83203 z m 0,17.46289 -0.79687,2.00195 v 5.82031 l 0.87109,2.07618 2.0918,0.83398 2.06054,-0.91016 0.79688,-2 v -5.82031 l -0.87109,-2.07812 -2.0918,-0.83203 z m 0,17.46289 -0.79687,2.00195 v 5.82032 l 0.87109,2.07617 2.0918,0.83398 2.06054,-0.91015 0.79688,-2 v -5.82032 l -0.87109,-2.07812 -2.0918,-0.83203 z m 0,17.46289 -0.79687,2.00195 v 5.82032 l 0.87109,2.07617 2.0918,0.83398 2.06054,-0.91015 0.79688,-2 v -5.82032 l -0.87109,-2.07812 -2.0918,-0.83203 z m 0,17.46484 -0.79687,2 v 5.82032 l 0.87109,2.07812 2.0918,0.83203 2.06054,-0.9082 0.79688,-2.00195 v -5.82032 l -0.87109,-2.07617 -2.0918,-0.83398 z m 0,17.4629 -0.79687,2 v 5.82031 l 0.87109,2.07812 2.0918,0.83203 2.06054,-0.9082 0.79688,-2.00195 v -5.82031 l -0.87109,-2.07618 -2.0918,-0.83398 z m 0,17.46289 -0.79687,2 v 5.82031 l 0.87109,2.07812 2.0918,0.83203 2.06054,-0.9082 0.79688,-2.00195 v -5.82031 l -0.87109,-2.07618 -2.0918,-0.83398 z m 0,17.46289 -0.79687,2 v 5.82031 l 0.87109,2.07812 2.0918,0.83203 2.06054,-0.9082 0.79688,-2.00195 v -5.82031 l -0.87109,-2.07618 -2.0918,-0.83398 z m 0,17.46289 -0.79687,2 v 5.82031 l 0.87109,2.07812 2.0918,0.83204 2.06054,-0.90821 0.79688,-2.00195 v -5.82031 l -0.87109,-2.07617 -2.0918,-0.83399 z m 0,17.46289 -0.79687,2 v 5.82031 l 0.87109,2.07813 2.0918,0.83203 2.06054,-0.90821 0.79688,-2.00195 v -5.82031 l -0.87109,-2.07617 -2.0918,-0.83399 z m 0,17.46289 -0.79687,2 v 5.82226 l 0.87109,2.07618 2.0918,0.83203 2.06054,-0.90821 0.79688,-2 v -5.82226 l -0.87109,-2.07617 -2.0918,-0.83399 z m 0,17.46289 -0.79687,2 v 5.82226 l 0.87109,2.07618 2.0918,0.83398 2.06054,-0.91016 0.79688,-2 v -5.82226 l -0.87109,-2.07617 -2.0918,-0.83399 z m 0,17.46289 -0.79687,2 v 5.82227 l 0.87109,2.07617 2.0918,0.83398 2.06054,-0.91015 0.79688,-2 v -5.82227 l -0.87109,-2.07617 -2.0918,-0.83399 z m 0,17.46291 -0.79687,2 v 5.8223 l 0.87109,2.0761 2.0918,0.834 2.06054,-0.9101 0.79688,-2 v -5.8223 l -0.87109,-2.0762 -2.0918,-0.834 z m 0,17.4629 -0.79687,2 v 5.8223 l 0.87109,2.0761 2.0918,0.834 2.06054,-0.9101 0.79688,-2 v -5.8223 l -0.87109,-2.0762 -2.0918,-0.834 z m 0,17.4629 -0.79687,2 v 5.8222 l 0.87109,2.0762 2.0918,0.834 2.06054,-0.9102 0.79688,-2 v -5.8222 l -0.87109,-2.0762 -2.0918,-0.832 z" style="color:#000000;font-style:normal;font-variant:normal;font-weight:normal;font-stretch:normal;font-size:medium;line-height:normal;font-family:sans-serif;font-variant-ligatures:normal;font-variant-position:normal;font-variant-caps:normal;font-variant-numeric:normal;font-variant-alternates:normal;font-feature-settings:normal;text-indent:0;text-align:start;text-decoration:none;text-decoration-line:none;text-decoration-style:solid;text-decoration-color:#000000;letter-spacing:normal;word-spacing:normal;text-transform:none;writing-mode:lr-tb;direction:ltr;text-orientation:mixed;dominant-baseline:auto;baseline-shift:baseline;text-anchor:start;white-space:normal;shape-padding:0;clip-rule:nonzero;display:inline;overflow:visible;visibility:visible;opacity:1;isolation:auto;mix-blend-mode:normal;color-interpolation:sRGB;color-interpolation-filters:linearRGB;solid-color:#000000;solid-opacity:1;vector-effect:none;fill:#000000;fill-opacity:1;fill-rule:nonzero;stroke:none;stroke-width:5.8210001;stroke-linecap:round;stroke-linejoin:miter;stroke-miterlimit:4;stroke-dasharray:5.821, 11.642;stroke-dashoffset:0;stroke-opacity:1;color-rendering:auto;image-rendering:auto;shape-rendering:auto;text-rendering:auto;enable-background:accumulate" />
  <g transform="matrix(0.93504191,0,0,0.93504191,-120.90106,-83.61084)" id="g3112" />
  <g transform="translate(0,183.29548)" id="g930">
    <text id="text2884" y="708.21259" x="319.88443" style="font-style:normal;font-variant:normal;font-weight:normal;font-stretch:normal;font-size:30px;font-family:'Bebas Neue';-inkscape-font-specification:'Bebas Neue';fill:#666666;fill-opacity:1;stroke:none" xml:space="preserve"><tspan y="708.21259" x="319.88443" id="tspan2886">ZAINTERESOWANIA/Hobby:</tspan></text>
    <flowRoot xml:space="preserve" id="flowRoot3831" style="font-style:normal;font-variant:normal;font-weight:500;font-stretch:normal;font-size:12.5272px;line-height:1.5;font-family:Bodonitown;-inkscape-font-specification:'Bodonitown Medium';fill:#000000;fill-opacity:1;stroke:none" transform="matrix(0.82105277,0,0,0.82105277,134.28761,483.4865)"><flowRegion id="flowRegion3833" style="line-height:1.5"><rect style="font-style:normal;font-variant:normal;font-weight:500;font-stretch:normal;font-size:12.5271616px;line-height:1.5;font-family:Bodonitown;-inkscape-font-specification:'Bodonitown Medium'" id="rect3835" width="291.90244" height="119.38134" x="392.23526" y="295.07626" /></flowRegion><flowPara style="font-style:normal;font-variant:normal;font-weight:500;font-stretch:normal;font-size:12.5272px;line-height:1.5;font-family:Bodonitown;-inkscape-font-specification:'Bodonitown Medium'" id="flowPara3256">Open Source, Projektowanie Logo i Logotypów, Matematyka, Fotografia, RPG, Komiksy, Manga, Anime, Fantastyka, Cyberpunk, Edycja Wikipedii, Dzielenie się wiedzą oraz odpowiadanie na pytania programistyczne na StackOverflow i w Social Media (głównie JavaScript), Storytelling, Grywalizacja.</flowPara></flowRoot>
  </g>
  <g transform="translate(0,-650.97947)" id="g3223" />
  <flowRoot transform="matrix(0.9589772,0,0,0.9589772,243.92614,164.73131)" style="font-style:normal;font-variant:normal;font-weight:500;font-stretch:normal;font-size:9.73259px;line-height:125%;font-family:Bodonitown;-inkscape-font-specification:'Bodonitown Medium';text-align:start;letter-spacing:0px;word-spacing:0px;writing-mode:lr-tb;text-anchor:start;fill:#666666;fill-opacity:1;stroke:none" id="flowRoot3137-3" xml:space="preserve"><flowRegion style="font-size:9.73259px;fill:#666666" id="flowRegion3139-6"><rect style="font-style:normal;font-variant:normal;font-weight:500;font-stretch:normal;font-size:9.73259163px;font-family:Bodonitown;-inkscape-font-specification:'Bodonitown Medium';fill:#666666" y="900.00262" x="64.89389" height="35.30426" width="490.78653" id="rect3141-7" /></flowRegion><flowPara id="flowPara915">Created using Inkscape; (C) 2011-2020 Jakub T. Jankiewicz; CC-BY-SA 3.0; source: https://github.com/jcubic/cv</flowPara></flowRoot>
  <flowRoot xml:space="preserve" id="flowRoot901" style="font-style:normal;font-variant:normal;font-weight:500;font-stretch:normal;font-size:12.5272px;font-family:Bodonitown;-inkscape-font-specification:'Bodonitown Medium';fill:#000000;fill-opacity:1;stroke:none" transform="matrix(0.82105277,0,0,0.82105277,134.36991,-129.68244)"><flowRegion id="flowRegion897"><rect id="rect895" width="290.63779" height="72.868973" x="392.23526" y="295.07626" style="font-style:normal;font-variant:normal;font-weight:500;font-stretch:normal;font-size:12.5271616px;font-family:Bodonitown;-inkscape-font-specification:'Bodonitown Medium'" /></flowRegion><flowPara style="font-style:normal;font-variant:normal;font-weight:500;font-stretch:normal;font-size:12.5272px;font-family:Bodonitown;-inkscape-font-specification:'Bodonitown Medium'" id="flowPara899" /></flowRoot>
  <flowRoot transform="matrix(0.82105277,0,0,0.82105277,134.36991,-111.55207)" style="font-style:normal;font-variant:normal;font-weight:500;font-stretch:normal;font-size:12.5272px;font-family:Bodonitown;-inkscape-font-specification:'Bodonitown Medium';fill:#000000;fill-opacity:1;stroke:none" id="flowRoot902" xml:space="preserve"><flowRegion id="flowRegion898"><rect style="font-style:normal;font-variant:normal;font-weight:500;font-stretch:normal;font-size:12.5271616px;font-family:Bodonitown;-inkscape-font-specification:'Bodonitown Medium'" y="295.07626" x="392.23526" height="72.868973" width="290.63779" id="rect896" /></flowRegion><flowPara id="flowPara900" style="font-style:normal;font-variant:normal;font-weight:500;font-stretch:normal;font-size:12.5272px;font-family:Bodonitown;-inkscape-font-specification:'Bodonitown Medium'" /></flowRoot>
  <flowRoot xml:space="preserve" id="flowRoot910" style="font-style:normal;font-variant:normal;font-weight:500;font-stretch:normal;font-size:12.5272px;font-family:Bodonitown;-inkscape-font-specification:'Bodonitown Medium';fill:#000000;fill-opacity:1;stroke:none" transform="matrix(0.82105277,0,0,0.82105277,134.36991,-93.421714)"><flowRegion id="flowRegion906"><rect id="rect904" width="290.63779" height="39.746246" x="392.23526" y="295.07626" style="font-style:normal;font-variant:normal;font-weight:500;font-stretch:normal;font-size:12.5271616px;font-family:Bodonitown;-inkscape-font-specification:'Bodonitown Medium'" /></flowRegion><flowPara style="font-style:normal;font-variant:normal;font-weight:500;font-stretch:normal;font-size:12.5272px;font-family:Bodonitown;-inkscape-font-specification:'Bodonitown Medium'" id="flowPara908" /></flowRoot>
  <flowRoot transform="matrix(0.82105277,0,0,0.82105277,134.36991,47.449966)" style="font-style:normal;font-variant:normal;font-weight:500;font-stretch:normal;font-size:12.5272px;font-family:Bodonitown;-inkscape-font-specification:'Bodonitown Medium';fill:#000000;fill-opacity:1;stroke:none" id="flowRoot980" xml:space="preserve"><flowRegion id="flowRegion976"><rect style="font-style:normal;font-variant:normal;font-weight:500;font-stretch:normal;font-size:12.5271616px;font-family:Bodonitown;-inkscape-font-specification:'Bodonitown Medium'" y="295.07626" x="392.23526" height="72.868973" width="290.63779" id="rect974" /></flowRegion><flowPara id="flowPara978" style="font-style:normal;font-variant:normal;font-weight:500;font-stretch:normal;font-size:12.5272px;font-family:Bodonitown;-inkscape-font-specification:'Bodonitown Medium'" /></flowRoot>
  <flowRoot xml:space="preserve" id="flowRoot883" style="font-style:normal;font-variant:normal;font-weight:500;font-stretch:normal;font-size:12.5272px;font-family:Bodonitown;-inkscape-font-specification:'Bodonitown Medium';fill:#000000;fill-opacity:1;stroke:none" transform="matrix(0.82105277,0,0,0.82105277,134.36991,65.580311)"><flowRegion id="flowRegion879"><rect id="rect877" width="290.63779" height="72.868973" x="392.23526" y="295.07626" style="font-style:normal;font-variant:normal;font-weight:500;font-stretch:normal;font-size:12.5271616px;font-family:Bodonitown;-inkscape-font-specification:'Bodonitown Medium'" /></flowRegion><flowPara style="font-style:normal;font-variant:normal;font-weight:500;font-stretch:normal;font-size:12.5272px;font-family:Bodonitown;-inkscape-font-specification:'Bodonitown Medium'" id="flowPara881" /></flowRoot>
  <flowRoot transform="matrix(0.82105277,0,0,0.82105277,134.36991,278.17889)" style="font-style:normal;font-variant:normal;font-weight:500;font-stretch:normal;font-size:12.5272px;font-family:Bodonitown;-inkscape-font-specification:'Bodonitown Medium';fill:#000000;fill-opacity:1;stroke:none" id="flowRoot1010" xml:space="preserve"><flowRegion id="flowRegion1000"><rect style="font-style:normal;font-variant:normal;font-weight:500;font-stretch:normal;font-size:12.5272px;font-family:Bodonitown;-inkscape-font-specification:'Bodonitown Medium';stroke-width:1" y="295.07626" x="392.23526" height="134.14813" width="338.81937" id="rect998" /></flowRegion><flowPara style="font-style:normal;font-variant:normal;font-weight:normal;font-stretch:normal;font-size:12.5272px;font-family:Arial;-inkscape-font-specification:Arial" id="flowPara31365" /></flowRoot>
  <text xml:space="preserve" id="text34095" style="font-family:STIX;font-size:28px;line-height:1.25;letter-spacing:0px;word-spacing:0px;-inkscape-font-specification:STIX;white-space:pre;shape-inside:url(#rect34097)" />
  <text xml:space="preserve" style="font-style:normal;font-variant:normal;font-weight:normal;font-stretch:normal;font-size:30px;font-family:'Bebas Neue';-inkscape-font-specification:'Bebas Neue';fill:#666666;fill-opacity:1;stroke:none" x="319.43564" y="291.20224" id="text2888"><tspan id="tspan2890" x="319.43564" y="291.20224">Projekty Open Source:</tspan></text>
  <flowRoot transform="matrix(0.82105277,0,0,0.82105277,134.36991,71.008543)" style="font-style:normal;font-variant:normal;font-weight:500;font-stretch:normal;font-size:12.5272px;line-height:1.6;font-family:Bodonitown;-inkscape-font-specification:'Bodonitown Medium';fill:#000000;fill-opacity:1;stroke:none" id="flowRoot3783" xml:space="preserve"><flowRegion id="flowRegion3785" style="line-height:1.6"><rect style="font-style:normal;font-variant:normal;font-weight:500;font-stretch:normal;font-size:12.5272px;line-height:1.6;font-family:Bodonitown;-inkscape-font-specification:'Bodonitown Medium';stroke-width:1" y="295.07626" x="392.23526" height="105.17135" width="301.0354" id="rect3787" /></flowRegion><flowPara style="font-style:normal;font-variant:normal;font-weight:500;font-stretch:normal;font-size:12.5272px;line-height:1.6;font-family:Bodonitown;-inkscape-font-specification:'Bodonitown Medium'" id="flowPara1160">Biblioteka do tworzenia aplikacji wiersza poleceń na stronach internetowych. Posiada bardzo dużo fukcji. Jak animacje czy podświetanie kodu zdefiniowane przez użytkownika.</flowPara></flowRoot>
  <a id="a4654" xlink:href="https://terminal.jcubic.pl/">
    <text id="text3779" y="333.33258" x="438.52209" style="font-style:normal;font-variant:normal;font-weight:normal;font-stretch:normal;font-size:22.441px;font-family:'Bebas Neue';-inkscape-font-specification:'Bebas Neue';text-align:end;text-anchor:end;fill:#0b7af9;fill-opacity:1;stroke:none;stroke-width:0.935042" xml:space="preserve"><tspan id="tspan3957" style="font-style:normal;font-variant:normal;font-weight:normal;font-stretch:normal;font-size:22.441px;font-family:'Bebas Neue';-inkscape-font-specification:'Bebas Neue';text-align:end;text-anchor:end;fill:#0b7af9;fill-opacity:1;stroke-width:0.935042" y="333.33258" x="438.52209">jQuery Terminal</tspan></text>
  </a>
  <a id="a4670" xlink:href="https://github.com/jcubic/sysend.js">
    <text xml:space="preserve" style="font-style:normal;font-variant:normal;font-weight:normal;font-stretch:normal;font-size:22.441px;font-family:'Bebas Neue';-inkscape-font-specification:'Bebas Neue';text-align:end;text-anchor:end;fill:#0b7af9;fill-opacity:1;stroke:none;stroke-width:0.935042" x="439.01544" y="588.79968" id="text1144"><tspan x="439.01544" y="588.79968" style="font-style:normal;font-variant:normal;font-weight:normal;font-stretch:normal;font-size:22.441px;font-family:'Bebas Neue';-inkscape-font-specification:'Bebas Neue';text-align:end;text-anchor:end;fill:#0b7af9;fill-opacity:1;stroke-width:0.935042" id="tspan1142">Sysend</tspan></text>
  </a>
  <flowRoot xml:space="preserve" id="flowRoot1140" style="font-style:normal;font-variant:normal;font-weight:500;font-stretch:normal;font-size:12.5272px;line-height:1.6;font-family:Bodonitown;-inkscape-font-specification:'Bodonitown Medium';fill:#000000;fill-opacity:1;stroke:none" transform="matrix(0.82105277,0,0,0.82105277,134.36991,326.47567)"><flowRegion id="flowRegion1136" style="line-height:1.6"><rect id="rect1134" width="290.63779" height="119.03274" x="392.23526" y="295.07626" style="font-style:normal;font-variant:normal;font-weight:500;font-stretch:normal;font-size:12.5271616px;line-height:1.60000002;font-family:Bodonitown;-inkscape-font-specification:'Bodonitown Medium'" /></flowRegion><flowPara style="font-style:normal;font-variant:normal;font-weight:500;font-stretch:normal;font-size:12.5272px;line-height:1.6;font-family:Bodonitown;-inkscape-font-specification:'Bodonitown Medium'" id="flowPara1154">Biblioteka do wysyłania komunikatów w czystym Vanilla JavaScript. Bez zależności zewnętrznych używających natywnych API. Które posiada bardzo proste w użyciu API.</flowPara></flowRoot>
  <a id="a4674" xlink:href="https://github.com/Roche/ggtips">
    <text id="text918" y="663.51135" x="439.01544" style="font-style:normal;font-variant:normal;font-weight:normal;font-stretch:normal;font-size:22.441px;font-family:'Bebas Neue';-inkscape-font-specification:'Bebas Neue';text-align:end;text-anchor:end;fill:#0b7af9;fill-opacity:1;stroke:none;stroke-width:0.935042" xml:space="preserve"><tspan id="tspan916" style="font-style:normal;font-variant:normal;font-weight:normal;font-stretch:normal;font-size:22.441px;font-family:'Bebas Neue';-inkscape-font-specification:'Bebas Neue';text-align:end;text-anchor:end;fill:#0b7af9;fill-opacity:1;stroke-width:0.935042" y="663.51135" x="439.01544">GGTips</tspan></text>
  </a>
  <flowRoot transform="matrix(0.82105277,0,0,0.82105277,134.36991,403.08632)" style="font-style:normal;font-variant:normal;font-weight:500;font-stretch:normal;font-size:12.5272px;font-family:Bodonitown;-inkscape-font-specification:'Bodonitown Medium';fill:#000000;fill-opacity:1;stroke:none" id="flowRoot926" xml:space="preserve"><flowRegion id="flowRegion922"><rect style="font-style:normal;font-variant:normal;font-weight:500;font-stretch:normal;font-size:12.5272px;font-family:Bodonitown;-inkscape-font-specification:'Bodonitown Medium';stroke-width:1" y="295.07626" x="392.23526" height="72.868973" width="290.63779" id="rect920" /></flowRegion><flowPara id="flowPara914" style="font-style:normal;font-variant:normal;font-weight:500;font-stretch:normal;font-size:12.5272px;font-family:Bodonitown;-inkscape-font-specification:'Bodonitown Medium'">Pakiet R do tworzenia tooltipów na wykresach za pomocą popularnej biblioteki ggplot, jestem autorem części front-end'owej. W ramach pracy dla klientta ASTEK Polska (firmy farmaceutycznej)</flowPara></flowRoot>
  <a id="a4666" xlink:href="https://lips.js.org/">
    <text xml:space="preserve" style="font-style:normal;font-variant:normal;font-weight:normal;font-stretch:normal;font-size:22.441px;font-family:'Bebas Neue';-inkscape-font-specification:'Bebas Neue';text-align:end;text-anchor:end;fill:#0b7af9;fill-opacity:1;stroke:none;stroke-width:0.935042" x="439.01544" y="547.03247" id="text906"><tspan x="439.01544" y="547.03247" style="font-style:normal;font-variant:normal;font-weight:normal;font-stretch:normal;font-size:22.441px;font-family:'Bebas Neue';-inkscape-font-specification:'Bebas Neue';text-align:end;text-anchor:end;fill:#0b7af9;fill-opacity:1;stroke-width:0.935042" id="tspan904">LIPS Scheme</tspan></text>
  </a>
  <flowRoot xml:space="preserve" id="flowRoot914" style="font-style:normal;font-variant:normal;font-weight:500;font-stretch:normal;font-size:12.5272px;line-height:1.6;font-family:Bodonitown;-inkscape-font-specification:'Bodonitown Medium';fill:#000000;fill-opacity:1;stroke:none" transform="matrix(0.82105277,0,0,0.82105277,134.36991,284.70842)"><flowRegion style="line-height:1.6" id="flowRegion910"><rect id="rect908" width="290.63779" height="82.712738" x="392.23526" y="295.07626" style="font-style:normal;font-variant:normal;font-weight:500;font-stretch:normal;font-size:12.5271616px;line-height:1.60000002;font-family:Bodonitown;-inkscape-font-specification:'Bodonitown Medium'" /></flowRegion><flowPara id="flowPara916" style="font-style:normal;font-variant:normal;font-weight:500;font-stretch:normal;font-size:12.5272px;line-height:1.6;font-family:Bodonitown;-inkscape-font-specification:'Bodonitown Medium'">Interpreter jezyka Scheme (dialekt lispa) w języku JavaScript.</flowPara></flowRoot>
  <a id="a4658" xlink:href="https://isomorphic-git.org/">
    <text xml:space="preserve" style="font-style:normal;font-variant:normal;font-weight:normal;font-stretch:normal;font-size:22.441px;font-family:'Bebas Neue';-inkscape-font-specification:'Bebas Neue';text-align:end;text-anchor:end;fill:#0b7af9;fill-opacity:1;stroke:none;stroke-width:0.935042" x="439.01544" y="408.13034" id="text978"><tspan x="439.01544" y="408.13034" style="font-style:normal;font-variant:normal;font-weight:normal;font-stretch:normal;font-size:22.441px;font-family:'Bebas Neue';-inkscape-font-specification:'Bebas Neue';text-align:end;text-anchor:end;fill:#0b7af9;fill-opacity:1;stroke-width:0.935042" id="tspan976">Isomorphic-git</tspan></text>
  </a>
  <flowRoot xml:space="preserve" id="flowRoot988" style="font-style:normal;font-variant:normal;font-weight:500;font-stretch:normal;font-size:12.5272px;font-family:Bodonitown;-inkscape-font-specification:'Bodonitown Medium';fill:#000000;fill-opacity:1;stroke:none" transform="matrix(0.82105277,0,0,0.82105277,134.36991,147.70528)"><flowRegion id="flowRegion982"><rect id="rect980" width="305.85989" height="85.193558" x="392.23526" y="295.07626" style="font-style:normal;font-variant:normal;font-weight:500;font-stretch:normal;font-size:12.5272px;font-family:Bodonitown;-inkscape-font-specification:'Bodonitown Medium'" /></flowRegion><flowPara style="font-style:normal;font-variant:normal;font-weight:500;font-stretch:normal;font-size:12.5272px;font-family:Bodonitown;-inkscape-font-specification:'Bodonitown Medium'" id="flowPara24085">Implementacja gita w JavaScript dla przeglądarki i NodeJS. Jestem aktywnym managerem projektu (ang. maintainer). Autor projektu zrezygował z aktywej pracy nad projektem. Zajmuję się komunikacją z użytkownikami, robieniem Code Review i mergowaniem zmian.</flowPara></flowRoot>
  <a id="a4678" xlink:href="https://github.com/jcubic/gaiman">
    <text id="text996" y="727.56342" x="439.01544" style="font-style:normal;font-variant:normal;font-weight:normal;font-stretch:normal;font-size:22.441px;font-family:'Bebas Neue';-inkscape-font-specification:'Bebas Neue';text-align:end;text-anchor:end;fill:#0b7af9;fill-opacity:1;stroke:none;stroke-width:0.935042" xml:space="preserve"><tspan id="tspan954" y="727.56342" x="439.01544" sodipodi:role="line">Gaiman</tspan></text>
  </a>
  <text xml:space="preserve" id="text37307" style="font-style:normal;font-variant:normal;font-weight:normal;font-stretch:normal;font-size:10.2855px;line-height:1.25;font-family:Bodonitown;-inkscape-font-specification:Bodonitown;font-variation-settings:normal;letter-spacing:0px;word-spacing:0px;white-space:pre;shape-inside:url(#rect37309);vector-effect:none;fill:#000000;fill-opacity:1;stroke:none;stroke-width:0.821053;stroke-linecap:butt;stroke-linejoin:miter;stroke-miterlimit:4;stroke-dasharray:none;stroke-dashoffset:0;stroke-opacity:1;-inkscape-stroke:none;stop-color:#000000" transform="translate(-313.36011,189.10138)"><tspan x="769.85742" y="530.15892" id="tspan47795">Język programowania podobny do Ruby, który kompiuje się do </tspan><tspan x="769.85742" y="543.01579" id="tspan47797">języka JavaScript. Suży głównie do tworzenia aplikacji wiersza </tspan><tspan x="769.85742" y="555.87267" id="tspan47799">poeceń dla jQuery Termial. Założeniem jest, aby łatwiej tworzyć </tspan><tspan x="769.85742" y="568.72954" id="tspan47801">przygodowe gry tekstowe. Mam w planach dodanie także </tspan><tspan x="769.85742" y="581.58641" id="tspan47803">obsługi zwykłego wiersza poleceń.</tspan></text>
  <a id="a4662" xlink:href="https://git-terminal.js.org/">
    <text id="text87168" y="482.73529" x="439.01544" style="font-style:normal;font-variant:normal;font-weight:normal;font-stretch:normal;font-size:22.441px;font-family:'Bebas Neue';-inkscape-font-specification:'Bebas Neue';text-align:end;text-anchor:end;fill:#0b7af9;fill-opacity:1;stroke:none;stroke-width:0.935042" xml:space="preserve"><tspan id="tspan87166" y="482.73529" x="439.01544" sodipodi:role="line">GIT Web Terminal</tspan></text>
  </a>
  <text xml:space="preserve" id="text87170" style="font-style:normal;font-variant:normal;font-weight:normal;font-stretch:normal;font-size:10.2855px;line-height:1.25;font-family:Bodonitown;-inkscape-font-specification:Bodonitown;font-variation-settings:normal;letter-spacing:0px;word-spacing:0px;white-space:pre;shape-inside:url(#rect87174);vector-effect:none;fill:#000000;fill-opacity:1;stroke:none;stroke-width:0.821053;stroke-linecap:butt;stroke-linejoin:miter;stroke-miterlimit:4;stroke-dasharray:none;stroke-dashoffset:0;stroke-opacity:1;-inkscape-stroke:none;stop-color:#000000" transform="translate(-313.36011,-55.726776)"><tspan x="769.85742" y="530.15892" id="tspan47805">Aplikacja która korzysta z Isomorphic-git oraz jQuery </tspan><tspan x="769.85742" y="543.01579" id="tspan47807">Terminal. Jest to wiersz poleceń git w przeglądarce. Zawiera </tspan><tspan x="769.85742" y="555.87267" id="tspan47809">ciekawe użycie Service Workera do tworzenia dynamicznie </tspan><tspan x="769.85742" y="568.72954" id="tspan47811">plików w przegądarce.</tspan></text>
  <a id="a4682" xlink:href="https://github.com/jcubic/clarity">
    <text id="text96902" y="804.53235" x="439.01544" style="font-style:normal;font-variant:normal;font-weight:normal;font-stretch:normal;font-size:22.441px;font-family:'Bebas Neue';-inkscape-font-specification:'Bebas Neue';text-align:end;text-anchor:end;fill:#0b7af9;fill-opacity:1;stroke:none;stroke-width:0.935042" xml:space="preserve"><tspan id="tspan96900" y="804.53235" x="439.01544" sodipodi:role="line">Clarity</tspan></text>
  </a>
  <text xml:space="preserve" id="text96904" style="font-style:normal;font-variant:normal;font-weight:normal;font-stretch:normal;font-size:10.2855px;line-height:1.25;font-family:Bodonitown;-inkscape-font-specification:Bodonitown;font-variation-settings:normal;letter-spacing:0px;word-spacing:0px;white-space:pre;shape-inside:url(#rect96908);vector-effect:none;fill:#000000;fill-opacity:1;stroke:none;stroke-width:0.821053;stroke-linecap:butt;stroke-linejoin:miter;stroke-miterlimit:4;stroke-dasharray:none;stroke-dashoffset:0;stroke-opacity:1;-inkscape-stroke:none;stop-color:#000000" transform="translate(-313.36011,266.07031)"><tspan x="769.85742" y="530.15892" id="tspan47813">Zestaw ikon dla systemu GNU/Linux i środowiska GTK+. </tspan><tspan x="769.85742" y="543.01579" id="tspan47815">Ikony są stworzone w SVG. Do tego napisane są skrypty </tspan><tspan x="769.85742" y="555.87267" id="tspan47817">bashowe do budowania, które umożliwiają zmianęikon na </tspan><tspan x="769.85742" y="568.72954" id="tspan47819">podstawie szablonów.</tspan></text>
  <g id="g1427" transform="translate(-0.04806519,-14.169467)">
    <text id="text2872" y="66.192024" x="320.2337" style="font-style:normal;font-variant:normal;font-weight:normal;font-stretch:normal;font-size:30px;font-family:'Bebas Neue';-inkscape-font-specification:'Bebas Neue';fill:#666666;fill-opacity:1;stroke:none" xml:space="preserve"><tspan y="66.192024" x="320.2337" id="tspan2874">WYKSZTAŁCENIE:</tspan></text>
    <g id="g1232" transform="translate(0,3.0276227)">
      <path id="path2959-9-8" d="m 646.18885,87.680763 h -0.26438 l 0.75866,-1.000046 h 0.75865 l -1.25293,1.000046" style="font-style:normal;font-weight:normal;font-size:14px;font-family:'New Cicle';-inkscape-font-specification:'New Cicle';fill:#000000;fill-opacity:1;stroke:none" inkscape:connector-curvature="0" />
      <g transform="translate(0,16.039403)" id="g3260">
        <text xml:space="preserve" style="font-style:normal;font-variant:normal;font-weight:normal;font-stretch:normal;font-size:22.441px;font-family:'Bebas Neue';-inkscape-font-specification:'Bebas Neue';fill:#0b7af9;fill-opacity:1;stroke:none" x="354.86166" y="209.98961" id="text2941"><tspan id="tspan2943" x="354.86166" y="209.98961" style="font-style:normal;font-variant:normal;font-weight:normal;font-stretch:normal;font-size:22.441px;font-family:'Bebas Neue';-inkscape-font-specification:'Bebas Neue';fill:#0b7af9;fill-opacity:1">1995 - 2000</tspan></text>
        <g id="g3010" transform="matrix(0.93504191,0,0,0.93504191,32.313685,-145.57651)">
          <flowRoot transform="matrix(0.73681144,0,0,0.73681144,164.58543,143.41011)" style="font-style:normal;font-variant:normal;font-weight:500;font-stretch:normal;font-size:14.9292px;font-family:Bodonitown;-inkscape-font-specification:'Bodonitown Medium';fill:#000000;fill-opacity:1;stroke:none" id="flowRoot2945" xml:space="preserve"><flowRegion id="flowRegion2947"><rect style="font-style:normal;font-variant:normal;font-weight:500;font-stretch:normal;font-size:14.92919254px;font-family:Bodonitown;-inkscape-font-specification:'Bodonitown Medium'" y="295.07626" x="392.23526" height="120.38905" width="346.18433" id="rect2949" /></flowRegion><flowPara style="font-style:normal;font-variant:normal;font-weight:500;font-stretch:normal;font-size:14.9292px;font-family:Bodonitown;-inkscape-font-specification:'Bodonitown Medium'" id="flowPara2951"><flowSpan id="flowSpan3749" style="font-style:normal;font-variant:normal;font-weight:500;font-stretch:normal;font-size:14.9292px;font-family:Bodonitown;-inkscape-font-specification:'Bodonitown Medium';fill:#0b7af9;fill-opacity:1">Technikum Elektroniczne</flowSpan> o specjalności &quot;radiotechnika i telewizja&quot; w ZSZ nr 1 im. Bohaterów Września 1939 r. w Skarzysku - Kamiennej</flowPara></flowRoot>
          <circle transform="matrix(0.81818182,0,0,0.81818182,125.96588,-426.11996)" id="path2999-7" style="fill:#000000;fill-opacity:1;stroke:none" cx="540.04126" cy="1003.2562" r="0.45660675" />
          <path inkscape:connector-curvature="0" id="path2959-9" d="m 481.68625,396.11091 h -0.28274 l 0.81136,-1.06952 h 0.81135 l -1.33997,1.06952" style="font-style:normal;font-weight:normal;font-size:14px;font-family:'New Cicle';-inkscape-font-specification:'New Cicle';fill:#000000;fill-opacity:1;stroke:none" />
        </g>
      </g>
      <g transform="translate(0,3.7185003)" id="g3250">
        <text id="text2929" y="162.42487" x="354.79434" style="font-style:normal;font-variant:normal;font-weight:normal;font-stretch:normal;font-size:22.441px;font-family:'Bebas Neue';-inkscape-font-specification:'Bebas Neue';fill:#0b7af9;fill-opacity:1;stroke:none" xml:space="preserve"><tspan style="font-style:normal;font-variant:normal;font-weight:normal;font-stretch:normal;font-size:22.441px;font-family:'Bebas Neue';-inkscape-font-specification:'Bebas Neue';fill:#0b7af9;fill-opacity:1" y="162.42487" x="354.79434" id="tspan2931">2000 - 2002</tspan></text>
        <g id="g3020" transform="matrix(0.93504191,0,0,0.93504191,32.241686,-107.33723)">
          <flowRoot xml:space="preserve" id="flowRoot2933" style="font-style:normal;font-variant:normal;font-weight:500;font-stretch:normal;font-size:14.9292px;font-family:Bodonitown;-inkscape-font-specification:'Bodonitown Medium';fill:#000000;fill-opacity:1;stroke:none" transform="matrix(0.73681144,0,0,0.73681144,164.58543,51.48023)"><flowRegion id="flowRegion2935"><rect style="font-style:normal;font-variant:normal;font-weight:500;font-stretch:normal;font-size:14.92919254px;font-family:Bodonitown;-inkscape-font-specification:'Bodonitown Medium'" id="rect2937" width="346.18433" height="120.38905" x="392.23526" y="295.07626" /></flowRegion><flowPara id="flowPara2939" style="font-style:normal;font-variant:normal;font-weight:500;font-stretch:normal;font-size:14.9292px;font-family:Bodonitown;-inkscape-font-specification:'Bodonitown Medium'">Niepubliczne Policealne Studium Elektroniczne Towarzystwa Wiedzy Powszechnej o specjalności <flowSpan id="flowSpan3747" style="font-style:normal;font-variant:normal;font-weight:500;font-stretch:normal;font-size:14.9292px;font-family:Bodonitown;-inkscape-font-specification:'Bodonitown Medium';fill:#0b7af9;fill-opacity:1">&quot;Systemy Komputerowe&quot;</flowSpan></flowPara></flowRoot>
        </g>
      </g>
      <g transform="translate(0,-1.6578606)" id="g3237">
        <text xml:space="preserve" style="font-style:normal;font-variant:normal;font-weight:normal;font-stretch:normal;font-size:22.441px;font-family:'Bebas Neue';-inkscape-font-specification:'Bebas Neue';fill:#0b7af9;fill-opacity:1;stroke:none" x="354.90656" y="127.24005" id="text2913"><tspan id="tspan2915" x="354.90656" y="127.24005" style="font-style:normal;font-variant:normal;font-weight:normal;font-stretch:normal;font-size:22.441px;font-family:'Bebas Neue';-inkscape-font-specification:'Bebas Neue';fill:#0b7af9;fill-opacity:1">2002 - 2007</tspan></text>
        <flowRoot xml:space="preserve" id="flowRoot2921" style="font-style:normal;font-variant:normal;font-weight:500;font-stretch:normal;font-size:14.9292px;font-family:Bodonitown;-inkscape-font-specification:'Bodonitown Medium';fill:#000000;fill-opacity:1;stroke:none" transform="matrix(0.68894958,0,0,0.68894958,186.08453,-116.52187)"><flowRegion id="flowRegion2923"><rect id="rect2925" width="347.33298" height="62.305199" x="392.23526" y="295.07626" style="font-style:normal;font-variant:normal;font-weight:500;font-stretch:normal;font-size:14.92919254px;font-family:Bodonitown;-inkscape-font-specification:'Bodonitown Medium'" /></flowRegion><flowPara id="flowPara2927" style="font-style:normal;font-variant:normal;font-weight:500;font-stretch:normal;font-size:14.9292px;font-family:Bodonitown;-inkscape-font-specification:'Bodonitown Medium'">Studia Inżynierskie na kierunku <flowSpan style="font-style:normal;font-variant:normal;font-weight:500;font-stretch:normal;font-size:14.9292px;font-family:Bodonitown;-inkscape-font-specification:'Bodonitown Medium';fill:#0b7af9;fill-opacity:1" id="flowSpan3727">&quot;Informatyka&quot; <flowSpan style="fill:#000000" id="flowSpan3129">o specjalności</flowSpan></flowSpan><flowSpan style="fill:#0b7af9;fill-opacity:1" id="flowSpan3901"> &quot;Systemy Informacyjne&quot;</flowSpan> na Politechnice Świetokrzyskiej </flowPara></flowRoot>
        <text id="text3168" y="104.94978" x="354.39041" style="font-style:normal;font-variant:normal;font-weight:normal;font-stretch:normal;font-size:22.441px;font-family:'Bebas Neue';-inkscape-font-specification:'Bebas Neue';fill:#0b7af9;fill-opacity:1;stroke:none" xml:space="preserve"><tspan style="font-style:normal;font-variant:normal;font-weight:normal;font-stretch:normal;font-size:22.441px;font-family:'Bebas Neue';-inkscape-font-specification:'Bebas Neue';fill:#0b7af9;fill-opacity:1" y="104.94978" x="354.39041" id="tspan3170">2011 - 2014</tspan></text>
      </g>
    </g>
  </g>
</svg>
