<?xml version="1.0" encoding="UTF-8" standalone="no"?>
<svg xmlns:dc="http://purl.org/dc/elements/1.1/" xmlns:cc="http://creativecommons.org/ns#" xmlns:rdf="http://www.w3.org/1999/02/22-rdf-syntax-ns#" xmlns:svg="http://www.w3.org/2000/svg" xmlns="http://www.w3.org/2000/svg" xmlns:sodipodi="http://sodipodi.sourceforge.net/DTD/sodipodi-0.dtd" xmlns:inkscape="http://www.inkscape.org/namespaces/inkscape" inkscape:version="1.0 (4035a4fb49, 2020-05-01)" sodipodi:docname="jakub-jankiewicz-cv-page2.svg" width="744.09448819" height="1052.3622047" id="svg2" version="1.1">
  <sodipodi:namedview inkscape:document-rotation="0" inkscape:current-layer="svg2" inkscape:window-maximized="0" inkscape:window-y="49" inkscape:window-x="0" inkscape:cy="455.37189" inkscape:cx="306.98132" inkscape:zoom="0.4485148" showgrid="false" id="namedview194" inkscape:window-height="905" inkscape:window-width="1635" inkscape:pageshadow="2" inkscape:pageopacity="0" guidetolerance="10" gridtolerance="10" objecttolerance="10" borderopacity="1" bordercolor="#666666" pagecolor="#ffffff" />
  <defs id="defs4" />
  <metadata id="metadata7">
    <rdf:RDF>
      <cc:Work rdf:about="">
        <dc:format>image/svg+xml</dc:format>
        <dc:type rdf:resource="http://purl.org/dc/dcmitype/StillImage" />
        <dc:title />
      </cc:Work>
    </rdf:RDF>
  </metadata>
  <rect y="1.1147927" x="0" height="1052.3622" width="744.09448" id="rect4186" style="color:#000000;display:inline;overflow:visible;visibility:visible;fill:#ffffff;fill-opacity:1;fill-rule:nonzero;stroke:none;stroke-width:5.8210001;marker:none;enable-background:accumulate" />
  <path inkscape:connector-curvature="0" id="path3048" clip-path="none" d="m 290.78906,6.1117569 -0.79687,2 v 5.8222661 l 0.87109,2.076171 2.0918,0.832032 2.06054,-0.908203 0.79688,-2 V 8.1117569 l -0.87109,-2.0761719 -2.0918,-0.8339843 z m 0,17.4628911 -0.79687,2 v 5.822265 l 0.87109,2.076172 2.0918,0.833985 2.06054,-0.910157 0.79688,-2 v -5.822265 l -0.87109,-2.076172 -2.0918,-0.833985 z m 0,17.46289 -0.79687,2 v 5.822266 l 0.87109,2.076172 2.0918,0.833984 2.06054,-0.910156 0.79688,-2 v -5.822266 l -0.87109,-2.076172 -2.0918,-0.833984 z m 0,17.462891 -0.79687,2 v 5.822265 l 0.87109,2.076172 2.0918,0.833985 2.06054,-0.910157 0.79688,-2 v -5.822265 l -0.87109,-2.076172 -2.0918,-0.833984 z m 0,17.462891 -0.79687,2 v 5.822265 l 0.87109,2.076172 2.0918,0.833984 2.06054,-0.910156 0.79688,-2 V 77.96332 l -0.87109,-2.076172 -2.0918,-0.833985 z m 0,17.46289 -0.79687,2 v 5.82226 l 0.87109,2.07618 2.0918,0.83398 2.06054,-0.91016 0.79688,-2 v -5.82226 l -0.87109,-2.076172 -2.0918,-0.832031 z m 0,17.46289 -0.79687,2.00195 v 5.82031 l 0.87109,2.07618 2.0918,0.83398 2.06054,-0.91016 0.79688,-2 v -5.82031 l -0.87109,-2.07812 -2.0918,-0.83203 z m 0,17.46289 -0.79687,2.00195 v 5.82032 l 0.87109,2.07617 2.0918,0.83398 2.06054,-0.91015 0.79688,-2 v -5.82032 l -0.87109,-2.07812 -2.0918,-0.83203 z m 0,17.46289 -0.79687,2.00195 v 5.82032 l 0.87109,2.07617 2.0918,0.83398 2.06054,-0.91015 0.79688,-2 v -5.82032 l -0.87109,-2.07812 -2.0918,-0.83203 z m 0,17.46289 -0.79687,2.00195 v 5.82032 l 0.87109,2.07617 2.0918,0.83398 2.06054,-0.91015 0.79688,-2 v -5.82032 l -0.87109,-2.07812 -2.0918,-0.83203 z m 0,17.46289 -0.79687,2.00195 v 5.82032 l 0.87109,2.07617 2.0918,0.83398 2.06054,-0.91015 0.79688,-2 v -5.82032 l -0.87109,-2.07812 -2.0918,-0.83203 z m 0,17.46289 -0.79687,2.00195 v 5.82032 l 0.87109,2.07617 2.0918,0.83398 2.06054,-0.91015 0.79688,-2 v -5.82032 l -0.87109,-2.07812 -2.0918,-0.83203 z m 0,17.46485 -0.79687,2 v 5.82031 l 0.87109,2.07812 2.0918,0.83203 2.06054,-0.9082 0.79688,-2.00195 v -5.82031 l -0.87109,-2.07618 -2.0918,-0.83398 z m 0,17.46289 -0.79687,2 v 5.82031 l 0.87109,2.07812 2.0918,0.83204 2.06054,-0.90821 0.79688,-2.00195 v -5.82031 l -0.87109,-2.07618 -2.0918,-0.83398 z m 0,17.46289 -0.79687,2 v 5.82031 l 0.87109,2.07812 2.0918,0.83204 2.06054,-0.90821 0.79688,-2.00195 v -5.82031 l -0.87109,-2.07618 -2.0918,-0.83398 z m 0,17.46289 -0.79687,2 v 5.82031 l 0.87109,2.07812 2.0918,0.83204 2.06054,-0.90821 0.79688,-2.00195 v -5.82031 l -0.87109,-2.07617 -2.0918,-0.83399 z m 0,17.46289 -0.79687,2 v 5.82031 l 0.87109,2.07813 2.0918,0.83203 2.06054,-0.90821 0.79688,-2.00195 v -5.82031 l -0.87109,-2.07617 -2.0918,-0.83399 z m 0,17.46289 -0.79687,2 v 5.82031 l 0.87109,2.07813 2.0918,0.83203 2.06054,-0.90821 0.79688,-2.00195 v -5.82031 l -0.87109,-2.07617 -2.0918,-0.83399 z m 0,17.46289 -0.79687,2 v 5.82226 l 0.87109,2.07618 2.0918,0.83203 2.06054,-0.90821 0.79688,-2 v -5.82226 l -0.87109,-2.07617 -2.0918,-0.83399 z m 0,17.46289 -0.79687,2 v 5.82227 l 0.87109,2.07617 2.0918,0.83398 2.06054,-0.91015 0.79688,-2 v -5.82227 l -0.87109,-2.07617 -2.0918,-0.83399 z m 0,17.46289 -0.79687,2 v 5.82227 l 0.87109,2.07617 2.0918,0.83398 2.06054,-0.91015 0.79688,-2 v -5.82227 l -0.87109,-2.07617 -2.0918,-0.83399 z m 0,17.46289 -0.79687,2 v 5.82227 l 0.87109,2.07617 2.0918,0.83398 2.06054,-0.91015 0.79688,-2 v -5.82227 l -0.87109,-2.07617 -2.0918,-0.83398 z m 0,17.46289 -0.79687,2 v 5.82227 l 0.87109,2.07617 2.0918,0.83398 2.06054,-0.91015 0.79688,-2 v -5.82227 l -0.87109,-2.07617 -2.0918,-0.83398 z m 0,17.46289 -0.79687,2 v 5.82227 l 0.87109,2.07617 2.0918,0.83398 2.06054,-0.91015 0.79688,-2 v -5.82227 l -0.87109,-2.07617 -2.0918,-0.83203 z m 0,17.46289 -0.79687,2.00196 v 5.82031 l 0.87109,2.07617 2.0918,0.83398 2.06054,-0.91015 0.79688,-2 v -5.82031 l -0.87109,-2.07813 -2.0918,-0.83203 z m 0,17.46289 -0.79687,2.00196 v 5.82031 l 0.87109,2.07617 2.0918,0.83399 2.06054,-0.91016 0.79688,-2 v -5.82031 l -0.87109,-2.07813 -2.0918,-0.83203 z m 0,17.46289 -0.79687,2.00196 v 5.82031 l 0.87109,2.07617 2.0918,0.83399 2.06054,-0.91016 0.79688,-2 v -5.82031 l -0.87109,-2.07813 -2.0918,-0.83203 z m 0,17.4629 -0.79687,2.00195 v 5.82031 l 0.87109,2.07617 2.0918,0.83399 2.06054,-0.91016 0.79688,-2 v -5.82031 l -0.87109,-2.07813 -2.0918,-0.83203 z m 0,17.46289 -0.79687,2.00195 v 5.82031 l 0.87109,2.07617 2.0918,0.83399 2.06054,-0.91016 0.79688,-2 v -5.82031 l -0.87109,-2.07813 -2.0918,-0.83203 z m 0,17.46289 -0.79687,2.00195 v 5.82031 l 0.87109,2.07617 2.0918,0.83399 2.06054,-0.91016 0.79688,-2 v -5.82031 l -0.87109,-2.07813 -2.0918,-0.83203 z m 0,17.46484 -0.79687,2 v 5.82031 l 0.87109,2.07813 2.0918,0.83203 2.06054,-0.9082 0.79688,-2.00196 v -5.82031 l -0.87109,-2.07617 -2.0918,-0.83399 z m 0,17.46289 -0.79687,2 v 5.82031 l 0.87109,2.07813 2.0918,0.83203 2.06054,-0.9082 0.79688,-2.00196 v -5.82031 l -0.87109,-2.07617 -2.0918,-0.83399 z m 0,17.46289 -0.79687,2 v 5.82031 l 0.87109,2.07813 2.0918,0.83203 2.06054,-0.9082 0.79688,-2.00196 v -5.82031 l -0.87109,-2.07617 -2.0918,-0.83399 z m 0,17.46289 -0.79687,2 v 5.82031 l 0.87109,2.07813 2.0918,0.83203 2.06054,-0.9082 0.79688,-2.00196 v -5.82031 l -0.87109,-2.07617 -2.0918,-0.83398 z m 0,17.46289 -0.79687,2 v 5.82032 l 0.87109,2.07812 2.0918,0.83203 2.06054,-0.9082 0.79688,-2.00195 v -5.82032 l -0.87109,-2.07617 -2.0918,-0.83398 z m 0,17.46289 -0.79687,2 v 5.82032 l 0.87109,2.07812 2.0918,0.83203 2.06054,-0.9082 0.79688,-2.00195 v -5.82032 l -0.87109,-2.07617 -2.0918,-0.83398 z m 0,17.46289 -0.79687,2 v 5.82227 l 0.87109,2.07617 2.0918,0.83203 2.06054,-0.9082 0.79688,-2 v -5.82227 l -0.87109,-2.07617 -2.0918,-0.83398 z m 0,17.46289 -0.79687,2 v 5.82227 l 0.87109,2.07617 2.0918,0.83399 2.06054,-0.91016 0.79688,-2 v -5.82227 l -0.87109,-2.07617 -2.0918,-0.83398 z m 0,17.46289 -0.79687,2 v 5.82227 l 0.87109,2.07617 2.0918,0.83399 2.06054,-0.91016 0.79688,-2 v -5.82227 l -0.87109,-2.07617 -2.0918,-0.83398 z m 0,17.4629 -0.79687,2 v 5.82226 l 0.87109,2.07617 2.0918,0.83399 2.06054,-0.91016 0.79688,-2 v -5.82226 l -0.87109,-2.07618 -2.0918,-0.83398 z m 0,17.46289 -0.79687,2 v 5.82226 l 0.87109,2.07617 2.0918,0.83399 2.06054,-0.91016 0.79688,-2 v -5.82226 l -0.87109,-2.07618 -2.0918,-0.83398 z m 0,17.46289 -0.79687,2 v 5.82226 l 0.87109,2.07617 2.0918,0.83399 2.06054,-0.91016 0.79688,-2 v -5.82226 l -0.87109,-2.07618 -2.0918,-0.83203 z m 0,17.46289 -0.79687,2.00195 v 5.82031 l 0.87109,2.07617 2.0918,0.83399 2.06054,-0.91016 0.79688,-2 v -5.82031 l -0.87109,-2.07812 -2.0918,-0.83204 z m 0,17.46289 -0.79687,2.00195 v 5.82031 l 0.87109,2.07618 2.0918,0.83398 2.06054,-0.91016 0.79688,-2 v -5.82031 l -0.87109,-2.07812 -2.0918,-0.83203 z m 0,17.46289 -0.79687,2.00195 v 5.82031 l 0.87109,2.07618 2.0918,0.83398 2.06054,-0.91016 0.79688,-2 v -5.82031 l -0.87109,-2.07812 -2.0918,-0.83203 z m 0,17.46289 -0.79687,2.00195 v 5.82031 l 0.87109,2.07618 2.0918,0.83398 2.06054,-0.91016 0.79688,-2 v -5.82031 l -0.87109,-2.07812 -2.0918,-0.83203 z m 0,17.46289 -0.79687,2.00195 v 5.82032 l 0.87109,2.07617 2.0918,0.83398 2.06054,-0.91015 0.79688,-2 v -5.82032 l -0.87109,-2.07812 -2.0918,-0.83203 z m 0,17.46289 -0.79687,2.00195 v 5.82032 l 0.87109,2.07617 2.0918,0.83398 2.06054,-0.91015 0.79688,-2 v -5.82032 l -0.87109,-2.07812 -2.0918,-0.83203 z m 0,17.46484 -0.79687,2 v 5.82032 l 0.87109,2.07812 2.0918,0.83203 2.06054,-0.9082 0.79688,-2.00195 v -5.82032 l -0.87109,-2.07617 -2.0918,-0.83398 z m 0,17.4629 -0.79687,2 v 5.82031 l 0.87109,2.07812 2.0918,0.83203 2.06054,-0.9082 0.79688,-2.00195 v -5.82031 l -0.87109,-2.07618 -2.0918,-0.83398 z m 0,17.46289 -0.79687,2 v 5.82031 l 0.87109,2.07812 2.0918,0.83203 2.06054,-0.9082 0.79688,-2.00195 v -5.82031 l -0.87109,-2.07618 -2.0918,-0.83398 z m 0,17.46289 -0.79687,2 v 5.82031 l 0.87109,2.07812 2.0918,0.83203 2.06054,-0.9082 0.79688,-2.00195 v -5.82031 l -0.87109,-2.07618 -2.0918,-0.83398 z m 0,17.46289 -0.79687,2 v 5.82031 l 0.87109,2.07812 2.0918,0.83204 2.06054,-0.90821 0.79688,-2.00195 v -5.82031 l -0.87109,-2.07617 -2.0918,-0.83399 z m 0,17.46289 -0.79687,2 v 5.82031 l 0.87109,2.07813 2.0918,0.83203 2.06054,-0.90821 0.79688,-2.00195 v -5.82031 l -0.87109,-2.07617 -2.0918,-0.83399 z m 0,17.46289 -0.79687,2 v 5.82226 l 0.87109,2.07618 2.0918,0.83203 2.06054,-0.90821 0.79688,-2 v -5.82226 l -0.87109,-2.07617 -2.0918,-0.83399 z m 0,17.46289 -0.79687,2 v 5.82226 l 0.87109,2.07618 2.0918,0.83398 2.06054,-0.91016 0.79688,-2 v -5.82226 l -0.87109,-2.07617 -2.0918,-0.83399 z m 0,17.46289 -0.79687,2 v 5.82227 l 0.87109,2.07617 2.0918,0.83398 2.06054,-0.91015 0.79688,-2 v -5.82227 l -0.87109,-2.07617 -2.0918,-0.83399 z m 0,17.46291 -0.79687,2 v 5.8223 l 0.87109,2.0761 2.0918,0.834 2.06054,-0.9101 0.79688,-2 v -5.8223 l -0.87109,-2.0762 -2.0918,-0.834 z m 0,17.4629 -0.79687,2 v 5.8223 l 0.87109,2.0761 2.0918,0.834 2.06054,-0.9101 0.79688,-2 v -5.8223 l -0.87109,-2.0762 -2.0918,-0.834 z m 0,17.4629 -0.79687,2 v 5.8222 l 0.87109,2.0762 2.0918,0.834 2.06054,-0.9102 0.79688,-2 v -5.8222 l -0.87109,-2.0762 -2.0918,-0.832 z" style="color:#000000;font-style:normal;font-variant:normal;font-weight:normal;font-stretch:normal;font-size:medium;line-height:normal;font-family:sans-serif;font-variant-ligatures:normal;font-variant-position:normal;font-variant-caps:normal;font-variant-numeric:normal;font-variant-alternates:normal;font-feature-settings:normal;text-indent:0;text-align:start;text-decoration:none;text-decoration-line:none;text-decoration-style:solid;text-decoration-color:#000000;letter-spacing:normal;word-spacing:normal;text-transform:none;writing-mode:lr-tb;direction:ltr;text-orientation:mixed;dominant-baseline:auto;baseline-shift:baseline;text-anchor:start;white-space:normal;shape-padding:0;clip-rule:nonzero;display:inline;overflow:visible;visibility:visible;opacity:1;isolation:auto;mix-blend-mode:normal;color-interpolation:sRGB;color-interpolation-filters:linearRGB;solid-color:#000000;solid-opacity:1;vector-effect:none;fill:#000000;fill-opacity:1;fill-rule:nonzero;stroke:none;stroke-width:5.8210001;stroke-linecap:round;stroke-linejoin:miter;stroke-miterlimit:4;stroke-dasharray:5.821, 11.642;stroke-dashoffset:0;stroke-opacity:1;color-rendering:auto;image-rendering:auto;shape-rendering:auto;text-rendering:auto;enable-background:accumulate" />
  <g transform="matrix(0.93504191,0,0,0.93504191,-120.90106,-83.61084)" id="g3112" />
  <g transform="translate(0,203.29493)" id="g930">
    <text id="text2884" y="708.21259" x="319.88443" style="font-style:normal;font-variant:normal;font-weight:normal;font-stretch:normal;font-size:30px;font-family:'Bebas Neue';-inkscape-font-specification:'Bebas Neue';fill:#666666;fill-opacity:1;stroke:none" xml:space="preserve"><tspan y="708.21259" x="319.88443" id="tspan2886">ZAINTERESOWANIA/Hobby:</tspan></text>
    <flowRoot xml:space="preserve" id="flowRoot3831" style="font-style:normal;font-variant:normal;font-weight:500;font-stretch:normal;font-size:12.5272px;line-height:1.5;font-family:Bodonitown;-inkscape-font-specification:'Bodonitown Medium';fill:#000000;fill-opacity:1;stroke:none" transform="matrix(0.82105277,0,0,0.82105277,134.28761,483.4865)"><flowRegion id="flowRegion3833" style="line-height:1.5"><rect style="font-style:normal;font-variant:normal;font-weight:500;font-stretch:normal;font-size:12.5271616px;line-height:1.5;font-family:Bodonitown;-inkscape-font-specification:'Bodonitown Medium'" id="rect3835" width="291.90244" height="119.38134" x="392.23526" y="295.07626" /></flowRegion><flowPara style="font-style:normal;font-variant:normal;font-weight:500;font-stretch:normal;font-size:12.5272px;line-height:1.5;font-family:Bodonitown;-inkscape-font-specification:'Bodonitown Medium'" id="flowPara3256">Programowanie, Grafika komputerowa, Projektowanie Logo i Logotypów, Matematyka, Fotografia, RPG, Komiksy, Manga, Anime, Fantastyka, Cyberpunk, Edycja Wikipedii, Odpowiadanie na pytania na StackOverflow (głównie JavaScript)</flowPara></flowRoot>
  </g>
  <g transform="translate(0,-255.82183)" id="g3416">
    <text xml:space="preserve" style="font-style:normal;font-variant:normal;font-weight:normal;font-stretch:normal;font-size:30px;font-family:'Bebas Neue';-inkscape-font-specification:'Bebas Neue';fill:#666666;fill-opacity:1;stroke:none" x="319.88446" y="882.84314" id="text2880"><tspan id="tspan2882" x="319.88446" y="882.84314">Projekty Open Source:</tspan></text>
    <g id="g3003" transform="matrix(0.93504191,0,0,0.93504191,32.41659,55.044617)">
      <flowRoot xml:space="preserve" id="flowRoot3823" style="font-style:normal;font-variant:normal;font-weight:500;font-stretch:normal;font-size:12.5272px;line-height:1.5;font-family:Bodonitown;-inkscape-font-specification:'Bodonitown Medium';fill:#000000;fill-opacity:1;stroke:none" transform="matrix(0.87809195,0,0,0.87809195,109.03609,644.8398)"><flowRegion style="line-height:1.5" id="flowRegion3825"><rect style="font-style:normal;font-variant:normal;font-weight:500;font-stretch:normal;font-size:12.5271616px;line-height:1.5;font-family:Bodonitown;-inkscape-font-specification:'Bodonitown Medium'" id="rect3827" width="329.04099" height="160.67888" x="392.23526" y="295.07626" /></flowRegion><flowPara id="flowPara1095" style="font-style:normal;font-variant:normal;font-weight:500;font-stretch:normal;font-size:12.5272px;line-height:1.5;font-family:Bodonitown;-inkscape-font-specification:'Bodonitown Medium'">jQuery Terminal, LIPS (interpreter języka lisp w JavaScript), jQuery Filebrowser, AngularJS Piechart, GIT Web Terminal,</flowPara><flowPara id="flowPara1101" style="font-style:normal;font-variant:normal;font-weight:500;font-stretch:normal;font-size:12.5272px;line-height:1.5;font-family:Bodonitown;-inkscape-font-specification:'Bodonitown Medium'">Sysend.js (biblioteka do wysyłania wiadomości do innych obien i zakładek), Yet Another Php Proxy, Leash (aplikacja dająca dostęp do powłoki systemowej - shell), favloader (biblioteka do animacji favikonki), Clarity (ikony svg dla GTK+ pod Linuxa), GGTips (pakiet R do tworzenia tooltipów na wykresach, współautor części front-end'owej)</flowPara></flowRoot>
    </g>
  </g>
  <g transform="translate(0,-650.97947)" id="g3223" />
  <g id="g919" transform="translate(0,-56.781768)">
    <text id="text907" y="882.84314" x="319.88446" style="font-style:normal;font-variant:normal;font-weight:normal;font-stretch:normal;font-size:30px;font-family:'Bebas Neue';-inkscape-font-specification:'Bebas Neue';fill:#666666;fill-opacity:1;stroke:none" xml:space="preserve"><tspan y="882.84314" x="319.88446" id="tspan905">ZNAJOMOŚĆ JĘZYKÓW:</tspan></text>
    <g transform="matrix(0.93504191,0,0,0.93504191,32.41659,55.044617)" id="g917">
      <flowRoot transform="matrix(0.87809195,0,0,0.87809195,109.03609,644.8398)" style="font-style:normal;font-variant:normal;font-weight:500;font-stretch:normal;font-size:12.5272px;font-family:Bodonitown;-inkscape-font-specification:'Bodonitown Medium';fill:#000000;fill-opacity:1;stroke:none" id="flowRoot915" xml:space="preserve"><flowRegion id="flowRegion911"><rect y="295.07626" x="392.23526" height="85.437393" width="290.63779" id="rect909" style="font-style:normal;font-variant:normal;font-weight:500;font-stretch:normal;font-size:12.5271616px;font-family:Bodonitown;-inkscape-font-specification:'Bodonitown Medium'" /></flowRegion><flowPara style="font-style:normal;font-variant:normal;font-weight:500;font-stretch:normal;font-size:12.5272px;font-family:Bodonitown;-inkscape-font-specification:'Bodonitown Medium'" id="flowPara913">Angielski średnio zaawansowany</flowPara></flowRoot>
    </g>
  </g>
  <flowRoot transform="matrix(0.9589772,0,0,0.9589772,243.92614,164.73131)" style="font-style:normal;font-variant:normal;font-weight:500;font-stretch:normal;font-size:9.73259px;line-height:125%;font-family:Bodonitown;-inkscape-font-specification:'Bodonitown Medium';text-align:start;letter-spacing:0px;word-spacing:0px;writing-mode:lr-tb;text-anchor:start;fill:#666666;fill-opacity:1;stroke:none" id="flowRoot3137-3" xml:space="preserve"><flowRegion style="font-size:9.73259px;fill:#666666" id="flowRegion3139-6"><rect style="font-style:normal;font-variant:normal;font-weight:500;font-stretch:normal;font-size:9.73259163px;font-family:Bodonitown;-inkscape-font-specification:'Bodonitown Medium';fill:#666666" y="900.00262" x="64.89389" height="35.30426" width="490.78653" id="rect3141-7" /></flowRegion><flowPara id="flowPara915">Created using Inkscape; (C) 2011-2020 Jakub T. Jankiewicz; CC-BY-SA 3.0; source: https://github.com/jcubic/cv</flowPara></flowRoot>
  <g id="g1105">
    <text xml:space="preserve" style="font-style:normal;font-variant:normal;font-weight:normal;font-stretch:normal;font-size:30px;font-family:'Bebas Neue';-inkscape-font-specification:'Bebas Neue';fill:#666666;fill-opacity:1;stroke:none" x="319.43564" y="70.482079" id="text2888"><tspan id="tspan2890" x="319.43564" y="70.482079">Kursy:</tspan></text>
    <g id="g1036" transform="translate(0,1.7349648)">
      <flowRoot transform="matrix(0.82105277,0,0,0.82105277,134.36991,-149.54777)" style="font-style:normal;font-variant:normal;font-weight:500;font-stretch:normal;font-size:12.5272px;line-height:1.6;font-family:Bodonitown;-inkscape-font-specification:'Bodonitown Medium';fill:#000000;fill-opacity:1;stroke:none" id="flowRoot3783" xml:space="preserve"><flowRegion id="flowRegion3785" style="line-height:1.6"><rect style="font-style:normal;font-variant:normal;font-weight:500;font-stretch:normal;font-size:12.5271616px;line-height:1.60000002;font-family:Bodonitown;-inkscape-font-specification:'Bodonitown Medium'" y="295.07626" x="392.23526" height="105.45516" width="290.63779" id="rect3787" /></flowRegion><flowPara id="flowPara3528" style="font-style:normal;font-variant:normal;font-weight:500;font-stretch:normal;font-size:12.5272px;line-height:1.6;font-family:Bodonitown;-inkscape-font-specification:'Bodonitown Medium'">Web Hacking: Become a Professional Web Pentester</flowPara><flowPara style="font-style:normal;font-variant:normal;font-weight:500;font-stretch:normal;font-size:12.5272px;line-height:1.6;font-family:Bodonitown;-inkscape-font-specification:'Bodonitown Medium'" id="flowPara1156">Hack Yourself First: How to go on the Cyber-Offense</flowPara><flowPara style="font-style:normal;font-variant:normal;font-weight:500;font-stretch:normal;font-size:12.5272px;line-height:1.6;font-family:Bodonitown;-inkscape-font-specification:'Bodonitown Medium'" id="flowPara1158">Ataki na Strony Internetowe: Praktyczny Pentesting</flowPara><flowPara style="font-style:normal;font-variant:normal;font-weight:500;font-stretch:normal;font-size:12.5272px;line-height:1.6;font-family:Bodonitown;-inkscape-font-specification:'Bodonitown Medium'" id="flowPara1160">Hacking Web Applications and Penetration Testing: Fast Start</flowPara></flowRoot>
      <text id="text3779" y="110.8774" x="439.01544" style="font-style:normal;font-variant:normal;font-weight:normal;font-stretch:normal;font-size:22.441px;font-family:'Bebas Neue';-inkscape-font-specification:'Bebas Neue';text-align:end;text-anchor:end;fill:#0b7af9;fill-opacity:1;stroke:none;stroke-width:0.935042" xml:space="preserve"><tspan id="tspan3957" style="font-style:normal;font-variant:normal;font-weight:normal;font-stretch:normal;font-size:22.441px;font-family:'Bebas Neue';-inkscape-font-specification:'Bebas Neue';text-align:end;text-anchor:end;fill:#0b7af9;fill-opacity:1;stroke-width:0.935042" y="110.8774" x="439.01544">Bezpieczeństwo</tspan></text>
      <text id="text4016" y="136.31934" x="545.92792" style="font-style:normal;font-variant:normal;font-weight:normal;font-stretch:normal;font-size:22.441px;font-family:'Bebas Neue';-inkscape-font-specification:'Bebas Neue';text-align:end;text-anchor:end;fill:#0b7af9;fill-opacity:1;stroke:none;stroke-width:0.935042" xml:space="preserve"><tspan y="136.31934" x="438.63431" id="tspan4018" style="text-align:end;text-anchor:end;stroke-width:0.935042">Aplikacji www</tspan></text>
      <flowRoot xml:space="preserve" id="flowRoot901" style="font-style:normal;font-variant:normal;font-weight:500;font-stretch:normal;font-size:12.5272px;font-family:Bodonitown;-inkscape-font-specification:'Bodonitown Medium';fill:#000000;fill-opacity:1;stroke:none" transform="matrix(0.82105277,0,0,0.82105277,134.36991,-131.4174)"><flowRegion id="flowRegion897"><rect id="rect895" width="290.63779" height="72.868973" x="392.23526" y="295.07626" style="font-style:normal;font-variant:normal;font-weight:500;font-stretch:normal;font-size:12.5271616px;font-family:Bodonitown;-inkscape-font-specification:'Bodonitown Medium'" /></flowRegion><flowPara style="font-style:normal;font-variant:normal;font-weight:500;font-stretch:normal;font-size:12.5272px;font-family:Bodonitown;-inkscape-font-specification:'Bodonitown Medium'" id="flowPara899" /></flowRoot>
      <flowRoot transform="matrix(0.82105277,0,0,0.82105277,134.36991,-113.28703)" style="font-style:normal;font-variant:normal;font-weight:500;font-stretch:normal;font-size:12.5272px;font-family:Bodonitown;-inkscape-font-specification:'Bodonitown Medium';fill:#000000;fill-opacity:1;stroke:none" id="flowRoot902" xml:space="preserve"><flowRegion id="flowRegion898"><rect style="font-style:normal;font-variant:normal;font-weight:500;font-stretch:normal;font-size:12.5271616px;font-family:Bodonitown;-inkscape-font-specification:'Bodonitown Medium'" y="295.07626" x="392.23526" height="72.868973" width="290.63779" id="rect896" /></flowRegion><flowPara id="flowPara900" style="font-style:normal;font-variant:normal;font-weight:500;font-stretch:normal;font-size:12.5272px;font-family:Bodonitown;-inkscape-font-specification:'Bodonitown Medium'" /></flowRoot>
      <flowRoot xml:space="preserve" id="flowRoot910" style="font-style:normal;font-variant:normal;font-weight:500;font-stretch:normal;font-size:12.5272px;font-family:Bodonitown;-inkscape-font-specification:'Bodonitown Medium';fill:#000000;fill-opacity:1;stroke:none" transform="matrix(0.82105277,0,0,0.82105277,134.36991,-95.156679)"><flowRegion id="flowRegion906"><rect id="rect904" width="290.63779" height="39.746246" x="392.23526" y="295.07626" style="font-style:normal;font-variant:normal;font-weight:500;font-stretch:normal;font-size:12.5271616px;font-family:Bodonitown;-inkscape-font-specification:'Bodonitown Medium'" /></flowRegion><flowPara style="font-style:normal;font-variant:normal;font-weight:500;font-stretch:normal;font-size:12.5272px;font-family:Bodonitown;-inkscape-font-specification:'Bodonitown Medium'" id="flowPara908" /></flowRoot>
    </g>
    <g id="g1014" transform="translate(0,87.531735)">
      <text xml:space="preserve" style="font-style:normal;font-variant:normal;font-weight:normal;font-stretch:normal;font-size:22.441px;font-family:'Bebas Neue';-inkscape-font-specification:'Bebas Neue';text-align:end;text-anchor:end;fill:#0b7af9;fill-opacity:1;stroke:none;stroke-width:0.935042" x="439.01544" y="204.97192" id="text1144"><tspan x="439.01544" y="204.97192" style="font-style:normal;font-variant:normal;font-weight:normal;font-stretch:normal;font-size:22.441px;font-family:'Bebas Neue';-inkscape-font-specification:'Bebas Neue';text-align:end;text-anchor:end;fill:#0b7af9;fill-opacity:1;stroke-width:0.935042" id="tspan1142">Frameworki</tspan></text>
      <text xml:space="preserve" style="font-style:normal;font-variant:normal;font-weight:normal;font-stretch:normal;font-size:22.441px;font-family:'Bebas Neue';-inkscape-font-specification:'Bebas Neue';text-align:end;text-anchor:end;fill:#0b7af9;fill-opacity:1;stroke:none;stroke-width:0.935042" x="516.62451" y="230.41386" id="text1148"><tspan id="tspan1146" x="438.34048" y="230.41386" style="text-align:end;text-anchor:end;stroke-width:0.935042">JavaScript</tspan></text>
      <flowRoot xml:space="preserve" id="flowRoot1140" style="font-style:normal;font-variant:normal;font-weight:500;font-stretch:normal;font-size:12.5272px;line-height:1.6;font-family:Bodonitown;-inkscape-font-specification:'Bodonitown Medium';fill:#000000;fill-opacity:1;stroke:none" transform="matrix(0.82105277,0,0,0.82105277,134.36991,-55.453149)"><flowRegion id="flowRegion1136" style="line-height:1.6"><rect id="rect1134" width="290.63779" height="119.03274" x="392.23526" y="295.07626" style="font-style:normal;font-variant:normal;font-weight:500;font-stretch:normal;font-size:12.5271616px;line-height:1.60000002;font-family:Bodonitown;-inkscape-font-specification:'Bodonitown Medium'" /></flowRegion><flowPara style="font-style:normal;font-variant:normal;font-weight:500;font-stretch:normal;font-size:12.5272px;line-height:1.6;font-family:Bodonitown;-inkscape-font-specification:'Bodonitown Medium'" id="flowPara1138">The Beginner’s Guide to ReactJS</flowPara><flowPara style="font-style:normal;font-variant:normal;font-weight:500;font-stretch:normal;font-size:12.5272px;line-height:1.6;font-family:Bodonitown;-inkscape-font-specification:'Bodonitown Medium'" id="flowPara1150">Advanced React Component Patterns</flowPara><flowPara style="font-style:normal;font-variant:normal;font-weight:500;font-stretch:normal;font-size:12.5272px;line-height:1.6;font-family:Bodonitown;-inkscape-font-specification:'Bodonitown Medium'" id="flowPara1152">Master Electron: Desktop Apps using HTML, JavaScript &amp; CSS</flowPara><flowPara style="font-style:normal;font-variant:normal;font-weight:500;font-stretch:normal;font-size:12.5272px;line-height:1.6;font-family:Bodonitown;-inkscape-font-specification:'Bodonitown Medium'" id="flowPara965">Understanding TypeScript</flowPara><flowPara style="font-style:normal;font-variant:normal;font-weight:500;font-stretch:normal;font-size:12.5272px;line-height:1.6;font-family:Bodonitown;-inkscape-font-specification:'Bodonitown Medium'" id="flowPara1154">Angular 7 (formerly Angular 2) - The Complete Guide</flowPara></flowRoot>
      <flowRoot transform="matrix(0.82105277,0,0,0.82105277,134.36991,-40.081769)" style="font-style:normal;font-variant:normal;font-weight:500;font-stretch:normal;font-size:12.5272px;font-family:Bodonitown;-inkscape-font-specification:'Bodonitown Medium';fill:#000000;fill-opacity:1;stroke:none" id="flowRoot980" xml:space="preserve"><flowRegion id="flowRegion976"><rect style="font-style:normal;font-variant:normal;font-weight:500;font-stretch:normal;font-size:12.5271616px;font-family:Bodonitown;-inkscape-font-specification:'Bodonitown Medium'" y="295.07626" x="392.23526" height="72.868973" width="290.63779" id="rect974" /></flowRegion><flowPara id="flowPara978" style="font-style:normal;font-variant:normal;font-weight:500;font-stretch:normal;font-size:12.5272px;font-family:Bodonitown;-inkscape-font-specification:'Bodonitown Medium'" /></flowRoot>
      <flowRoot xml:space="preserve" id="flowRoot883" style="font-style:normal;font-variant:normal;font-weight:500;font-stretch:normal;font-size:12.5272px;font-family:Bodonitown;-inkscape-font-specification:'Bodonitown Medium';fill:#000000;fill-opacity:1;stroke:none" transform="matrix(0.82105277,0,0,0.82105277,134.36991,-21.951424)"><flowRegion id="flowRegion879"><rect id="rect877" width="290.63779" height="72.868973" x="392.23526" y="295.07626" style="font-style:normal;font-variant:normal;font-weight:500;font-stretch:normal;font-size:12.5271616px;font-family:Bodonitown;-inkscape-font-specification:'Bodonitown Medium'" /></flowRegion><flowPara style="font-style:normal;font-variant:normal;font-weight:500;font-stretch:normal;font-size:12.5272px;font-family:Bodonitown;-inkscape-font-specification:'Bodonitown Medium'" id="flowPara881" /></flowRoot>
    </g>
    <g id="g985" transform="translate(0,127.33833)">
      <text id="text918" y="281.89246" x="439.01544" style="font-style:normal;font-variant:normal;font-weight:normal;font-stretch:normal;font-size:22.441px;font-family:'Bebas Neue';-inkscape-font-specification:'Bebas Neue';text-align:end;text-anchor:end;fill:#0b7af9;fill-opacity:1;stroke:none;stroke-width:0.935042" xml:space="preserve"><tspan id="tspan916" style="font-style:normal;font-variant:normal;font-weight:normal;font-stretch:normal;font-size:22.441px;font-family:'Bebas Neue';-inkscape-font-specification:'Bebas Neue';text-align:end;text-anchor:end;fill:#0b7af9;fill-opacity:1;stroke-width:0.935042" y="281.89246" x="439.01544">CSS</tspan></text>
      <flowRoot transform="matrix(0.82105277,0,0,0.82105277,134.36991,21.467391)" style="font-style:normal;font-variant:normal;font-weight:500;font-stretch:normal;font-size:12.5272px;font-family:Bodonitown;-inkscape-font-specification:'Bodonitown Medium';fill:#000000;fill-opacity:1;stroke:none" id="flowRoot926" xml:space="preserve"><flowRegion id="flowRegion922"><rect style="font-style:normal;font-variant:normal;font-weight:500;font-stretch:normal;font-size:12.5271616px;font-family:Bodonitown;-inkscape-font-specification:'Bodonitown Medium'" y="295.07626" x="392.23526" height="72.868973" width="290.63779" id="rect920" /></flowRegion><flowPara id="flowPara924" style="font-style:normal;font-variant:normal;font-weight:500;font-stretch:normal;font-size:12.5272px;font-family:Bodonitown;-inkscape-font-specification:'Bodonitown Medium'">The Complete Flexbox Tutorial: Learn CSS3 Flexbox in 2018</flowPara><flowPara id="flowPara914" style="font-style:normal;font-variant:normal;font-weight:500;font-stretch:normal;font-size:12.5272px;font-family:Bodonitown;-inkscape-font-specification:'Bodonitown Medium'">Ultimate CSS Grid Course: From Beginner to Advanced</flowPara></flowRoot>
    </g>
    <g id="g996" transform="translate(0,-125.92824)">
      <text xml:space="preserve" style="font-style:normal;font-variant:normal;font-weight:normal;font-stretch:normal;font-size:22.441px;font-family:'Bebas Neue';-inkscape-font-specification:'Bebas Neue';text-align:end;text-anchor:end;fill:#0b7af9;fill-opacity:1;stroke:none;stroke-width:0.935042" x="439.01544" y="336.51721" id="text906"><tspan x="439.01544" y="336.51721" style="font-style:normal;font-variant:normal;font-weight:normal;font-stretch:normal;font-size:22.441px;font-family:'Bebas Neue';-inkscape-font-specification:'Bebas Neue';text-align:end;text-anchor:end;fill:#0b7af9;fill-opacity:1;stroke-width:0.935042" id="tspan904">JavaScript</tspan></text>
      <flowRoot xml:space="preserve" id="flowRoot914" style="font-style:normal;font-variant:normal;font-weight:500;font-stretch:normal;font-size:12.5272px;line-height:1.6;font-family:Bodonitown;-inkscape-font-specification:'Bodonitown Medium';fill:#000000;fill-opacity:1;stroke:none" transform="matrix(0.82105277,0,0,0.82105277,134.36991,74.19319)"><flowRegion style="line-height:1.6" id="flowRegion910"><rect id="rect908" width="290.63779" height="82.712738" x="392.23526" y="295.07626" style="font-style:normal;font-variant:normal;font-weight:500;font-stretch:normal;font-size:12.5271616px;line-height:1.60000002;font-family:Bodonitown;-inkscape-font-specification:'Bodonitown Medium'" /></flowRegion><flowPara style="font-style:normal;font-variant:normal;font-weight:500;font-stretch:normal;font-size:12.5272px;line-height:1.6;font-family:Bodonitown;-inkscape-font-specification:'Bodonitown Medium'" id="flowPara912">Functional-Light JavaScript, v2</flowPara><flowPara id="flowPara987" style="font-style:normal;font-variant:normal;font-weight:500;font-stretch:normal;font-size:12.5272px;line-height:1.6;font-family:Bodonitown;-inkscape-font-specification:'Bodonitown Medium'">Deep JavaScript Foundations</flowPara><flowPara style="font-style:normal;font-variant:normal;font-weight:500;font-stretch:normal;font-size:12.5272px;line-height:1.6;font-family:Bodonitown;-inkscape-font-specification:'Bodonitown Medium'" id="flowPara903">ES6 The Right Parts</flowPara><flowPara id="flowPara916" style="font-style:normal;font-variant:normal;font-weight:500;font-stretch:normal;font-size:12.5272px;line-height:1.6;font-family:Bodonitown;-inkscape-font-specification:'Bodonitown Medium'">Hardcore Functional Programming in JavaScript</flowPara></flowRoot>
    </g>
    <g transform="translate(0,185.59649)" id="g990">
      <text xml:space="preserve" style="font-style:normal;font-variant:normal;font-weight:normal;font-stretch:normal;font-size:22.441px;font-family:'Bebas Neue';-inkscape-font-specification:'Bebas Neue';text-align:end;text-anchor:end;fill:#0b7af9;fill-opacity:1;stroke:none;stroke-width:0.935042" x="439.01544" y="281.89246" id="text978"><tspan x="439.01544" y="281.89246" style="font-style:normal;font-variant:normal;font-weight:normal;font-stretch:normal;font-size:22.441px;font-family:'Bebas Neue';-inkscape-font-specification:'Bebas Neue';text-align:end;text-anchor:end;fill:#0b7af9;fill-opacity:1;stroke-width:0.935042" id="tspan976">Narzędzia</tspan></text>
      <flowRoot xml:space="preserve" id="flowRoot988" style="font-style:normal;font-variant:normal;font-weight:500;font-stretch:normal;font-size:12.5272px;font-family:Bodonitown;-inkscape-font-specification:'Bodonitown Medium';fill:#000000;fill-opacity:1;stroke:none" transform="matrix(0.82105277,0,0,0.82105277,134.36991,21.467391)"><flowRegion id="flowRegion982"><rect id="rect980" width="290.63779" height="72.868973" x="392.23526" y="295.07626" style="font-style:normal;font-variant:normal;font-weight:500;font-stretch:normal;font-size:12.5271616px;font-family:Bodonitown;-inkscape-font-specification:'Bodonitown Medium'" /></flowRegion><flowPara style="font-style:normal;font-variant:normal;font-weight:500;font-stretch:normal;font-size:12.5272px;font-family:Bodonitown;-inkscape-font-specification:'Bodonitown Medium'" id="flowPara984">Git Essential Training</flowPara><flowPara style="font-style:normal;font-variant:normal;font-weight:500;font-stretch:normal;font-size:12.5272px;font-family:Bodonitown;-inkscape-font-specification:'Bodonitown Medium'" id="flowPara986">Learning Docker</flowPara><flowPara id="flowPara918" style="font-style:normal;font-variant:normal;font-weight:500;font-stretch:normal;font-size:12.5272px;font-family:Bodonitown;-inkscape-font-specification:'Bodonitown Medium'">Docker for Developers</flowPara><flowPara id="flowPara917" style="font-style:normal;font-variant:normal;font-weight:500;font-stretch:normal;font-size:12.5272px;font-family:Bodonitown;-inkscape-font-specification:'Bodonitown Medium'">Learning Ansible</flowPara></flowRoot>
    </g>
    <g id="g1012" transform="translate(0,256.7115)">
      <text id="text996" y="281.89246" x="439.01544" style="font-style:normal;font-variant:normal;font-weight:normal;font-stretch:normal;font-size:22.441px;font-family:'Bebas Neue';-inkscape-font-specification:'Bebas Neue';text-align:end;text-anchor:end;fill:#0b7af9;fill-opacity:1;stroke:none;stroke-width:0.935042" xml:space="preserve"><tspan y="281.89246" x="439.01544" id="tspan949" sodipodi:role="line">Umiejętności</tspan><tspan id="tspan954" y="309.9437" x="439.01544" sodipodi:role="line">Miękkie</tspan></text>
      <flowRoot transform="matrix(0.82105277,0,0,0.82105277,134.36991,21.467391)" style="font-style:normal;font-variant:normal;font-weight:500;font-stretch:normal;font-size:12.5272px;font-family:Bodonitown;-inkscape-font-specification:'Bodonitown Medium';fill:#000000;fill-opacity:1;stroke:none" id="flowRoot1010" xml:space="preserve"><flowRegion id="flowRegion1000"><rect style="font-style:normal;font-variant:normal;font-weight:500;font-stretch:normal;font-size:12.5272px;font-family:Bodonitown;-inkscape-font-specification:'Bodonitown Medium';stroke-width:1" y="295.07626" x="392.23526" height="72.868973" width="290.63779" id="rect998" /></flowRegion><flowPara style="font-style:normal;font-variant:normal;font-weight:500;font-stretch:normal;font-size:12.5272px;font-family:Bodonitown;-inkscape-font-specification:'Bodonitown Medium'" id="flowPara1008">Akademia Mentora: mentoring i programy mentoringowe w praktyce</flowPara><flowPara id="flowPara944" style="font-style:normal;font-variant:normal;font-weight:500;font-stretch:normal;font-size:12.5272px;font-family:Bodonitown;-inkscape-font-specification:'Bodonitown Medium'">Inteligencja Relacyjna - Poczucie wartości | Asertywność | Wywieranie wpływu</flowPara></flowRoot>
    </g>
  </g>
</svg>
