<?xml version="1.0" encoding="UTF-8" standalone="no"?>
<svg inkscape:version="1.3.2 (091e20ef0f, 2023-11-25)" sodipodi:docname="jakub-jankiewicz-cv-page3.svg" width="744.09448819" height="1052.3622047" id="svg2" version="1.1" xmlns:inkscape="http://www.inkscape.org/namespaces/inkscape" xmlns:sodipodi="http://sodipodi.sourceforge.net/DTD/sodipodi-0.dtd" xmlns="http://www.w3.org/2000/svg" xmlns:svg="http://www.w3.org/2000/svg" xmlns:rdf="http://www.w3.org/1999/02/22-rdf-syntax-ns#" xmlns:cc="http://creativecommons.org/ns#" xmlns:dc="http://purl.org/dc/elements/1.1/">
  <sodipodi:namedview inkscape:document-rotation="0" inkscape:current-layer="svg2" inkscape:window-maximized="0" inkscape:window-y="37" inkscape:window-x="46" inkscape:cy="473.7538" inkscape:cx="445.37587" inkscape:zoom="0.6342957" showgrid="false" id="namedview194" inkscape:window-height="905" inkscape:window-width="1779" inkscape:pageshadow="2" inkscape:pageopacity="0" guidetolerance="10" gridtolerance="10" objecttolerance="10" borderopacity="1" bordercolor="#666666" pagecolor="#ffffff" inkscape:pagecheckerboard="0" inkscape:showpageshadow="2" inkscape:deskcolor="#d1d1d1" />
  <defs id="defs4">
    <rect x="769.85661" y="520.39128" width="268.78702" height="128.10707" id="rect37309" />
    <rect x="767.4657" y="511.44064" width="121.14935" height="120.36122" id="rect34097" />
    <rect x="794.89853" y="402.45342" width="185.33232" height="156.63889" id="rect28571" />
    <rect x="769.85661" y="520.39128" width="258.22914" height="56.64607" id="rect87174" />
    <rect x="769.85661" y="520.39128" width="267.22823" height="70.948357" id="rect96908" />
    <rect x="769.85661" y="520.39128" width="269.16308" height="62.235025" id="rect14001" />
  </defs>
  <metadata id="metadata7">
    <rdf:RDF>
      <cc:Work rdf:about="">
        <dc:format>image/svg+xml</dc:format>
        <dc:type rdf:resource="http://purl.org/dc/dcmitype/StillImage" />
      </cc:Work>
    </rdf:RDF>
  </metadata>
  <rect y="1.1147927" x="0" height="1052.3622" width="744.09448" id="rect4186" style="color:#000000;display:inline;overflow:visible;visibility:visible;fill:#ffffff;fill-opacity:1;fill-rule:nonzero;stroke:none;stroke-width:5.8210001;marker:none;enable-background:accumulate" />
  <path inkscape:connector-curvature="0" id="path3048" clip-path="none" d="m 290.78906,6.1117569 -0.79687,2 v 5.8222661 l 0.87109,2.076171 2.0918,0.832032 2.06054,-0.908203 0.79688,-2 V 8.1117569 l -0.87109,-2.0761719 -2.0918,-0.8339843 z m 0,17.4628911 -0.79687,2 v 5.822265 l 0.87109,2.076172 2.0918,0.833985 2.06054,-0.910157 0.79688,-2 v -5.822265 l -0.87109,-2.076172 -2.0918,-0.833985 z m 0,17.46289 -0.79687,2 v 5.822266 l 0.87109,2.076172 2.0918,0.833984 2.06054,-0.910156 0.79688,-2 v -5.822266 l -0.87109,-2.076172 -2.0918,-0.833984 z m 0,17.462891 -0.79687,2 v 5.822265 l 0.87109,2.076172 2.0918,0.833985 2.06054,-0.910157 0.79688,-2 v -5.822265 l -0.87109,-2.076172 -2.0918,-0.833984 z m 0,17.462891 -0.79687,2 v 5.822265 l 0.87109,2.076172 2.0918,0.833984 2.06054,-0.910156 0.79688,-2 V 77.96332 l -0.87109,-2.076172 -2.0918,-0.833985 z m 0,17.46289 -0.79687,2 v 5.82226 l 0.87109,2.07618 2.0918,0.83398 2.06054,-0.91016 0.79688,-2 v -5.82226 l -0.87109,-2.076172 -2.0918,-0.832031 z m 0,17.46289 -0.79687,2.00195 v 5.82031 l 0.87109,2.07618 2.0918,0.83398 2.06054,-0.91016 0.79688,-2 v -5.82031 l -0.87109,-2.07812 -2.0918,-0.83203 z m 0,17.46289 -0.79687,2.00195 v 5.82032 l 0.87109,2.07617 2.0918,0.83398 2.06054,-0.91015 0.79688,-2 v -5.82032 l -0.87109,-2.07812 -2.0918,-0.83203 z m 0,17.46289 -0.79687,2.00195 v 5.82032 l 0.87109,2.07617 2.0918,0.83398 2.06054,-0.91015 0.79688,-2 v -5.82032 l -0.87109,-2.07812 -2.0918,-0.83203 z m 0,17.46289 -0.79687,2.00195 v 5.82032 l 0.87109,2.07617 2.0918,0.83398 2.06054,-0.91015 0.79688,-2 v -5.82032 l -0.87109,-2.07812 -2.0918,-0.83203 z m 0,17.46289 -0.79687,2.00195 v 5.82032 l 0.87109,2.07617 2.0918,0.83398 2.06054,-0.91015 0.79688,-2 v -5.82032 l -0.87109,-2.07812 -2.0918,-0.83203 z m 0,17.46289 -0.79687,2.00195 v 5.82032 l 0.87109,2.07617 2.0918,0.83398 2.06054,-0.91015 0.79688,-2 v -5.82032 l -0.87109,-2.07812 -2.0918,-0.83203 z m 0,17.46485 -0.79687,2 v 5.82031 l 0.87109,2.07812 2.0918,0.83203 2.06054,-0.9082 0.79688,-2.00195 v -5.82031 l -0.87109,-2.07618 -2.0918,-0.83398 z m 0,17.46289 -0.79687,2 v 5.82031 l 0.87109,2.07812 2.0918,0.83204 2.06054,-0.90821 0.79688,-2.00195 v -5.82031 l -0.87109,-2.07618 -2.0918,-0.83398 z m 0,17.46289 -0.79687,2 v 5.82031 l 0.87109,2.07812 2.0918,0.83204 2.06054,-0.90821 0.79688,-2.00195 v -5.82031 l -0.87109,-2.07618 -2.0918,-0.83398 z m 0,17.46289 -0.79687,2 v 5.82031 l 0.87109,2.07812 2.0918,0.83204 2.06054,-0.90821 0.79688,-2.00195 v -5.82031 l -0.87109,-2.07617 -2.0918,-0.83399 z m 0,17.46289 -0.79687,2 v 5.82031 l 0.87109,2.07813 2.0918,0.83203 2.06054,-0.90821 0.79688,-2.00195 v -5.82031 l -0.87109,-2.07617 -2.0918,-0.83399 z m 0,17.46289 -0.79687,2 v 5.82031 l 0.87109,2.07813 2.0918,0.83203 2.06054,-0.90821 0.79688,-2.00195 v -5.82031 l -0.87109,-2.07617 -2.0918,-0.83399 z m 0,17.46289 -0.79687,2 v 5.82226 l 0.87109,2.07618 2.0918,0.83203 2.06054,-0.90821 0.79688,-2 v -5.82226 l -0.87109,-2.07617 -2.0918,-0.83399 z m 0,17.46289 -0.79687,2 v 5.82227 l 0.87109,2.07617 2.0918,0.83398 2.06054,-0.91015 0.79688,-2 v -5.82227 l -0.87109,-2.07617 -2.0918,-0.83399 z m 0,17.46289 -0.79687,2 v 5.82227 l 0.87109,2.07617 2.0918,0.83398 2.06054,-0.91015 0.79688,-2 v -5.82227 l -0.87109,-2.07617 -2.0918,-0.83399 z m 0,17.46289 -0.79687,2 v 5.82227 l 0.87109,2.07617 2.0918,0.83398 2.06054,-0.91015 0.79688,-2 v -5.82227 l -0.87109,-2.07617 -2.0918,-0.83398 z m 0,17.46289 -0.79687,2 v 5.82227 l 0.87109,2.07617 2.0918,0.83398 2.06054,-0.91015 0.79688,-2 v -5.82227 l -0.87109,-2.07617 -2.0918,-0.83398 z m 0,17.46289 -0.79687,2 v 5.82227 l 0.87109,2.07617 2.0918,0.83398 2.06054,-0.91015 0.79688,-2 v -5.82227 l -0.87109,-2.07617 -2.0918,-0.83203 z m 0,17.46289 -0.79687,2.00196 v 5.82031 l 0.87109,2.07617 2.0918,0.83398 2.06054,-0.91015 0.79688,-2 v -5.82031 l -0.87109,-2.07813 -2.0918,-0.83203 z m 0,17.46289 -0.79687,2.00196 v 5.82031 l 0.87109,2.07617 2.0918,0.83399 2.06054,-0.91016 0.79688,-2 v -5.82031 l -0.87109,-2.07813 -2.0918,-0.83203 z m 0,17.46289 -0.79687,2.00196 v 5.82031 l 0.87109,2.07617 2.0918,0.83399 2.06054,-0.91016 0.79688,-2 v -5.82031 l -0.87109,-2.07813 -2.0918,-0.83203 z m 0,17.4629 -0.79687,2.00195 v 5.82031 l 0.87109,2.07617 2.0918,0.83399 2.06054,-0.91016 0.79688,-2 v -5.82031 l -0.87109,-2.07813 -2.0918,-0.83203 z m 0,17.46289 -0.79687,2.00195 v 5.82031 l 0.87109,2.07617 2.0918,0.83399 2.06054,-0.91016 0.79688,-2 v -5.82031 l -0.87109,-2.07813 -2.0918,-0.83203 z m 0,17.46289 -0.79687,2.00195 v 5.82031 l 0.87109,2.07617 2.0918,0.83399 2.06054,-0.91016 0.79688,-2 v -5.82031 l -0.87109,-2.07813 -2.0918,-0.83203 z m 0,17.46484 -0.79687,2 v 5.82031 l 0.87109,2.07813 2.0918,0.83203 2.06054,-0.9082 0.79688,-2.00196 v -5.82031 l -0.87109,-2.07617 -2.0918,-0.83399 z m 0,17.46289 -0.79687,2 v 5.82031 l 0.87109,2.07813 2.0918,0.83203 2.06054,-0.9082 0.79688,-2.00196 v -5.82031 l -0.87109,-2.07617 -2.0918,-0.83399 z m 0,17.46289 -0.79687,2 v 5.82031 l 0.87109,2.07813 2.0918,0.83203 2.06054,-0.9082 0.79688,-2.00196 v -5.82031 l -0.87109,-2.07617 -2.0918,-0.83399 z m 0,17.46289 -0.79687,2 v 5.82031 l 0.87109,2.07813 2.0918,0.83203 2.06054,-0.9082 0.79688,-2.00196 v -5.82031 l -0.87109,-2.07617 -2.0918,-0.83398 z m 0,17.46289 -0.79687,2 v 5.82032 l 0.87109,2.07812 2.0918,0.83203 2.06054,-0.9082 0.79688,-2.00195 v -5.82032 l -0.87109,-2.07617 -2.0918,-0.83398 z m 0,17.46289 -0.79687,2 v 5.82032 l 0.87109,2.07812 2.0918,0.83203 2.06054,-0.9082 0.79688,-2.00195 v -5.82032 l -0.87109,-2.07617 -2.0918,-0.83398 z m 0,17.46289 -0.79687,2 v 5.82227 l 0.87109,2.07617 2.0918,0.83203 2.06054,-0.9082 0.79688,-2 v -5.82227 l -0.87109,-2.07617 -2.0918,-0.83398 z m 0,17.46289 -0.79687,2 v 5.82227 l 0.87109,2.07617 2.0918,0.83399 2.06054,-0.91016 0.79688,-2 v -5.82227 l -0.87109,-2.07617 -2.0918,-0.83398 z m 0,17.46289 -0.79687,2 v 5.82227 l 0.87109,2.07617 2.0918,0.83399 2.06054,-0.91016 0.79688,-2 v -5.82227 l -0.87109,-2.07617 -2.0918,-0.83398 z m 0,17.4629 -0.79687,2 v 5.82226 l 0.87109,2.07617 2.0918,0.83399 2.06054,-0.91016 0.79688,-2 v -5.82226 l -0.87109,-2.07618 -2.0918,-0.83398 z m 0,17.46289 -0.79687,2 v 5.82226 l 0.87109,2.07617 2.0918,0.83399 2.06054,-0.91016 0.79688,-2 v -5.82226 l -0.87109,-2.07618 -2.0918,-0.83398 z m 0,17.46289 -0.79687,2 v 5.82226 l 0.87109,2.07617 2.0918,0.83399 2.06054,-0.91016 0.79688,-2 v -5.82226 l -0.87109,-2.07618 -2.0918,-0.83203 z m 0,17.46289 -0.79687,2.00195 v 5.82031 l 0.87109,2.07617 2.0918,0.83399 2.06054,-0.91016 0.79688,-2 v -5.82031 l -0.87109,-2.07812 -2.0918,-0.83204 z m 0,17.46289 -0.79687,2.00195 v 5.82031 l 0.87109,2.07618 2.0918,0.83398 2.06054,-0.91016 0.79688,-2 v -5.82031 l -0.87109,-2.07812 -2.0918,-0.83203 z m 0,17.46289 -0.79687,2.00195 v 5.82031 l 0.87109,2.07618 2.0918,0.83398 2.06054,-0.91016 0.79688,-2 v -5.82031 l -0.87109,-2.07812 -2.0918,-0.83203 z m 0,17.46289 -0.79687,2.00195 v 5.82031 l 0.87109,2.07618 2.0918,0.83398 2.06054,-0.91016 0.79688,-2 v -5.82031 l -0.87109,-2.07812 -2.0918,-0.83203 z m 0,17.46289 -0.79687,2.00195 v 5.82032 l 0.87109,2.07617 2.0918,0.83398 2.06054,-0.91015 0.79688,-2 v -5.82032 l -0.87109,-2.07812 -2.0918,-0.83203 z m 0,17.46289 -0.79687,2.00195 v 5.82032 l 0.87109,2.07617 2.0918,0.83398 2.06054,-0.91015 0.79688,-2 v -5.82032 l -0.87109,-2.07812 -2.0918,-0.83203 z m 0,17.46484 -0.79687,2 v 5.82032 l 0.87109,2.07812 2.0918,0.83203 2.06054,-0.9082 0.79688,-2.00195 v -5.82032 l -0.87109,-2.07617 -2.0918,-0.83398 z m 0,17.4629 -0.79687,2 v 5.82031 l 0.87109,2.07812 2.0918,0.83203 2.06054,-0.9082 0.79688,-2.00195 v -5.82031 l -0.87109,-2.07618 -2.0918,-0.83398 z m 0,17.46289 -0.79687,2 v 5.82031 l 0.87109,2.07812 2.0918,0.83203 2.06054,-0.9082 0.79688,-2.00195 v -5.82031 l -0.87109,-2.07618 -2.0918,-0.83398 z m 0,17.46289 -0.79687,2 v 5.82031 l 0.87109,2.07812 2.0918,0.83203 2.06054,-0.9082 0.79688,-2.00195 v -5.82031 l -0.87109,-2.07618 -2.0918,-0.83398 z m 0,17.46289 -0.79687,2 v 5.82031 l 0.87109,2.07812 2.0918,0.83204 2.06054,-0.90821 0.79688,-2.00195 v -5.82031 l -0.87109,-2.07617 -2.0918,-0.83399 z m 0,17.46289 -0.79687,2 v 5.82031 l 0.87109,2.07813 2.0918,0.83203 2.06054,-0.90821 0.79688,-2.00195 v -5.82031 l -0.87109,-2.07617 -2.0918,-0.83399 z m 0,17.46289 -0.79687,2 v 5.82226 l 0.87109,2.07618 2.0918,0.83203 2.06054,-0.90821 0.79688,-2 v -5.82226 l -0.87109,-2.07617 -2.0918,-0.83399 z m 0,17.46289 -0.79687,2 v 5.82226 l 0.87109,2.07618 2.0918,0.83398 2.06054,-0.91016 0.79688,-2 v -5.82226 l -0.87109,-2.07617 -2.0918,-0.83399 z m 0,17.46289 -0.79687,2 v 5.82227 l 0.87109,2.07617 2.0918,0.83398 2.06054,-0.91015 0.79688,-2 v -5.82227 l -0.87109,-2.07617 -2.0918,-0.83399 z m 0,17.46291 -0.79687,2 v 5.8223 l 0.87109,2.0761 2.0918,0.834 2.06054,-0.9101 0.79688,-2 v -5.8223 l -0.87109,-2.0762 -2.0918,-0.834 z m 0,17.4629 -0.79687,2 v 5.8223 l 0.87109,2.0761 2.0918,0.834 2.06054,-0.9101 0.79688,-2 v -5.8223 l -0.87109,-2.0762 -2.0918,-0.834 z m 0,17.4629 -0.79687,2 v 5.8222 l 0.87109,2.0762 2.0918,0.834 2.06054,-0.9102 0.79688,-2 v -5.8222 l -0.87109,-2.0762 -2.0918,-0.832 z" style="color:#000000;font-style:normal;font-variant:normal;font-weight:normal;font-stretch:normal;font-size:medium;line-height:normal;font-family:sans-serif;font-variant-ligatures:normal;font-variant-position:normal;font-variant-caps:normal;font-variant-numeric:normal;font-variant-alternates:normal;font-feature-settings:normal;text-indent:0;text-align:start;text-decoration:none;text-decoration-line:none;text-decoration-style:solid;text-decoration-color:#000000;letter-spacing:normal;word-spacing:normal;text-transform:none;writing-mode:lr-tb;direction:ltr;text-orientation:mixed;dominant-baseline:auto;baseline-shift:baseline;text-anchor:start;white-space:normal;shape-padding:0;clip-rule:nonzero;display:inline;overflow:visible;visibility:visible;opacity:1;isolation:auto;mix-blend-mode:normal;color-interpolation:sRGB;color-interpolation-filters:linearRGB;solid-color:#000000;solid-opacity:1;vector-effect:none;fill:#000000;fill-opacity:1;fill-rule:nonzero;stroke:none;stroke-width:5.8210001;stroke-linecap:round;stroke-linejoin:miter;stroke-miterlimit:4;stroke-dasharray:5.821, 11.642;stroke-dashoffset:0;stroke-opacity:1;color-rendering:auto;image-rendering:auto;shape-rendering:auto;text-rendering:auto;enable-background:accumulate" />
  <g transform="matrix(0.93504191,0,0,0.93504191,-120.90106,-83.61084)" id="g3112" />
  <g transform="translate(0,-32.004107)" id="g930">
    <text id="text2884" y="708.21259" x="319.88443" style="font-style:normal;font-variant:normal;font-weight:normal;font-stretch:normal;font-size:30px;font-family:'Bebas Neue';-inkscape-font-specification:'Bebas Neue';fill:#666666;fill-opacity:1;stroke:none" xml:space="preserve"><tspan y="708.21259" x="319.88443" id="tspan2886">ZAINTERESOWANIA/Hobby:</tspan></text>
    <flowRoot xml:space="preserve" id="flowRoot3831" style="font-style:normal;font-variant:normal;font-weight:500;font-stretch:normal;font-size:12.5272px;line-height:1.5;font-family:Bodonitown;-inkscape-font-specification:'Bodonitown Medium';fill:#000000;fill-opacity:1;stroke:none" transform="matrix(0.82105277,0,0,0.82105277,134.28761,483.4865)"><flowRegion id="flowRegion3833" style="line-height:1.5"><rect style="font-style:normal;font-variant:normal;font-weight:500;font-stretch:normal;font-size:12.5272px;line-height:1.5;font-family:Bodonitown;-inkscape-font-specification:'Bodonitown Medium'" id="rect3835" width="315.63986" height="154.74988" x="392.23526" y="295.07626" /></flowRegion><flowPara style="font-style:normal;font-variant:normal;font-weight:500;font-stretch:normal;font-size:12.5272px;line-height:1.5;font-family:Bodonitown;-inkscape-font-specification:'Bodonitown Medium'" id="flowPara3256">Programowanie, Open Source, Projektowanie Logo i Logotypów, Matematyka, Fotografia, RPG, Komiksy, Manga, Anime, Fantastyka, Cyberpunk, Edycja Wikipedii, Dzielenie się wiedzą poprzez pisanie artykułów technicznych oraz odpowiadanie na pytania programistyczne na StackOverflow i w Social Media (głównie JavaScript), SEO, Cyberbezpieczeństwo, Storytelling, Grywalizacja.</flowPara></flowRoot>
  </g>
  <g transform="translate(0,-650.97947)" id="g3223" />
  <flowRoot transform="matrix(0.9589772,0,0,0.9589772,243.92614,163.22726)" style="font-style:normal;font-variant:normal;font-weight:500;font-stretch:normal;font-size:9.73259px;line-height:125%;font-family:Bodonitown;-inkscape-font-specification:'Bodonitown Medium';text-align:start;letter-spacing:0px;word-spacing:0px;writing-mode:lr-tb;text-anchor:start;fill:#666666;fill-opacity:1;stroke:none" id="flowRoot3137-3" xml:space="preserve"><flowRegion style="font-size:9.73259px;fill:#666666" id="flowRegion3139-6"><rect style="font-style:normal;font-variant:normal;font-weight:500;font-stretch:normal;font-size:9.73259163px;font-family:Bodonitown;-inkscape-font-specification:'Bodonitown Medium';fill:#666666" y="900.00262" x="64.89389" height="35.30426" width="490.78653" id="rect3141-7" /></flowRegion><flowPara id="flowPara2329">Created using Inkscape; (C) 2011-2022 Jakub T. Jankiewicz; CC-BY-SA 3.0; source: https://github.com/jcubic/cv</flowPara></flowRoot>
  <flowRoot xml:space="preserve" id="flowRoot901" style="font-style:normal;font-variant:normal;font-weight:500;font-stretch:normal;font-size:12.5272px;font-family:Bodonitown;-inkscape-font-specification:'Bodonitown Medium';fill:#000000;fill-opacity:1;stroke:none" transform="matrix(0.82105277,0,0,0.82105277,134.36991,-129.68244)"><flowRegion id="flowRegion897"><rect id="rect895" width="290.63779" height="72.868973" x="392.23526" y="295.07626" style="font-style:normal;font-variant:normal;font-weight:500;font-stretch:normal;font-size:12.5271616px;font-family:Bodonitown;-inkscape-font-specification:'Bodonitown Medium'" /></flowRegion><flowPara style="font-style:normal;font-variant:normal;font-weight:500;font-stretch:normal;font-size:12.5272px;font-family:Bodonitown;-inkscape-font-specification:'Bodonitown Medium'" id="flowPara899" /></flowRoot>
  <flowRoot transform="matrix(0.82105277,0,0,0.82105277,134.36991,-111.55207)" style="font-style:normal;font-variant:normal;font-weight:500;font-stretch:normal;font-size:12.5272px;font-family:Bodonitown;-inkscape-font-specification:'Bodonitown Medium';fill:#000000;fill-opacity:1;stroke:none" id="flowRoot902" xml:space="preserve"><flowRegion id="flowRegion898"><rect style="font-style:normal;font-variant:normal;font-weight:500;font-stretch:normal;font-size:12.5271616px;font-family:Bodonitown;-inkscape-font-specification:'Bodonitown Medium'" y="295.07626" x="392.23526" height="72.868973" width="290.63779" id="rect896" /></flowRegion><flowPara id="flowPara900" style="font-style:normal;font-variant:normal;font-weight:500;font-stretch:normal;font-size:12.5272px;font-family:Bodonitown;-inkscape-font-specification:'Bodonitown Medium'" /></flowRoot>
  <flowRoot xml:space="preserve" id="flowRoot910" style="font-style:normal;font-variant:normal;font-weight:500;font-stretch:normal;font-size:12.5272px;font-family:Bodonitown;-inkscape-font-specification:'Bodonitown Medium';fill:#000000;fill-opacity:1;stroke:none" transform="matrix(0.82105277,0,0,0.82105277,134.36991,-93.421714)"><flowRegion id="flowRegion906"><rect id="rect904" width="290.63779" height="39.746246" x="392.23526" y="295.07626" style="font-style:normal;font-variant:normal;font-weight:500;font-stretch:normal;font-size:12.5271616px;font-family:Bodonitown;-inkscape-font-specification:'Bodonitown Medium'" /></flowRegion><flowPara style="font-style:normal;font-variant:normal;font-weight:500;font-stretch:normal;font-size:12.5272px;font-family:Bodonitown;-inkscape-font-specification:'Bodonitown Medium'" id="flowPara908" /></flowRoot>
  <flowRoot transform="matrix(0.82105277,0,0,0.82105277,134.36991,47.449966)" style="font-style:normal;font-variant:normal;font-weight:500;font-stretch:normal;font-size:12.5272px;font-family:Bodonitown;-inkscape-font-specification:'Bodonitown Medium';fill:#000000;fill-opacity:1;stroke:none" id="flowRoot980" xml:space="preserve"><flowRegion id="flowRegion976"><rect style="font-style:normal;font-variant:normal;font-weight:500;font-stretch:normal;font-size:12.5271616px;font-family:Bodonitown;-inkscape-font-specification:'Bodonitown Medium'" y="295.07626" x="392.23526" height="72.868973" width="290.63779" id="rect974" /></flowRegion><flowPara id="flowPara978" style="font-style:normal;font-variant:normal;font-weight:500;font-stretch:normal;font-size:12.5272px;font-family:Bodonitown;-inkscape-font-specification:'Bodonitown Medium'" /></flowRoot>
  <flowRoot xml:space="preserve" id="flowRoot883" style="font-style:normal;font-variant:normal;font-weight:500;font-stretch:normal;font-size:12.5272px;font-family:Bodonitown;-inkscape-font-specification:'Bodonitown Medium';fill:#000000;fill-opacity:1;stroke:none" transform="matrix(0.82105277,0,0,0.82105277,134.36991,65.580311)"><flowRegion id="flowRegion879"><rect id="rect877" width="290.63779" height="72.868973" x="392.23526" y="295.07626" style="font-style:normal;font-variant:normal;font-weight:500;font-stretch:normal;font-size:12.5271616px;font-family:Bodonitown;-inkscape-font-specification:'Bodonitown Medium'" /></flowRegion><flowPara style="font-style:normal;font-variant:normal;font-weight:500;font-stretch:normal;font-size:12.5272px;font-family:Bodonitown;-inkscape-font-specification:'Bodonitown Medium'" id="flowPara881" /></flowRoot>
  <flowRoot transform="matrix(0.82105277,0,0,0.82105277,134.36991,278.17889)" style="font-style:normal;font-variant:normal;font-weight:500;font-stretch:normal;font-size:12.5272px;font-family:Bodonitown;-inkscape-font-specification:'Bodonitown Medium';fill:#000000;fill-opacity:1;stroke:none" id="flowRoot1010" xml:space="preserve"><flowRegion id="flowRegion1000"><rect style="font-style:normal;font-variant:normal;font-weight:500;font-stretch:normal;font-size:12.5272px;font-family:Bodonitown;-inkscape-font-specification:'Bodonitown Medium';stroke-width:1" y="295.07626" x="392.23526" height="134.14813" width="338.81937" id="rect998" /></flowRegion><flowPara style="font-style:normal;font-variant:normal;font-weight:normal;font-stretch:normal;font-size:12.5272px;font-family:Arial;-inkscape-font-specification:Arial" id="flowPara31365" /></flowRoot>
  <text xml:space="preserve" id="text34095" style="font-family:STIX;font-size:28px;line-height:1.25;letter-spacing:0px;word-spacing:0px;-inkscape-font-specification:STIX;white-space:pre;shape-inside:url(#rect34097)" />
  <g id="g25303" transform="translate(0,-10.456503)" />
  <g id="g34">
    <text xml:space="preserve" style="font-style:normal;font-variant:normal;font-weight:normal;font-stretch:normal;font-size:30px;font-family:'Bebas Neue';-inkscape-font-specification:'Bebas Neue';fill:#666666;fill-opacity:1;stroke:none" x="319.61163" y="63.763409" id="text2888"><tspan id="tspan2890" x="319.61163" y="63.763409">Kursy i Szkolenia:</tspan></text>
    <flowRoot transform="matrix(0.82105277,0,0,0.82105277,134.54588,-148.53149)" style="font-style:normal;font-variant:normal;font-weight:500;font-stretch:normal;font-size:12.5272px;line-height:1.6;font-family:Bodonitown;-inkscape-font-specification:'Bodonitown Medium';fill:#000000;fill-opacity:1;stroke:none" id="flowRoot3783" xml:space="preserve"><flowRegion id="flowRegion3785" style="line-height:1.6"><rect style="font-style:normal;font-variant:normal;font-weight:500;font-stretch:normal;font-size:12.5272px;line-height:1.6;font-family:Bodonitown;-inkscape-font-specification:'Bodonitown Medium';stroke-width:1" y="295.07626" x="392.23526" height="178.40881" width="290.63779" id="rect3787" /></flowRegion><flowPara style="font-style:normal;font-variant:normal;font-weight:500;font-stretch:normal;font-size:12.5272px;line-height:1.6;font-family:Bodonitown;-inkscape-font-specification:'Bodonitown Medium'" id="flowPara1160">Kurs Reacta - DevMastry</flowPara><flowPara style="font-style:normal;font-variant:normal;font-weight:500;font-stretch:normal;font-size:12.5272px;line-height:1.6;font-family:Bodonitown;-inkscape-font-specification:'Bodonitown Medium'" id="flowPara21">Akademia Mentora: mentoring i programy mentoringowe w praktyce</flowPara><flowPara style="font-style:normal;font-variant:normal;font-weight:500;font-stretch:normal;font-size:12.5272px;line-height:1.6;font-family:Bodonitown;-inkscape-font-specification:'Bodonitown Medium'" id="flowPara22">Trainer course – IT trainer</flowPara><flowPara style="font-style:normal;font-variant:normal;font-weight:500;font-stretch:normal;font-size:12.5272px;line-height:1.6;font-family:Bodonitown;-inkscape-font-specification:'Bodonitown Medium'" id="flowPara23">Train the Trainer</flowPara><flowPara style="font-style:normal;font-variant:normal;font-weight:500;font-stretch:normal;font-size:12.5272px;line-height:1.6;font-family:Bodonitown;-inkscape-font-specification:'Bodonitown Medium'" id="flowPara24">SEO + Content + Link Building</flowPara><flowPara style="font-style:normal;font-variant:normal;font-weight:500;font-stretch:normal;font-size:12.5272px;line-height:1.6;font-family:Bodonitown;-inkscape-font-specification:'Bodonitown Medium'" id="flowPara25">Optimized Content Marketing</flowPara></flowRoot>
  </g>
  <flowRoot xml:space="preserve" id="flowRoot901-3" style="font-style:normal;font-variant:normal;font-weight:500;font-stretch:normal;font-size:12.5272px;font-family:Bodonitown;-inkscape-font-specification:'Bodonitown Medium';fill:#000000;fill-opacity:1;stroke:none" transform="matrix(0.82105277,0,0,0.82105277,134.54588,-130.40112)"><flowRegion id="flowRegion897-6"><rect id="rect895-7" width="290.63779" height="72.868973" x="392.23526" y="295.07626" style="font-style:normal;font-variant:normal;font-weight:500;font-stretch:normal;font-size:12.5271616px;font-family:Bodonitown;-inkscape-font-specification:'Bodonitown Medium'" /></flowRegion><flowPara style="font-style:normal;font-variant:normal;font-weight:500;font-stretch:normal;font-size:12.5272px;font-family:Bodonitown;-inkscape-font-specification:'Bodonitown Medium'" id="flowPara899-5" /></flowRoot>
  <flowRoot transform="matrix(0.82105277,0,0,0.82105277,134.54588,-112.27075)" style="font-style:normal;font-variant:normal;font-weight:500;font-stretch:normal;font-size:12.5272px;font-family:Bodonitown;-inkscape-font-specification:'Bodonitown Medium';fill:#000000;fill-opacity:1;stroke:none" id="flowRoot902-3" xml:space="preserve"><flowRegion id="flowRegion898-5"><rect style="font-style:normal;font-variant:normal;font-weight:500;font-stretch:normal;font-size:12.5271616px;font-family:Bodonitown;-inkscape-font-specification:'Bodonitown Medium'" y="295.07626" x="392.23526" height="72.868973" width="290.63779" id="rect896-6" /></flowRegion><flowPara id="flowPara900-2" style="font-style:normal;font-variant:normal;font-weight:500;font-stretch:normal;font-size:12.5272px;font-family:Bodonitown;-inkscape-font-specification:'Bodonitown Medium'" /></flowRoot>
  <flowRoot xml:space="preserve" id="flowRoot910-9" style="font-style:normal;font-variant:normal;font-weight:500;font-stretch:normal;font-size:12.5272px;font-family:Bodonitown;-inkscape-font-specification:'Bodonitown Medium';fill:#000000;fill-opacity:1;stroke:none" transform="matrix(0.82105277,0,0,0.82105277,134.54588,-94.140397)"><flowRegion id="flowRegion906-1"><rect id="rect904-2" width="290.63779" height="39.746246" x="392.23526" y="295.07626" style="font-style:normal;font-variant:normal;font-weight:500;font-stretch:normal;font-size:12.5271616px;font-family:Bodonitown;-inkscape-font-specification:'Bodonitown Medium'" /></flowRegion><flowPara style="font-style:normal;font-variant:normal;font-weight:500;font-stretch:normal;font-size:12.5272px;font-family:Bodonitown;-inkscape-font-specification:'Bodonitown Medium'" id="flowPara908-7" /></flowRoot>
  <flowRoot xml:space="preserve" id="flowRoot3137" style="font-style:normal;font-variant:normal;font-weight:500;font-stretch:normal;font-size:10px;line-height:125%;font-family:Bodonitown;-inkscape-font-specification:'Bodonitown Medium';font-variation-settings:normal;text-align:start;letter-spacing:0px;word-spacing:0px;writing-mode:lr-tb;text-anchor:start;vector-effect:none;fill:#666666;fill-opacity:1;stroke:none;stroke-width:0.958977;stroke-linecap:butt;stroke-linejoin:miter;stroke-miterlimit:4;stroke-dasharray:none;stroke-dashoffset:0;stroke-opacity:1;-inkscape-stroke:none;stop-color:#000000" transform="translate(-22.070531,0.80817683)"><flowRegion id="flowRegion3139" style="font-variation-settings:normal;vector-effect:none;fill:#666666;fill-opacity:1;stroke:none;stroke-width:0.958977;stroke-linecap:butt;stroke-linejoin:miter;stroke-miterlimit:4;stroke-dasharray:none;stroke-dashoffset:0;stroke-opacity:1;-inkscape-stroke:none;stop-color:#000000;stop-opacity:1"><rect id="rect3141" width="214.21584" height="239.11993" x="64.89389" y="900.00262" style="font-style:normal;font-variant:normal;font-weight:500;font-stretch:normal;font-size:10px;font-family:Bodonitown;-inkscape-font-specification:'Bodonitown Medium';font-variation-settings:normal;vector-effect:none;fill:#666666;fill-opacity:1;stroke:none;stroke-width:0.958977;stroke-linecap:butt;stroke-linejoin:miter;stroke-miterlimit:4;stroke-dasharray:none;stroke-dashoffset:0;stroke-opacity:1;-inkscape-stroke:none;stop-color:#000000;stop-opacity:1" /></flowRegion><flowPara id="flowPara3143">Wyrażam zgodę na przetwarzanie moich danych osobowych dla potrzeb niezbędnych do realizacji procesu rekrutacji (zgodnie z ustawą z dnia 10 maja 2018 roku o ochronie danych osobowych (Dz. Ustaw z 2018, poz. 1000) oraz zgodnie z Rozporządzeniem Parlamentu Europejskiego i Rady (UE) 2016/679 z dnia 27 kwietnia 2016 r. w sprawie ochrony osób fizycznych w związku z przetwarzaniem danych osobowych i w sprawie swobodnego przepływu takich danych oraz uchylenia dyrektywy 95/46/WE (RODO).</flowPara></flowRoot>
  <g id="g33" transform="translate(0,-9.4001793)">
    <text xml:space="preserve" style="font-style:normal;font-variant:normal;font-weight:normal;font-stretch:normal;font-size:30px;font-family:'Bebas Neue';-inkscape-font-specification:'Bebas Neue';fill:#666666;fill-opacity:1;stroke:none" x="319.61163" y="293.61456" id="text1"><tspan id="tspan1" x="319.61163" y="293.61456">Wolontariat:</tspan></text>
    <g id="g7" transform="translate(0.17597,230.86741)">
      <flowRoot transform="matrix(0.82105277,0,0,0.82105277,134.36991,-149.54777)" style="font-style:normal;font-variant:normal;font-weight:500;font-stretch:normal;font-size:12.5272px;line-height:1.6;font-family:Bodonitown;-inkscape-font-specification:'Bodonitown Medium';fill:#000000;fill-opacity:1;stroke:none" id="flowRoot4" xml:space="preserve"><flowRegion id="flowRegion1" style="line-height:1.6"><rect style="font-style:normal;font-variant:normal;font-weight:500;font-stretch:normal;font-size:12.5272px;line-height:1.6;font-family:Bodonitown;-inkscape-font-specification:'Bodonitown Medium';stroke-width:1" y="295.07626" x="392.23526" height="148.49789" width="290.63779" id="rect1" /></flowRegion><flowPara style="font-style:normal;font-variant:normal;font-weight:500;font-stretch:normal;font-size:12.5272px;line-height:1.6;font-family:Bodonitown;-inkscape-font-specification:'Bodonitown Medium'" id="flowPara4">Jestem przewodnikiem dla początkujących oraz trenerem w polskiej Wikipedii. Pomagam odpowiadając na pytania nowych użytkowników, oraz monitoruję swoich podopiecznych nawet jeśli nie zadają pytań bezpośrednio. Prowadzę szkolenia online oraz stacjonarnie na temat prawa autorskiego, licencji Creative Commons, oraz Wikimedia Commons.</flowPara></flowRoot>
      <text id="text4" y="110.8774" x="439.01544" style="font-style:normal;font-variant:normal;font-weight:normal;font-stretch:normal;font-size:22.441px;font-family:'Bebas Neue';-inkscape-font-specification:'Bebas Neue';text-align:end;text-anchor:end;fill:#0b7af9;fill-opacity:1;stroke:none;stroke-width:0.935042" xml:space="preserve"><tspan id="tspan4" style="font-style:normal;font-variant:normal;font-weight:normal;font-stretch:normal;font-size:22.441px;font-family:'Bebas Neue';-inkscape-font-specification:'Bebas Neue';text-align:end;text-anchor:end;fill:#0b7af9;fill-opacity:1;stroke-width:0.935042" y="110.8774" x="439.01544">Wikipedia</tspan></text>
      <flowRoot xml:space="preserve" id="flowRoot5" style="font-style:normal;font-variant:normal;font-weight:500;font-stretch:normal;font-size:12.5272px;font-family:Bodonitown;-inkscape-font-specification:'Bodonitown Medium';fill:#000000;fill-opacity:1;stroke:none" transform="matrix(0.82105277,0,0,0.82105277,134.36991,-131.4174)"><flowRegion id="flowRegion5"><rect id="rect5" width="290.63779" height="72.868973" x="392.23526" y="295.07626" style="font-style:normal;font-variant:normal;font-weight:500;font-stretch:normal;font-size:12.5271616px;font-family:Bodonitown;-inkscape-font-specification:'Bodonitown Medium'" /></flowRegion><flowPara style="font-style:normal;font-variant:normal;font-weight:500;font-stretch:normal;font-size:12.5272px;font-family:Bodonitown;-inkscape-font-specification:'Bodonitown Medium'" id="flowPara5" /></flowRoot>
      <flowRoot transform="matrix(0.82105277,0,0,0.82105277,134.36991,-113.28703)" style="font-style:normal;font-variant:normal;font-weight:500;font-stretch:normal;font-size:12.5272px;font-family:Bodonitown;-inkscape-font-specification:'Bodonitown Medium';fill:#000000;fill-opacity:1;stroke:none" id="flowRoot6" xml:space="preserve"><flowRegion id="flowRegion6"><rect style="font-style:normal;font-variant:normal;font-weight:500;font-stretch:normal;font-size:12.5271616px;font-family:Bodonitown;-inkscape-font-specification:'Bodonitown Medium'" y="295.07626" x="392.23526" height="72.868973" width="290.63779" id="rect6" /></flowRegion><flowPara id="flowPara6" style="font-style:normal;font-variant:normal;font-weight:500;font-stretch:normal;font-size:12.5272px;font-family:Bodonitown;-inkscape-font-specification:'Bodonitown Medium'" /></flowRoot>
      <flowRoot xml:space="preserve" id="flowRoot7" style="font-style:normal;font-variant:normal;font-weight:500;font-stretch:normal;font-size:12.5272px;font-family:Bodonitown;-inkscape-font-specification:'Bodonitown Medium';fill:#000000;fill-opacity:1;stroke:none" transform="matrix(0.82105277,0,0,0.82105277,134.36991,-95.156679)"><flowRegion id="flowRegion7"><rect id="rect7" width="290.63779" height="39.746246" x="392.23526" y="295.07626" style="font-style:normal;font-variant:normal;font-weight:500;font-stretch:normal;font-size:12.5271616px;font-family:Bodonitown;-inkscape-font-specification:'Bodonitown Medium'" /></flowRegion><flowPara style="font-style:normal;font-variant:normal;font-weight:500;font-stretch:normal;font-size:12.5272px;font-family:Bodonitown;-inkscape-font-specification:'Bodonitown Medium'" id="flowPara7" /></flowRoot>
    </g>
    <g id="g15" transform="translate(0.17597,324.79329)">
      <text xml:space="preserve" style="font-style:normal;font-variant:normal;font-weight:normal;font-stretch:normal;font-size:22.441px;font-family:'Bebas Neue';-inkscape-font-specification:'Bebas Neue';text-align:end;text-anchor:end;fill:#0b7af9;fill-opacity:1;stroke:none;stroke-width:0.935042" x="439.01544" y="204.97192" id="text7"><tspan x="439.01544" y="204.97192" style="font-style:normal;font-variant:normal;font-weight:normal;font-stretch:normal;font-size:22.441px;font-family:'Bebas Neue';-inkscape-font-specification:'Bebas Neue';text-align:end;text-anchor:end;fill:#0b7af9;fill-opacity:1;stroke-width:0.935042" id="tspan7">OpenClipart</tspan></text>
      <flowRoot xml:space="preserve" id="flowRoot13" style="font-style:normal;font-variant:normal;font-weight:500;font-stretch:normal;font-size:12.5272px;line-height:1.6;font-family:Bodonitown;-inkscape-font-specification:'Bodonitown Medium';fill:#000000;fill-opacity:1;stroke:none" transform="matrix(0.82105277,0,0,0.82105277,134.36991,-55.453149)"><flowRegion id="flowRegion8" style="line-height:1.6"><rect id="rect8" width="290.63779" height="140.95494" x="392.23526" y="295.07626" style="font-style:normal;font-variant:normal;font-weight:500;font-stretch:normal;font-size:12.5272px;line-height:1.6;font-family:Bodonitown;-inkscape-font-specification:'Bodonitown Medium';stroke-width:1" /></flowRegion><flowPara style="font-style:normal;font-variant:normal;font-weight:500;font-stretch:normal;font-size:12.5272px;line-height:1.6;font-family:Bodonitown;-inkscape-font-specification:'Bodonitown Medium'" id="flowPara13">Byłem członkiem strony openclipart.org od 2006 roku, tworząc grafiki wektorowe w domenie publicznej. Później dołączyłem jako wolontariusz, pracując nad stroną, która korzystała z AikiFramework — systemu zarządzania treścią opartego na widżetach w bazie danych.</flowPara></flowRoot>
      <flowRoot transform="matrix(0.82105277,0,0,0.82105277,134.36991,-40.081769)" style="font-style:normal;font-variant:normal;font-weight:500;font-stretch:normal;font-size:12.5272px;font-family:Bodonitown;-inkscape-font-specification:'Bodonitown Medium';fill:#000000;fill-opacity:1;stroke:none" id="flowRoot14" xml:space="preserve"><flowRegion id="flowRegion13"><rect style="font-style:normal;font-variant:normal;font-weight:500;font-stretch:normal;font-size:12.5271616px;font-family:Bodonitown;-inkscape-font-specification:'Bodonitown Medium'" y="295.07626" x="392.23526" height="72.868973" width="290.63779" id="rect13" /></flowRegion><flowPara id="flowPara14" style="font-style:normal;font-variant:normal;font-weight:500;font-stretch:normal;font-size:12.5272px;font-family:Bodonitown;-inkscape-font-specification:'Bodonitown Medium'" /></flowRoot>
      <flowRoot xml:space="preserve" id="flowRoot15" style="font-style:normal;font-variant:normal;font-weight:500;font-stretch:normal;font-size:12.5272px;font-family:Bodonitown;-inkscape-font-specification:'Bodonitown Medium';fill:#000000;fill-opacity:1;stroke:none" transform="matrix(0.82105277,0,0,0.82105277,134.36991,-21.951424)"><flowRegion id="flowRegion14"><rect id="rect14" width="290.63779" height="72.868973" x="392.23526" y="295.07626" style="font-style:normal;font-variant:normal;font-weight:500;font-stretch:normal;font-size:12.5271616px;font-family:Bodonitown;-inkscape-font-specification:'Bodonitown Medium'" /></flowRegion><flowPara style="font-style:normal;font-variant:normal;font-weight:500;font-stretch:normal;font-size:12.5272px;font-family:Bodonitown;-inkscape-font-specification:'Bodonitown Medium'" id="flowPara15" /></flowRoot>
    </g>
    <g id="g19" transform="translate(0.17597,145.2882)">
      <text xml:space="preserve" style="font-style:normal;font-variant:normal;font-weight:normal;font-stretch:normal;font-size:22.441px;font-family:'Bebas Neue';-inkscape-font-specification:'Bebas Neue';text-align:end;text-anchor:end;fill:#0b7af9;fill-opacity:1;stroke:none;stroke-width:0.935042" x="439.01544" y="336.51721" id="text15"><tspan x="439.01544" y="336.51721" style="font-style:normal;font-variant:normal;font-weight:normal;font-stretch:normal;font-size:22.441px;font-family:'Bebas Neue';-inkscape-font-specification:'Bebas Neue';text-align:end;text-anchor:end;fill:#0b7af9;fill-opacity:1;stroke-width:0.935042" id="tspan15">FreeCodeCamp</tspan></text>
      <flowRoot xml:space="preserve" id="flowRoot19" style="font-style:normal;font-variant:normal;font-weight:500;font-stretch:normal;font-size:12.5272px;line-height:1.6;font-family:Bodonitown;-inkscape-font-specification:'Bodonitown Medium';fill:#000000;fill-opacity:1;stroke:none" transform="matrix(0.82105277,0,0,0.82105277,134.36991,74.19319)"><flowRegion style="line-height:1.6" id="flowRegion15"><rect id="rect15" width="290.63779" height="82.712738" x="392.23526" y="295.07626" style="font-style:normal;font-variant:normal;font-weight:500;font-stretch:normal;font-size:12.5271616px;line-height:1.60000002;font-family:Bodonitown;-inkscape-font-specification:'Bodonitown Medium'" /></flowRegion><flowPara id="flowPara19" style="font-style:normal;font-variant:normal;font-weight:500;font-stretch:normal;font-size:12.5272px;line-height:1.6;font-family:Bodonitown;-inkscape-font-specification:'Bodonitown Medium'">Piszę artykuły techniczne oraz dzielę się wiedzą.</flowPara></flowRoot>
    </g>
  </g>
</svg>
